<svg width="49" height="48" viewBox="0 0 49 48" fill="none" xmlns="http://www.w3.org/2000/svg">
<circle cx="24.5" cy="24" r="24" transform="rotate(-90 24.5 24)" fill="#17150D"/>
<path d="M27.03 14.47L36.03 23.47C36.1704 23.6106 36.2493 23.8012 36.2493 24C36.2493 24.1988 36.1704 24.3894 36.03 24.53L27.03 33.53C26.8878 33.6625 26.6998 33.7346 26.5055 33.7312C26.3112 33.7277 26.1258 33.649 25.9884 33.5116C25.851 33.3742 25.7723 33.1888 25.7688 32.9945C25.7654 32.8002 25.8375 32.6122 25.97 32.47L33.6887 24.75L13.5 24.75C13.3011 24.75 13.1103 24.671 12.9697 24.5303C12.829 24.3897 12.75 24.1989 12.75 24C12.75 23.8011 12.829 23.6103 12.9697 23.4697C13.1103 23.329 13.3011 23.25 13.5 23.25L33.6887 23.25L25.97 15.53C25.8375 15.3878 25.7654 15.1998 25.7688 15.0055C25.7723 14.8112 25.851 14.6258 25.9884 14.4884C26.1258 14.351 26.3112 14.2723 26.5055 14.2688C26.6998 14.2654 26.8878 14.3375 27.03 14.47Z" fill="white"/>
</svg>
