<svg width="1440" height="775" viewBox="0 0 1440 775" fill="none" xmlns="http://www.w3.org/2000/svg">
<g clip-path="url(#clip0_124_14025)">
<rect width="1440" height="775" fill="white"/>
<g clip-path="url(#clip1_124_14025)">
<rect width="751" height="775" fill="white"/>
<g clip-path="url(#clip2_124_14025)">
<rect width="1038.67" height="775" transform="translate(-110)" fill="white"/>
<rect x="-110" width="1039" height="779" fill="url(#paint0_linear_124_14025)"/>
<g style="mix-blend-mode:overlay" filter="url(#filter0_f_124_14025)">
<path d="M-194.227 564.51C-87.9461 730.39 192.06 775.935 281.755 634.971C533.605 239.157 634.057 673.41 910.447 491.289C1118.83 353.976 926.429 22.7785 672.246 141.013C418.062 259.248 334.125 192.102 177.832 118.189C21.5367 44.2759 -70.6196 -257.854 -227.206 -77.719C-311.529 19.2839 -382.448 270.738 -194.227 564.51Z" fill="url(#paint1_angular_124_14025)"/>
</g>
</g>
<g style="mix-blend-mode:overlay" filter="url(#filter1_f_124_14025)">
<path d="M1128.06 372.609L1128.68 312.653C1130.2 167.082 1013.42 47.8479 867.848 46.3283L852.338 46.1672C769.374 45.3051 692.04 88.0325 648.616 158.727L625.761 195.937C596.514 243.55 544.429 272.327 488.556 271.743C446.368 271.304 406.082 254.122 376.562 223.983L344.78 191.531C307.461 153.428 256.534 131.709 203.202 131.152C92.144 129.994 1.16804 219.82 0.0111416 330.878C-1.14576 441.936 87.9396 533.635 198.998 534.792C252.33 535.348 303.698 514.694 341.803 477.375L374.254 445.594C404.396 416.073 445.03 399.735 487.22 400.175C543.092 400.757 594.567 430.612 622.813 478.824L644.888 516.5C686.832 588.086 763.261 632.416 846.225 633.28L861.73 633.441C1007.3 634.958 1126.54 518.179 1128.06 372.609Z" fill="url(#paint2_angular_124_14025)" fill-opacity="0.8"/>
</g>
</g>
<rect x="749" width="691" height="776" fill="white"/>
</g>
<defs>
<filter id="filter0_f_124_14025" x="-443.239" y="-263.994" width="1572.01" height="1112.69" filterUnits="userSpaceOnUse" color-interpolation-filters="sRGB">
<feFlood flood-opacity="0" result="BackgroundImageFix"/>
<feBlend mode="normal" in="SourceGraphic" in2="BackgroundImageFix" result="shape"/>
<feGaussianBlur stdDeviation="64.9167" result="effect1_foregroundBlur_124_14025"/>
</filter>
<filter id="filter1_f_124_14025" x="-87.0833" y="-40.929" width="1302.86" height="761.468" filterUnits="userSpaceOnUse" color-interpolation-filters="sRGB">
<feFlood flood-opacity="0" result="BackgroundImageFix"/>
<feBlend mode="normal" in="SourceGraphic" in2="BackgroundImageFix" result="shape"/>
<feGaussianBlur stdDeviation="43.5417" result="effect1_foregroundBlur_124_14025"/>
</filter>
<linearGradient id="paint0_linear_124_14025" x1="1448.5" y1="389.5" x2="700.727" y2="-607.85" gradientUnits="userSpaceOnUse">
<stop stop-color="#B4D3FA"/>
<stop offset="1" stop-color="#D8E9FF"/>
</linearGradient>
<radialGradient id="paint1_angular_124_14025" cx="0" cy="0" r="1" gradientUnits="userSpaceOnUse" gradientTransform="translate(342.768 292.352) scale(656.173 426.513)">
<stop offset="0.0973312" stop-color="#223EEA"/>
<stop offset="0.211238" stop-color="#9044EA"/>
<stop offset="0.435436" stop-color="#FA8792"/>
<stop offset="0.703711" stop-color="#F6C688"/>
<stop offset="0.946417" stop-color="#05B797"/>
</radialGradient>
<radialGradient id="paint2_angular_124_14025" cx="0" cy="0" r="1" gradientUnits="userSpaceOnUse" gradientTransform="translate(564.347 339.805) scale(564.347 293.651)">
<stop stop-color="#E7C755"/>
<stop offset="0.104247" stop-color="#FFB800"/>
<stop offset="0.208094" stop-color="#FEF2B2"/>
<stop offset="0.31143" stop-color="#FFEA11"/>
<stop offset="0.45806" stop-color="#F2EEC7"/>
<stop offset="0.680905" stop-color="#FFEA13"/>
</radialGradient>
<clipPath id="clip0_124_14025">
<rect width="1440" height="775" fill="white"/>
</clipPath>
<clipPath id="clip1_124_14025">
<rect width="751" height="775" fill="white"/>
</clipPath>
<clipPath id="clip2_124_14025">
<rect width="1038.67" height="775" fill="white" transform="translate(-110)"/>
</clipPath>
</defs>
</svg>
