<svg width="1439" height="597" viewBox="0 0 1439 597" fill="none" xmlns="http://www.w3.org/2000/svg">
<g clip-path="url(#clip0_441_10674)">
<rect width="1440" height="597" transform="translate(-1)" fill="white"/>
<g clip-path="url(#clip1_441_10674)">
<rect width="1" height="1028.11" transform="translate(26.0564 -284.037)" fill="#D2E1FD"/>
<rect width="1" height="1028.11" transform="translate(53.1094 -284.037)" fill="#D2E1FD"/>
<rect width="1" height="1028.11" transform="translate(107.223 -284.037)" fill="#D2E1FD"/>
<rect width="1" height="1028.11" transform="translate(161.332 -284.037)" fill="#D2E1FD"/>
<rect width="1" height="1028.11" transform="translate(215.446 -284.037)" fill="#D2E1FD"/>
<rect width="1" height="1028.11" transform="translate(269.554 -284.037)" fill="#D2E1FD"/>
<rect width="1" height="1028.11" transform="translate(323.666 -284.037)" fill="#D2E1FD"/>
<rect width="1" height="1028.11" transform="translate(377.777 -284.037)" fill="#D2E1FD"/>
<rect width="1" height="1028.11" transform="translate(431.889 -284.037)" fill="#D2E1FD"/>
<rect width="1" height="1028.11" transform="translate(486 -284.037)" fill="#D2E1FD"/>
<rect width="1" height="1028.11" transform="translate(540.111 -284.037)" fill="#D2E1FD"/>
<rect width="1" height="1028.11" transform="translate(594.221 -284.037)" fill="#D2E1FD"/>
<rect width="1" height="1028.11" transform="translate(648.334 -284.037)" fill="#D2E1FD"/>
<rect width="1" height="1028.11" transform="translate(702.444 -284.037)" fill="#D2E1FD"/>
<rect width="1" height="1028.11" transform="translate(756.556 -284.037)" fill="#D2E1FD"/>
<rect width="1" height="1028.11" transform="translate(810.666 -284.037)" fill="#D2E1FD"/>
<rect width="1" height="1028.11" transform="translate(864.779 -284.037)" fill="#D2E1FD"/>
<rect width="1" height="1028.11" transform="translate(918.889 -284.037)" fill="#D2E1FD"/>
<rect width="1" height="1028.11" transform="translate(973 -284.037)" fill="#D2E1FD"/>
<rect width="1" height="1028.11" transform="translate(1027.11 -284.037)" fill="#D2E1FD"/>
<rect width="1" height="1028.11" transform="translate(1081.22 -284.037)" fill="#D2E1FD"/>
<rect width="1" height="1028.11" transform="translate(1135.33 -284.037)" fill="#D2E1FD"/>
<rect width="1" height="1028.11" transform="translate(1189.45 -284.037)" fill="#D2E1FD"/>
<rect width="1" height="1028.11" transform="translate(1243.55 -284.037)" fill="#D2E1FD"/>
<rect width="1" height="1028.11" transform="translate(1297.67 -284.037)" fill="#D2E1FD"/>
<rect width="1" height="1028.11" transform="translate(1351.78 -284.037)" fill="#D2E1FD"/>
<rect width="1" height="1028.11" transform="translate(1405.89 -284.037)" fill="#D2E1FD"/>
<rect width="1" height="1028.11" transform="translate(80.166 -284.037)" fill="#D2E1FD"/>
<rect width="1" height="1028.11" transform="translate(134.279 -284.037)" fill="#D2E1FD"/>
<rect width="1" height="1028.11" transform="translate(188.389 -284.037)" fill="#D2E1FD"/>
<rect width="1" height="1028.11" transform="translate(242.5 -284.037)" fill="#D2E1FD"/>
<rect width="1" height="1028.11" transform="translate(296.611 -284.037)" fill="#D2E1FD"/>
<rect width="1" height="1028.11" transform="translate(350.723 -284.037)" fill="#D2E1FD"/>
<rect width="1" height="1028.11" transform="translate(404.834 -284.037)" fill="#D2E1FD"/>
<rect width="1" height="1028.11" transform="translate(458.946 -284.037)" fill="#D2E1FD"/>
<rect width="1" height="1028.11" transform="translate(513.055 -284.037)" fill="#D2E1FD"/>
<rect width="1" height="1028.11" transform="translate(567.168 -284.037)" fill="#D2E1FD"/>
<rect width="1" height="1028.11" transform="translate(621.279 -284.037)" fill="#D2E1FD"/>
<rect width="1" height="1028.11" transform="translate(675.391 -284.037)" fill="#D2E1FD"/>
<rect width="1" height="1028.11" transform="translate(729.5 -284.037)" fill="#D2E1FD"/>
<rect width="1" height="1028.11" transform="translate(783.609 -284.037)" fill="#D2E1FD"/>
<rect width="1" height="1028.11" transform="translate(837.721 -284.037)" fill="#D2E1FD"/>
<rect width="1" height="1028.11" transform="translate(891.832 -284.037)" fill="#D2E1FD"/>
<rect width="1" height="1028.11" transform="translate(945.945 -284.037)" fill="#D2E1FD"/>
<rect width="1" height="1028.11" transform="translate(1000.05 -284.037)" fill="#D2E1FD"/>
<rect width="1" height="1028.11" transform="translate(1054.17 -284.037)" fill="#D2E1FD"/>
<rect width="1" height="1028.11" transform="translate(1108.28 -284.037)" fill="#D2E1FD"/>
<rect width="1" height="1028.11" transform="translate(1162.39 -284.037)" fill="#D2E1FD"/>
<rect width="1" height="1028.11" transform="translate(1216.5 -284.037)" fill="#D2E1FD"/>
<rect width="1" height="1028.11" transform="translate(1270.61 -284.037)" fill="#D2E1FD"/>
<rect width="1" height="1028.11" transform="translate(1324.72 -284.037)" fill="#D2E1FD"/>
<rect width="1" height="1028.11" transform="translate(1378.83 -284.037)" fill="#D2E1FD"/>
<rect width="1" height="1028.11" transform="translate(1432.94 -284.037)" fill="#D2E1FD"/>
<rect width="1" height="1458.92" transform="translate(-1 556.765) rotate(-90)" fill="#D2E1FD"/>
<rect width="1" height="1458.92" transform="translate(-1 502.655) rotate(-90)" fill="#D2E1FD"/>
<rect width="1" height="1458.92" transform="translate(-1 448.544) rotate(-90)" fill="#D2E1FD"/>
<rect width="1" height="1458.92" transform="translate(-1 394.433) rotate(-90)" fill="#D2E1FD"/>
<rect width="1" height="1458.92" transform="translate(-1 340.322) rotate(-90)" fill="#D2E1FD"/>
<rect width="1" height="1458.92" transform="translate(-1 286.211) rotate(-90)" fill="#D2E1FD"/>
<rect width="1" height="1458.92" transform="translate(-1 232.099) rotate(-90)" fill="#D2E1FD"/>
<rect width="1" height="1458.92" transform="translate(-1 177.988) rotate(-90)" fill="#D2E1FD"/>
<rect width="1" height="1458.92" transform="translate(-1 123.877) rotate(-90)" fill="#D2E1FD"/>
<rect width="1" height="1458.92" transform="translate(-1 69.7655) rotate(-90)" fill="#D2E1FD"/>
<rect width="1" height="1458.92" transform="translate(-1 15.655) rotate(-90)" fill="#D2E1FD"/>
<rect width="1" height="1458.92" transform="translate(-1 583.821) rotate(-90)" fill="#D2E1FD"/>
<rect width="1" height="1458.92" transform="translate(-1 529.71) rotate(-90)" fill="#D2E1FD"/>
<rect width="1" height="1458.92" transform="translate(-1 475.6) rotate(-90)" fill="#D2E1FD"/>
<rect width="1" height="1458.92" transform="translate(-1 421.488) rotate(-90)" fill="#D2E1FD"/>
<rect width="1" height="1458.92" transform="translate(-1 367.377) rotate(-90)" fill="#D2E1FD"/>
<rect width="1" height="1458.92" transform="translate(-1 313.266) rotate(-90)" fill="#D2E1FD"/>
<rect width="1" height="1458.92" transform="translate(-1 259.156) rotate(-90)" fill="#D2E1FD"/>
<rect width="1" height="1458.92" transform="translate(-1 205.044) rotate(-90)" fill="#D2E1FD"/>
<rect width="1" height="1458.92" transform="translate(-1 150.933) rotate(-90)" fill="#D2E1FD"/>
<rect width="1" height="1458.92" transform="translate(-1 96.8219) rotate(-90)" fill="#D2E1FD"/>
<rect width="1" height="1458.92" transform="translate(-1 42.7105) rotate(-90)" fill="#D2E1FD"/>
<circle cx="719" cy="299" r="690" fill="url(#paint0_radial_441_10674)"/>
</g>
</g>
<defs>
<radialGradient id="paint0_radial_441_10674" cx="0" cy="0" r="1" gradientUnits="userSpaceOnUse" gradientTransform="translate(719 299) rotate(90) scale(690)">
<stop offset="0.290462" stop-color="white"/>
<stop offset="1" stop-color="white" stop-opacity="0.35"/>
</radialGradient>
<clipPath id="clip0_441_10674">
<rect width="1440" height="597" fill="white" transform="translate(-1)"/>
</clipPath>
<clipPath id="clip1_441_10674">
<rect width="1440" height="1380" fill="white" transform="translate(-1 -391)"/>
</clipPath>
</defs>
</svg>
