<?xml version="1.0" encoding="utf-8"?>
<!-- Generator: Adobe Illustrator 24.3.0, SVG Export Plug-In . SVG Version: 6.00 Build 0)  -->
<svg version="1.1" id="Layer_1" xmlns="http://www.w3.org/2000/svg" xmlns:xlink="http://www.w3.org/1999/xlink" x="0px" y="0px"
	 viewBox="0 0 1450 658.3" style="enable-background:new 0 0 1450 658.3;" xml:space="preserve">
<style type="text/css">
	.st0{fill:#BFD4FF;}
	.st1{opacity:0.25;}
	.st2{opacity:0.3;fill:none;stroke:#2C709B;stroke-width:105;stroke-miterlimit:10;enable-background:new    ;}
	.st3{opacity:0.3;fill:none;stroke:#2C709B;stroke-width:85;stroke-miterlimit:10;enable-background:new    ;}
	.st4{opacity:0.3;}
	.st5{fill:url(#SVGID_1_);}
	.st6{fill:url(#SVGID_2_);}
	.st7{fill:url(#SVGID_3_);}
	.st8{fill:url(#SVGID_4_);}
	.st9{fill:url(#SVGID_5_);}
	.st10{fill:url(#SVGID_6_);}
	.st11{fill:url(#SVGID_7_);}
	.st12{fill:url(#SVGID_8_);}
	.st13{fill:url(#SVGID_9_);}
	.st14{fill:url(#SVGID_10_);}
	.st15{fill:url(#SVGID_11_);}
	.st16{fill:url(#SVGID_12_);}
	.st17{fill:url(#SVGID_13_);}
	.st18{fill:url(#SVGID_14_);}
	.st19{fill:url(#SVGID_15_);}
	.st20{fill:url(#SVGID_16_);}
	.st21{fill:url(#SVGID_17_);}
	.st22{fill:url(#SVGID_18_);}
	.st23{fill:url(#SVGID_19_);}
	.st24{fill:url(#SVGID_20_);}
	.st25{fill:url(#SVGID_21_);}
	.st26{fill:url(#SVGID_22_);}
	.st27{fill:url(#SVGID_23_);}
	.st28{fill:url(#SVGID_24_);}
	.st29{fill:url(#SVGID_25_);}
	.st30{fill:url(#SVGID_26_);}
	.st31{fill:url(#SVGID_27_);}
	.st32{fill:url(#SVGID_28_);}
	.st33{fill:url(#SVGID_29_);}
	.st34{fill:url(#SVGID_30_);}
	.st35{fill:url(#SVGID_31_);}
	.st36{fill:url(#SVGID_32_);}
	.st37{fill:url(#SVGID_33_);}
	.st38{fill:url(#SVGID_34_);}
	.st39{fill:url(#SVGID_35_);}
	.st40{fill:url(#SVGID_36_);}
	.st41{fill:url(#SVGID_37_);}
	.st42{fill:url(#SVGID_38_);}
	.st43{fill:url(#SVGID_39_);}
	.st44{fill:url(#SVGID_40_);}
	.st45{fill:url(#SVGID_41_);}
	.st46{fill:url(#SVGID_42_);}
	.st47{fill:url(#SVGID_43_);}
	.st48{fill:url(#SVGID_44_);}
	.st49{fill:url(#SVGID_45_);}
	.st50{fill:url(#SVGID_46_);}
	.st51{fill:url(#SVGID_47_);}
	.st52{fill:url(#SVGID_48_);}
	.st53{fill:url(#SVGID_49_);}
	.st54{fill:url(#SVGID_50_);}
</style>
<g id="BG">
</g>
<g id="Design">
</g>
<rect class="st0" width="1450" height="658.3"/>
<g id="Text">
	<g class="st1">
		<circle class="st2" cx="1107.7" cy="-498.2" r="342.4"/>
		<circle class="st3" cx="1107.1" cy="-490.8" r="167.2"/>
	</g>
	<g class="st4">
		<g>
			
				<linearGradient id="SVGID_1_" gradientUnits="userSpaceOnUse" x1="881.0488" y1="425.6658" x2="1454.2437" y2="425.6658" gradientTransform="matrix(1 0 0 -1 0 658)">
				<stop  offset="0.1718" style="stop-color:#437FEC"/>
				<stop  offset="0.468" style="stop-color:#336CD5"/>
				<stop  offset="1" style="stop-color:#184EAE"/>
			</linearGradient>
			<path class="st5" d="M894.9,453.1c4.5-2.5,6.1-8.2,3.6-12.7c-0.9-1.6-2.2-2.9-3.7-3.7l31.9-66c1.6,0.7,3.5,0.6,5.2-0.3
				c1-0.6,1.8-1.4,2.3-2.3l33.2,15.7c-1.1,2.6-1,5.5,0.4,8.2c1.9,3.4,5.6,5.2,9.3,4.7l6.9,42.6c-0.5,0.1-1.1,0.3-1.6,0.6
				c-2.9,1.6-4,5.3-2.3,8.2c1.6,2.9,5.3,4,8.2,2.3c2.9-1.6,3.9-5.3,2.3-8.2c-1.2-2.1-3.5-3.3-5.8-3.1l-6.9-42.6
				c0.9-0.2,1.8-0.5,2.7-1c4.5-2.5,6.1-8.2,3.6-12.7c-0.5-0.9-1.1-1.6-1.8-2.3l26.1-30.3c2.6,2.1,6.1,2.9,9.4,2.1l14.6,53.5
				c-0.4,0.1-0.8,0.3-1.1,0.5c-3.2,1.8-4.4,5.9-2.6,9.1c1.8,3.2,5.9,4.4,9.1,2.6c1.5-0.8,2.6-2.1,3.1-3.7l20.9,5.3
				c-0.2,0.9-0.1,1.8,0.4,2.7c1.1,1.9,3.5,2.6,5.4,1.5c1.9-1.1,2.6-3.5,1.5-5.4c-1.1-1.9-3.5-2.6-5.4-1.5c-0.9,0.5-1.6,1.4-1.8,2.3
				l-20.8-5.3c0.5-1.6,0.3-3.5-0.6-5.1c-1.5-2.6-4.4-3.9-7.2-3.3l-14.6-53.5c0.7-0.2,1.4-0.5,2.1-0.9c3.1-1.7,5.1-4.8,5.5-8.1
				l17.5,1.9c-0.1,1.4,0.2,2.8,0.9,4c2,3.6,6.6,4.9,10.2,2.9c3.6-2,4.9-6.6,2.9-10.2c-2-3.6-6.6-4.9-10.2-2.9
				c-2.1,1.2-3.4,3.2-3.7,5.4l-17.5-1.9c0.1-2-0.3-4.2-1.3-6.1c-1.8-3.1-4.8-5.1-8.1-5.5l6.5-63.6c2.4,0.2,4.8-0.3,7.1-1.6
				c0.4-0.2,0.8-0.5,1.2-0.8l14.9,19.7c-2.6,2.2-3.3,6-1.6,9c1.9,3.5,6.3,4.8,9.8,2.8c3.5-2,4.8-6.3,2.8-9.8
				c-1.9-3.5-6.3-4.8-9.8-2.8c-0.2,0.1-0.3,0.2-0.5,0.3l-14.9-19.7c2.3-1.8,3.8-4.3,4.4-7l72.8,14.3c-0.5,2.8,0,5.8,1.5,8.5
				c1.8,3.3,4.9,5.5,8.3,6.4l-12.5,52.6c-1.9-0.4-3.9-0.1-5.8,0.9c-4.2,2.3-5.6,7.5-3.3,11.7c1.8,3.2,5.3,4.8,8.7,4.3l7,43.4
				c-0.3,0.1-0.7,0.2-1,0.4c-1.7,1-2.3,3.2-1.4,4.9c1,1.7,3.2,2.4,4.9,1.4c1.7-1,2.4-3.2,1.4-4.9c-0.7-1.3-2.1-2-3.5-1.8l-7-43.4
				c0.9-0.2,1.8-0.5,2.6-0.9c4.1-2.3,5.6-7.5,3.3-11.7c-1.2-2.1-3-3.5-5.1-4.1l12.5-52.6c2.8,0.5,5.9,0.1,8.6-1.3l36.3,65.5
				c-4,2.5-5.4,7.7-3.1,11.8c2.4,4.3,7.7,5.8,12,3.4c2.8-1.6,4.4-4.4,4.5-7.4l19,0.3c0,0.6,0.2,1.2,0.5,1.7c1,1.9,3.4,2.5,5.2,1.5
				c1.8-1,2.5-3.4,1.5-5.2c-1-1.9-3.4-2.5-5.2-1.5c-1.2,0.7-1.9,1.9-2,3.1l-19-0.3c0-1.4-0.4-2.9-1.1-4.2c-2.3-4.1-7.4-5.7-11.6-3.6
				l-36.3-65.6c3-1.9,5.1-4.8,5.9-8l8.1,1.9c-0.2,0.8,0,1.7,0.4,2.6c1,1.9,3.4,2.5,5.2,1.5c1.9-1,2.5-3.4,1.5-5.2
				c-1-1.9-3.4-2.5-5.2-1.5c-0.9,0.5-1.6,1.4-1.8,2.3l-8-1.9c0.6-2.8,0.3-5.8-1-8.5l63.7-35.4c2.8,4.5,7.8,6.9,12.8,6.6l1.6,20.1
				c-1.3,0.1-2.7,0.6-3.9,1.3c-5,2.8-6.8,9.2-4,14.2c1.4,2.6,3.8,4.3,6.5,5l-6.6,27.2c-0.8-0.2-1.7,0-2.5,0.4c-1.8,1-2.4,3.2-1.4,5
				c1,1.8,3.2,2.4,5,1.4c1.8-1,2.4-3.2,1.4-5c-0.5-0.9-1.3-1.5-2.2-1.7l6.6-27.2c2.4,0.5,5,0.2,7.3-1c2.8-1.5,4.6-4.2,5.2-7.1
				l16.9,3.1c-0.1,0.7,0,1.5,0.4,2.2c0.9,1.7,3.1,2.3,4.8,1.4c1.7-1,2.3-3.1,1.4-4.8c-1-1.7-3.1-2.3-4.8-1.4
				c-0.9,0.5-1.5,1.3-1.7,2.3l-16.9-3.1c0.4-2.3,0-4.6-1.2-6.8c-2-3.6-5.7-5.5-9.5-5.4l-1.5-20.1c1.8-0.2,3.7-0.8,5.4-1.7
				c4.7-2.6,7.3-7.4,7.3-12.4l0-0.8c-0.1-2.1-0.7-4.2-1.8-6.2c-1.6-2.9-4.2-5.1-7-6.3l48.4-137c2.2,0.7,4.5,0.7,6.8,0.1l6.4,22.3
				c-0.6,0.2-1.1,0.4-1.6,0.7c-4.6,2.6-6.3,8.4-3.7,13c1.8,3.2,5.1,4.9,8.5,4.9l1.3,38.4c-0.5,0-1,0.2-1.5,0.4c-1.8,1-2.4,3.3-1.4,5
				c1,1.8,3.3,2.4,5.1,1.4c1.8-1,2.4-3.3,1.4-5c-0.7-1.2-1.9-1.9-3.2-1.9l-1.3-38.4c1.4-0.1,2.8-0.4,4.1-1.2
				c2.3-1.3,3.9-3.4,4.5-5.7l20.6,5.4c-0.3,1.2-0.1,2.4,0.5,3.5c1.3,2.4,4.4,3.3,6.8,1.9c2.4-1.3,3.3-4.4,1.9-6.8
				c-1.3-2.4-4.4-3.3-6.8-1.9c-1.2,0.7-2,1.7-2.3,2.9l-20.6-5.4c0.6-2.3,0.3-4.7-0.9-6.9c-2.1-3.8-6.5-5.6-10.6-4.7l-6.4-22.3
				c0.8-0.2,1.5-0.6,2.2-1c3-1.7,5.1-4.4,5.9-7.5l100.6,24.7c-0.7,3-0.4,6.3,0.8,9.3l-8,3.3c0-0.1-0.1-0.2-0.1-0.2
				c-1.6-2.9-5.3-4-8.2-2.3c-2.9,1.6-3.9,5.3-2.3,8.2c1.6,2.9,5.3,3.9,8.2,2.3c2.6-1.4,3.7-4.5,2.8-7.2l8-3.3
				c0.2,0.4,0.4,0.8,0.6,1.2c1.9,3.4,4.8,5.8,8.1,7.2l-17.7,47.4c-2.3-0.8-5-0.6-7.3,0.7c-4.4,2.5-6,8.1-3.6,12.5
				c2.5,4.4,8.1,6,12.5,3.6c4.4-2.5,6-8.1,3.6-12.5c-1-1.9-2.6-3.2-4.4-4l17.7-47.4c4.2,1.4,8.9,1.2,13.1-1.1
				c1.3-0.7,2.5-1.6,3.5-2.6l25.7,24.8c-3.4,3.8-4.2,9.4-1.6,14.1c3.3,5.9,10.7,8,16.5,4.7c5.9-3.3,8-10.7,4.7-16.5
				c-3.3-5.9-10.7-8-16.5-4.7c-1,0.5-1.8,1.2-2.6,1.9l-25.7-24.8c4.6-5,5.7-12.5,2.2-18.8c-0.8-1.5-1.8-2.8-3-3.9l-0.6-0.5
				c-3.9-3.4-9.2-4.7-14.3-3.4l-11.9-44.1c0.5-0.2,1-0.4,1.5-0.7c4-2.2,5.4-7.3,3.2-11.3c-0.2-0.3-0.4-0.6-0.6-0.9l6.4-5
				c1.2,1.4,3.3,1.8,5,0.9c1.9-1.1,2.7-3.5,1.6-5.5c-1.1-1.9-3.5-2.6-5.5-1.6c-1.9,1.1-2.6,3.5-1.6,5.5c0.1,0.1,0.2,0.2,0.2,0.4
				l-6.4,5c-2.5-3-6.9-4-10.4-2c-2.1,1.2-3.5,3.1-4,5.3l-16.2-3.5c0.2-1.2,0-2.5-0.6-3.6c-1.5-2.7-4.8-3.6-7.5-2.1s-3.6,4.8-2.1,7.5
				c1.5,2.6,4.8,3.6,7.5,2.1c1.4-0.8,2.3-2,2.6-3.5l16.2,3.5c-0.3,1.8-0.1,3.8,0.9,5.6c1.8,3.3,5.5,4.8,9,4.1l11.9,44.1
				c-1.1,0.3-2.2,0.8-3.3,1.4c-4,2.2-6.6,5.8-7.7,9.9l-100.6-24.7c0.7-2.9,0.3-6.1-1.3-8.9c-1-1.8-2.4-3.3-4.1-4.4l10.6-17.6
				c2.3,1.2,5.2,1.3,7.6,0c3.8-2.1,5.2-7,3.1-10.9c-2.1-3.9-7-5.2-10.8-3.1c-3.8,2.1-5.2,7-3.1,10.9c0.6,1.1,1.5,2.1,2.5,2.7
				l-10.6,17.6c-3.7-2.1-8.3-2.3-12.3-0.1c-1.6,0.9-2.8,2-3.9,3.3l-28.9-20.9c1.6-2.4,1.8-5.6,0.3-8.3c-2.2-3.9-7.1-5.3-10.9-3.1
				c-3.9,2.2-5.3,7-3.1,11c2.2,3.9,7.1,5.3,10.9,3.1c0.9-0.5,1.7-1.2,2.4-2l28.9,20.9c-1.9,2.8-2.6,6.4-1.8,9.8L1246,68
				c-0.1-0.2-0.2-0.5-0.3-0.7c-1.2-2.1-3.8-2.8-5.8-1.7c-2.1,1.2-2.8,3.8-1.7,5.8c1.2,2.1,3.8,2.8,5.8,1.7c1.6-0.9,2.4-2.7,2.2-4.4
				l9.3-2.3c0.3,0.9,0.6,1.8,1.1,2.6c1.5,2.7,3.9,4.7,6.6,5.7l-48.4,137c-2.2-0.8-4.5-1-6.8-0.6l-8.6-47.7c0.4-0.1,0.9-0.3,1.3-0.5
				c2.7-1.5,3.6-4.9,2.2-7.6c-1.5-2.7-4.9-3.6-7.6-2.2c-2.7,1.5-3.6,4.9-2.2,7.6c1.1,2,3.3,3.1,5.4,2.8l8.6,47.7
				c-1.4,0.3-2.8,0.8-4.1,1.5c-2,1.1-3.6,2.7-4.8,4.4l-59.6-38.8c1.5-2.6,1.7-6,0.1-8.8c-1.5-2.7-4.2-4.3-7.1-4.6l1.7-33.8
				c0.9,0,1.8-0.2,2.7-0.7c1.2-0.7,2.1-1.8,2.5-3l12,3.4c-0.2,0.9-0.1,1.9,0.4,2.7c1,1.9,3.4,2.5,5.2,1.5c1.9-1,2.5-3.4,1.5-5.2
				c-1-1.9-3.4-2.5-5.2-1.5c-0.9,0.5-1.5,1.3-1.8,2.1l-12-3.4c0.3-1.3,0.2-2.7-0.5-3.9c-0.4-0.7-0.8-1.2-1.4-1.6l23.5-32.2
				c1,0.7,2.4,0.8,3.5,0.1c1.7-0.9,2.3-3,1.3-4.7s-3-2.3-4.7-1.3c-1.7,0.9-2.3,3-1.3,4.7c0.2,0.4,0.5,0.7,0.8,1l-23.5,32.2
				c-1.6-1.1-3.8-1.3-5.6-0.3c-2.6,1.4-3.5,4.7-2.1,7.3c0.9,1.6,2.5,2.6,4.2,2.8l-1.7,33.8c-1.6,0-3.1,0.3-4.6,1.1
				c-4.3,2.4-5.8,7.8-3.4,12.1c2.4,4.3,7.8,5.8,12.1,3.4c1.2-0.7,2.2-1.6,2.9-2.6l59.7,38.8c-2.6,4.2-2.8,9.7-0.3,14.3c0,0,0,0,0,0
				l-63.6,35.4c0,0,0,0,0,0c-2.5-4.5-7.2-6.9-12-6.8l-1.9-22.6c1.1-0.1,2.2-0.5,3.3-1.1c4.4-2.4,6-8,3.5-12.4c-2.4-4.4-8-6-12.4-3.5
				c-4.4,2.4-6,8-3.5,12.4c1.7,3.1,5,4.8,8.3,4.7l1.9,22.5c-1.8,0.2-3.5,0.7-5.2,1.6c-3.4,1.9-5.6,5.1-6.4,8.6l-72.8-14.3
				c0.4-2.7,0-5.6-1.4-8.3c-1.9-3.4-5.1-5.6-8.6-6.3l4.5-26.1c1.3,0.1,2.6-0.1,3.8-0.8c3.1-1.7,4.2-5.6,2.5-8.7
				c-1.7-3.1-5.7-4.2-8.8-2.5c-3.1,1.7-4.2,5.6-2.5,8.8c0.9,1.6,2.4,2.7,4.2,3.1l-4.5,26.1c-2.6-0.4-5.4,0.1-7.9,1.5
				c-3.1,1.7-5.2,4.5-6,7.7l-36-8.9c0.3-1.6,0.1-3.2-0.8-4.7c-1.9-3.4-6.2-4.6-9.6-2.7c-3.4,1.9-4.6,6.2-2.7,9.6
				c1.9,3.4,6.2,4.6,9.6,2.7c1.7-0.9,2.8-2.4,3.3-4.1l36,8.9c-0.6,2.6-0.3,5.4,0.9,8l-5.7,2.7c0,0,0,0,0,0c-1-1.9-3.4-2.5-5.2-1.5
				c-1.9,1-2.5,3.4-1.5,5.2c1,1.9,3.4,2.5,5.2,1.5c1.7-1,2.4-3,1.7-4.9l5.7-2.7c0.1,0.2,0.2,0.3,0.2,0.5c2,3.6,5.6,5.9,9.4,6.4
				l-6.6,63.6c-2-0.1-4.2,0.3-6.1,1.4c-1.3,0.7-2.4,1.7-3.3,2.8l-29.4-21.5c1.6-2.4,1.8-5.6,0.3-8.2c-2.1-3.8-7-5.2-10.8-3.1
				c-3.8,2.1-5.2,7-3.1,10.8c2.1,3.8,7,5.2,10.8,3.1c0.9-0.5,1.7-1.2,2.3-1.9l29.4,21.5c-2.3,3.3-2.6,7.8-0.5,11.5
				c0.6,1,1.3,2,2.1,2.7l-26.1,30.3c-2.9-2.3-6.9-2.7-10.3-0.9c-1.7,0.9-2.9,2.3-3.7,3.8l-33.2-15.7c0.6-1.6,0.6-3.5-0.3-5.1
				c-1.6-2.9-5.3-4-8.2-2.4c-2.9,1.6-4,5.3-2.3,8.2c0.5,1,1.4,1.8,2.3,2.3l-31.9,66c-2.6-1.1-5.6-1-8.2,0.4
				c-4.5,2.5-6.1,8.2-3.6,12.7C884.7,454,890.4,455.6,894.9,453.1z"/>
			
				<linearGradient id="SVGID_2_" gradientUnits="userSpaceOnUse" x1="1459.3043" y1="596.1661" x2="1603.2274" y2="596.1661" gradientTransform="matrix(1 0 0 -1 0 658)">
				<stop  offset="0.1718" style="stop-color:#437FEC"/>
				<stop  offset="0.468" style="stop-color:#336CD5"/>
				<stop  offset="1" style="stop-color:#184EAE"/>
			</linearGradient>
			<path class="st6" d="M1463.7,71.1c1.3-0.1,2.6,0.3,3.5,1.1l6.5-6.4c-2.1-2.2-3.5-5-3.8-8.3c-0.5-5.4,2.3-10.3,6.7-12.9l0.8-0.4
				c1.5-0.7,3.1-1.2,4.8-1.3c7.5-0.6,14,4.9,14.7,12.3c0.1,0.6,0.1,1.2,0,1.8l86.7,3.4c0.4-4.7,4.1-8.6,8.9-9
				c5.4-0.5,10.2,3.5,10.6,8.9c0.5,5.4-3.5,10.2-8.9,10.6c-5.4,0.5-10.2-3.5-10.7-9c0-0.3,0-0.5,0-0.8l-86.7-3.4
				c-0.7,6.3-5.8,11.4-12.3,12c-3.9,0.3-7.6-1-10.3-3.5l-6.5,6.4c0.6,0.7,1,1.6,1.1,2.6c0.2,2.6-1.7,5-4.4,5.2
				c-2.6,0.2-5-1.7-5.2-4.4C1459.1,73.7,1461.1,71.4,1463.7,71.1z"/>
			
				<linearGradient id="SVGID_3_" gradientUnits="userSpaceOnUse" x1="1263.6436" y1="420.0013" x2="1323.4579" y2="420.0013" gradientTransform="matrix(1 0 0 -1 0 658)">
				<stop  offset="0.1718" style="stop-color:#437FEC"/>
				<stop  offset="0.468" style="stop-color:#336CD5"/>
				<stop  offset="1" style="stop-color:#184EAE"/>
			</linearGradient>
			<path class="st7" d="M1320.9,250.4c-0.2,0.3-0.5,0.5-0.7,0.8c-2.5,2.4-5.8,3.4-9,3l-1.9,10c1.4,0.4,2.5,1.7,2.6,3.2
				c0.2,2-1.4,3.8-3.4,4s-3.8-1.4-3.9-3.4c-0.2-2,1.3-3.8,3.4-4c0.2,0,0.4,0,0.6,0l1.9-10c-2.1-0.4-4-1.4-5.6-3.1
				c-1.2-1.3-2.1-2.7-2.6-4.3l-28.3,8.2c0.4,1.7-0.1,3.5-1.4,4.8c-2,2-5.3,2-7.3-0.1c-2-2-2-5.3,0.1-7.3c2.1-2,5.3-2,7.3,0.1
				c0.5,0.6,0.9,1.2,1.2,1.9l28.3-8.2c-0.9-3.6,0.1-7.6,2.9-10.5c1-1,2.2-1.8,3.4-2.3l-5.3-13.9c-2.7,0.9-5.7,0.2-7.8-1.9
				c-3-3-2.9-7.9,0.1-10.8c3-3,7.9-2.9,10.8,0.1c3,3,2.9,7.9-0.1,10.8c-0.7,0.7-1.5,1.2-2.3,1.6l5.3,13.9c3.9-1.3,8.3-0.4,11.3,2.7
				c3.8,3.9,4.1,9.8,1,14.1L1320.9,250.4z"/>
			
				<linearGradient id="SVGID_4_" gradientUnits="userSpaceOnUse" x1="1259.2659" y1="717.8052" x2="1316.5815" y2="717.8052" gradientTransform="matrix(1 0 0 -1 0 658)">
				<stop  offset="0.1718" style="stop-color:#437FEC"/>
				<stop  offset="0.468" style="stop-color:#336CD5"/>
				<stop  offset="1" style="stop-color:#184EAE"/>
			</linearGradient>
			<path class="st8" d="M1314.7-72.6c-1.6,1.5-3.7,2.1-5.7,1.7l-6.1,21.4c0.9,0.3,1.8,0.9,2.6,1.6c1.3,1.3,1.9,3,1.9,4.7l-0.1,0.9
				c-0.2,1.5-0.8,2.9-2,4c-1.9,1.9-4.7,2.4-7,1.5l-0.8-0.4c-0.6-0.3-1.3-0.7-1.8-1.3c-2-2-2.4-4.9-1.5-7.3L1272-56.3
				c-0.3,0.5-0.7,1.1-1.2,1.5c-2.7,2.6-7,2.6-9.6-0.1c-2.6-2.7-2.6-7,0.1-9.6c2.7-2.6,7-2.6,9.6,0.1c1.9,2,2.4,4.9,1.5,7.3
				l22.3,10.6c0.3-0.5,0.7-1.1,1.2-1.5c1.7-1.7,4.1-2.3,6.2-1.8l6.1-21.4c-0.8-0.3-1.6-0.8-2.3-1.5c-2.4-2.5-2.4-6.4,0.1-8.8
				c2.5-2.4,6.4-2.4,8.8,0.1C1317.2-78.9,1317.2-75,1314.7-72.6z"/>
			
				<linearGradient id="SVGID_5_" gradientUnits="userSpaceOnUse" x1="1103.8215" y1="629.0112" x2="1207.0763" y2="629.0112" gradientTransform="matrix(1 0 0 -1 0 658)">
				<stop  offset="0.1718" style="stop-color:#437FEC"/>
				<stop  offset="0.468" style="stop-color:#336CD5"/>
				<stop  offset="1" style="stop-color:#184EAE"/>
			</linearGradient>
			<path class="st9" d="M1205.8,78.8c-1.7,1.7-4.4,1.6-6.1-0.1c-1.7-1.7-1.6-4.4,0.1-6.1c0.1-0.1,0.2-0.2,0.3-0.3l-26.3-43.2
				c-2.3,1.1-5.1,0.7-6.9-1.2c-0.8-0.8-1.3-1.8-1.5-2.8l-36.9,5.4c0.1,1.7-0.5,3.4-1.8,4.6c-2.4,2.3-6.2,2.3-8.5-0.1
				c-2.3-2.4-2.3-6.2,0.1-8.5c0.7-0.7,1.5-1.1,2.3-1.4l-7.5-31.6c-2.5,0.4-5.1-0.3-7-2.3c-2.1-2.1-2.7-5.2-1.9-7.9l0.4-1
				c0.4-0.9,0.9-1.7,1.7-2.4c1.4-1.4,3.2-2.1,5-2.2h1.1c1.9,0.1,3.7,0.9,5.2,2.3c3.1,3.2,3,8.2-0.1,11.3c-0.9,0.9-2.1,1.5-3.2,1.9
				l7.5,31.6c1.8-0.3,3.8,0.3,5.2,1.7c0.8,0.8,1.3,1.8,1.5,2.8l36.9-5.4c-0.1-1.7,0.5-3.4,1.8-4.6c2.4-2.3,6.2-2.3,8.5,0.1
				c2.3,2.4,2.3,6.2-0.1,8.5c-0.2,0.2-0.4,0.4-0.6,0.5l26.3,43.2c1.6-0.7,3.5-0.4,4.8,0.9C1207.5,74.4,1207.5,77.2,1205.8,78.8z"/>
			
				<linearGradient id="SVGID_6_" gradientUnits="userSpaceOnUse" x1="1393.4697" y1="386.1949" x2="1447.9799" y2="386.1949" gradientTransform="matrix(1 0 0 -1 0 658)">
				<stop  offset="0.1718" style="stop-color:#437FEC"/>
				<stop  offset="0.468" style="stop-color:#336CD5"/>
				<stop  offset="1" style="stop-color:#184EAE"/>
			</linearGradient>
			<path class="st10" d="M1401.5,244.6c2.9,0,5.3,1.6,6.7,3.9l19-10.1c-0.7-1.5-1.1-3.1-1.1-4.9c0-2.9,1.2-5.5,3-7.4l0.6-0.6
				c2-1.8,4.6-2.9,7.5-2.9c5,0.1,9.2,3.5,10.5,8.1l0.2,0.8c0.1,0.7,0.2,1.4,0.2,2.2c0,4-2.3,7.5-5.5,9.4l-0.7,0.4
				c-1.5,0.7-3.1,1.1-4.8,1.1c-4,0-7.5-2.2-9.4-5.5l-19,10.1c0.5,1,0.8,2.2,0.8,3.4c0,3.3-2.1,6.1-4.9,7.3l15.9,45.6
				c0.7-0.2,1.5-0.4,2.3-0.4c4.4,0,7.9,3.6,7.9,8c0,4.4-3.6,7.9-8,7.8s-7.9-3.6-7.9-8c0-3.3,2.1-6.1,4.9-7.3l-15.9-45.6
				c-0.7,0.2-1.5,0.4-2.3,0.4c-4.4,0-7.9-3.6-7.9-8C1393.5,248.1,1397.1,244.6,1401.5,244.6z"/>
			
				<linearGradient id="SVGID_7_" gradientUnits="userSpaceOnUse" x1="1446.6002" y1="675.4863" x2="1483.6514" y2="675.4863" gradientTransform="matrix(1 0 0 -1 0 658)">
				<stop  offset="0.1718" style="stop-color:#437FEC"/>
				<stop  offset="0.468" style="stop-color:#336CD5"/>
				<stop  offset="1" style="stop-color:#184EAE"/>
			</linearGradient>
			<path class="st11" d="M1483.1-32.8c-0.4,1.3-1.2,2.5-2.2,3.5c-2.8,2.8-7,3.4-10.4,1.7l-13.5,25c0.5,0.3,0.9,0.6,1.3,1
				c2.6,2.7,2.6,7-0.1,9.7c-2.7,2.6-7,2.6-9.7-0.1c-1.3-1.3-1.9-3.1-1.9-4.8l0.1-0.8c0.2-1.5,0.8-3,2-4.1c2.1-2,5.2-2.5,7.7-1.3
				l13.4-25c-0.7-0.4-1.3-0.9-1.8-1.5c-3.6-3.6-3.5-9.4,0.1-13c3.6-3.6,9.4-3.5,13,0.1c2.4,2.4,3.1,5.8,2.3,8.8L1483.1-32.8z"/>
			
				<linearGradient id="SVGID_8_" gradientUnits="userSpaceOnUse" x1="1265.4829" y1="324.2589" x2="1315.0736" y2="324.2589" gradientTransform="matrix(1 0 0 -1 0 658)">
				<stop  offset="0.1718" style="stop-color:#437FEC"/>
				<stop  offset="0.468" style="stop-color:#336CD5"/>
				<stop  offset="1" style="stop-color:#184EAE"/>
			</linearGradient>
			<path class="st12" d="M1308.5,341.3c-3.2,0.3-6.1-1.6-7.2-4.4l-12.2,3.8c0.2,0.7,0.3,1.4,0.4,2.1c0.5,6.6-4.4,12.4-11,12.9
				c-2.3,0.2-4.5-0.3-6.4-1.3l-1-0.6c-3-2-5.1-5.3-5.4-9.1c-0.5-6.4,4.1-12,10.4-12.8l-0.9-11.4c-2.1-0.1-3.8-1.8-4-3.9
				c-0.2-2.4,1.6-4.4,3.9-4.6c2.4-0.2,4.4,1.6,4.6,4c0.2,2.2-1.3,4-3.3,4.5l0.9,11.4c5.2-0.1,9.8,3.1,11.6,7.8l12.2-3.9
				c-0.1-0.3-0.1-0.7-0.2-1c-0.3-4,2.6-7.4,6.6-7.7c3.9-0.3,7.4,2.7,7.7,6.6C1315.4,337.5,1312.4,341,1308.5,341.3z"/>
		</g>
		<g>
			
				<linearGradient id="SVGID_9_" gradientUnits="userSpaceOnUse" x1="1580.8999" y1="596.57" x2="1606.02" y2="596.57" gradientTransform="matrix(1 0 0 -1 0 658)">
				<stop  offset="0.1718" style="stop-color:#437FEC"/>
				<stop  offset="0.468" style="stop-color:#336CD5"/>
				<stop  offset="1" style="stop-color:#184EAE"/>
			</linearGradient>
			<circle class="st13" cx="1593.5" cy="61.4" r="12.6"/>
			
				<linearGradient id="SVGID_10_" gradientUnits="userSpaceOnUse" x1="1462.11" y1="693.85" x2="1486.7699" y2="693.85" gradientTransform="matrix(1 0 0 -1 0 658)">
				<stop  offset="0.1718" style="stop-color:#437FEC"/>
				<stop  offset="0.468" style="stop-color:#336CD5"/>
				<stop  offset="1" style="stop-color:#184EAE"/>
			</linearGradient>
			<circle class="st14" cx="1474.4" cy="-35.8" r="12.3"/>
			
				<linearGradient id="SVGID_11_" gradientUnits="userSpaceOnUse" x1="1291.75" y1="701.08" x2="1309.51" y2="701.08" gradientTransform="matrix(1 0 0 -1 0 658)">
				<stop  offset="0.1718" style="stop-color:#437FEC"/>
				<stop  offset="0.468" style="stop-color:#336CD5"/>
				<stop  offset="1" style="stop-color:#184EAE"/>
			</linearGradient>
			<circle class="st15" cx="1300.6" cy="-43.1" r="8.9"/>
			
				<linearGradient id="SVGID_12_" gradientUnits="userSpaceOnUse" x1="1278.4299" y1="630.14" x2="1299.23" y2="630.14" gradientTransform="matrix(1 0 0 -1 0 658)">
				<stop  offset="0.1718" style="stop-color:#437FEC"/>
				<stop  offset="0.468" style="stop-color:#336CD5"/>
				<stop  offset="1" style="stop-color:#184EAE"/>
			</linearGradient>
			<circle class="st16" cx="1288.8" cy="27.9" r="10.4"/>
			
				<linearGradient id="SVGID_13_" gradientUnits="userSpaceOnUse" x1="1114.474" y1="627.013" x2="1130.4261" y2="627.013" gradientTransform="matrix(1 0 0 -1 0 658)">
				<stop  offset="0.1718" style="stop-color:#437FEC"/>
				<stop  offset="0.468" style="stop-color:#336CD5"/>
				<stop  offset="1" style="stop-color:#184EAE"/>
			</linearGradient>
			<path class="st17" d="M1115.2,34.3c-1.8-4,0-8.7,4-10.5c4-1.8,8.7,0,10.5,4s0,8.7-4,10.5C1121.7,40.1,1117,38.3,1115.2,34.3z"/>
			
				<linearGradient id="SVGID_14_" gradientUnits="userSpaceOnUse" x1="1126.1" y1="532.17" x2="1140.7201" y2="532.17" gradientTransform="matrix(1 0 0 -1 0 658)">
				<stop  offset="0.1718" style="stop-color:#437FEC"/>
				<stop  offset="0.468" style="stop-color:#336CD5"/>
				<stop  offset="1" style="stop-color:#184EAE"/>
			</linearGradient>
			<circle class="st18" cx="1133.4" cy="125.8" r="7.3"/>
			
				<linearGradient id="SVGID_15_" gradientUnits="userSpaceOnUse" x1="1367.17" y1="631.01" x2="1388.3099" y2="631.01" gradientTransform="matrix(1 0 0 -1 0 658)">
				<stop  offset="0.1718" style="stop-color:#437FEC"/>
				<stop  offset="0.468" style="stop-color:#336CD5"/>
				<stop  offset="1" style="stop-color:#184EAE"/>
			</linearGradient>
			<circle class="st19" cx="1377.7" cy="27" r="10.6"/>
			
				<linearGradient id="SVGID_16_" gradientUnits="userSpaceOnUse" x1="1358.3246" y1="492.2179" x2="1380.6455" y2="492.2179" gradientTransform="matrix(1 0 0 -1 0 658)">
				<stop  offset="0.1718" style="stop-color:#437FEC"/>
				<stop  offset="0.468" style="stop-color:#336CD5"/>
				<stop  offset="1" style="stop-color:#184EAE"/>
			</linearGradient>
			<path class="st20" d="M1359.3,170.4c-2.5-5.6,0-12.2,5.6-14.8s12.2,0,14.8,5.6s0,12.2-5.6,14.8
				C1368.4,178.5,1361.8,176,1359.3,170.4z"/>
			
				<linearGradient id="SVGID_17_" gradientUnits="userSpaceOnUse" x1="1390.8831" y1="405.5229" x2="1411.9171" y2="405.5229" gradientTransform="matrix(1 0 0 -1 0 658)">
				<stop  offset="0.1718" style="stop-color:#437FEC"/>
				<stop  offset="0.468" style="stop-color:#336CD5"/>
				<stop  offset="1" style="stop-color:#184EAE"/>
			</linearGradient>
			<path class="st21" d="M1391.8,256.8c-2.4-5.3,0-11.5,5.3-13.9c5.3-2.4,11.5,0,13.9,5.3c2.4,5.3,0,11.5-5.3,13.9
				C1400.4,264.4,1394.2,262.1,1391.8,256.8z"/>
			
				<linearGradient id="SVGID_18_" gradientUnits="userSpaceOnUse" x1="1298.87" y1="414.69" x2="1326.2899" y2="414.69" gradientTransform="matrix(1 0 0 -1 0 658)">
				<stop  offset="0.1718" style="stop-color:#437FEC"/>
				<stop  offset="0.468" style="stop-color:#336CD5"/>
				<stop  offset="1" style="stop-color:#184EAE"/>
			</linearGradient>
			<circle class="st22" cx="1312.6" cy="243.3" r="13.7"/>
			
				<linearGradient id="SVGID_19_" gradientUnits="userSpaceOnUse" x1="1261.84" y1="314.18" x2="1293.0599" y2="314.18" gradientTransform="matrix(1 0 0 -1 0 658)">
				<stop  offset="0.1718" style="stop-color:#437FEC"/>
				<stop  offset="0.468" style="stop-color:#336CD5"/>
				<stop  offset="1" style="stop-color:#184EAE"/>
			</linearGradient>
			<circle class="st23" cx="1277.4" cy="343.8" r="15.6"/>
			
				<linearGradient id="SVGID_20_" gradientUnits="userSpaceOnUse" x1="1192.5699" y1="432.68" x2="1227.63" y2="432.68" gradientTransform="matrix(1 0 0 -1 0 658)">
				<stop  offset="0.1718" style="stop-color:#437FEC"/>
				<stop  offset="0.468" style="stop-color:#336CD5"/>
				<stop  offset="1" style="stop-color:#184EAE"/>
			</linearGradient>
			<circle class="st24" cx="1210.1" cy="225.3" r="17.5"/>
			
				<linearGradient id="SVGID_21_" gradientUnits="userSpaceOnUse" x1="1008.2601" y1="403.5058" x2="1040.2499" y2="403.5058" gradientTransform="matrix(1 0 0 -1 0 658)">
				<stop  offset="0.1718" style="stop-color:#437FEC"/>
				<stop  offset="0.468" style="stop-color:#336CD5"/>
				<stop  offset="1" style="stop-color:#184EAE"/>
			</linearGradient>
			<path class="st25" d="M1009.7,261c-3.6-8.1,0-17.5,8-21.1c8.1-3.6,17.5,0,21.1,8c3.6,8.1,0,17.5-8,21.1
				C1022.8,272.7,1013.3,269.1,1009.7,261z"/>
			
				<linearGradient id="SVGID_22_" gradientUnits="userSpaceOnUse" x1="1094.322" y1="310.2578" x2="1116.078" y2="310.2578" gradientTransform="matrix(1 0 0 -1 0 658)">
				<stop  offset="0.1718" style="stop-color:#437FEC"/>
				<stop  offset="0.468" style="stop-color:#336CD5"/>
				<stop  offset="1" style="stop-color:#184EAE"/>
			</linearGradient>
			<path class="st26" d="M1095.3,352.2c-2.5-5.5,0-11.9,5.5-14.4s11.9,0,14.4,5.5c2.5,5.5,0,11.9-5.5,14.4
				C1104.2,360.1,1097.7,357.7,1095.3,352.2z"/>
			
				<linearGradient id="SVGID_23_" gradientUnits="userSpaceOnUse" x1="1025.6716" y1="245.6842" x2="1043.2998" y2="245.6842" gradientTransform="matrix(1 0 0 -1 0 658)">
				<stop  offset="0.1718" style="stop-color:#437FEC"/>
				<stop  offset="0.468" style="stop-color:#336CD5"/>
				<stop  offset="1" style="stop-color:#184EAE"/>
			</linearGradient>
			<path class="st27" d="M1026.4,415.9c-2-4.4,0-9.7,4.4-11.6c4.4-2,9.7,0,11.7,4.4c2,4.4,0,9.6-4.4,11.6
				C1033.7,422.4,1028.4,420.4,1026.4,415.9z"/>
			
				<linearGradient id="SVGID_24_" gradientUnits="userSpaceOnUse" x1="919.9527" y1="292.9192" x2="937.8073" y2="292.9192" gradientTransform="matrix(1 0 0 -1 0 658)">
				<stop  offset="0.1718" style="stop-color:#437FEC"/>
				<stop  offset="0.468" style="stop-color:#336CD5"/>
				<stop  offset="1" style="stop-color:#184EAE"/>
			</linearGradient>
			<path class="st28" d="M920.7,368.7c-2-4.5,0-9.8,4.5-11.8s9.8,0,11.8,4.5c2,4.5,0,9.8-4.5,11.8S922.8,373.2,920.7,368.7z"/>
			
				<linearGradient id="SVGID_25_" gradientUnits="userSpaceOnUse" x1="1307.85" y1="542.35" x2="1321.67" y2="542.35" gradientTransform="matrix(1 0 0 -1 0 658)">
				<stop  offset="0.1718" style="stop-color:#437FEC"/>
				<stop  offset="0.468" style="stop-color:#336CD5"/>
				<stop  offset="1" style="stop-color:#184EAE"/>
			</linearGradient>
			<circle class="st29" cx="1314.8" cy="115.7" r="6.9"/>
		</g>
	</g>
	<g class="st4">
		<g>
			
				<linearGradient id="SVGID_26_" gradientUnits="userSpaceOnUse" x1="-197.3818" y1="157.5291" x2="375.8131" y2="157.5291" gradientTransform="matrix(1 0 0 -1 0 658)">
				<stop  offset="0.1718" style="stop-color:#437FEC"/>
				<stop  offset="0.468" style="stop-color:#336CD5"/>
				<stop  offset="1" style="stop-color:#184EAE"/>
			</linearGradient>
			<path class="st30" d="M-183.5,721.3c4.5-2.5,6.1-8.2,3.6-12.7c-0.9-1.6-2.2-2.9-3.7-3.7l31.9-66c1.6,0.7,3.5,0.6,5.2-0.3
				c1-0.6,1.8-1.4,2.3-2.3l33.2,15.7c-1.1,2.6-1,5.5,0.4,8.2c1.9,3.4,5.6,5.2,9.3,4.7l6.9,42.6c-0.5,0.1-1.1,0.3-1.6,0.6
				c-2.9,1.6-3.9,5.3-2.3,8.2c1.6,2.9,5.3,4,8.2,2.3c2.9-1.6,3.9-5.3,2.3-8.2c-1.2-2.1-3.5-3.3-5.8-3.1l-6.9-42.6
				c0.9-0.2,1.8-0.5,2.7-1c4.5-2.5,6.1-8.2,3.6-12.7c-0.5-0.9-1.1-1.6-1.8-2.3l26.1-30.3c2.6,2.1,6.1,2.9,9.4,2.1l14.5,53.5
				c-0.4,0.1-0.8,0.3-1.1,0.5c-3.2,1.8-4.4,5.9-2.6,9.1c1.8,3.2,5.9,4.4,9.1,2.6c1.5-0.8,2.5-2.2,3.1-3.7l20.9,5.3
				c-0.2,0.9-0.1,1.8,0.4,2.7c1.1,1.9,3.5,2.6,5.4,1.5c1.9-1.1,2.6-3.5,1.5-5.4s-3.5-2.6-5.4-1.5c-0.9,0.5-1.6,1.3-1.8,2.3
				l-20.8-5.3c0.5-1.7,0.3-3.5-0.6-5.1c-1.5-2.6-4.4-3.9-7.2-3.3l-14.6-53.5c0.7-0.2,1.4-0.5,2.1-0.9c3.1-1.7,5.1-4.8,5.5-8.1
				l17.5,1.8c-0.1,1.4,0.2,2.8,0.9,4c2,3.6,6.6,4.9,10.2,2.9c3.6-2,4.9-6.6,2.9-10.2c-2-3.6-6.6-4.9-10.2-2.9
				c-2.1,1.2-3.4,3.2-3.7,5.4l-17.5-1.8c0.1-2-0.3-4.2-1.3-6.1c-1.8-3.1-4.8-5.1-8.1-5.5l6.5-63.6c2.4,0.2,4.8-0.3,7.1-1.6
				c0.4-0.2,0.8-0.5,1.2-0.8l14.9,19.7c-2.6,2.2-3.3,6-1.6,9c1.9,3.5,6.4,4.8,9.8,2.8c3.5-2,4.8-6.3,2.8-9.8
				c-1.9-3.5-6.4-4.8-9.8-2.8c-0.2,0.1-0.4,0.2-0.5,0.3l-14.9-19.7c2.3-1.8,3.8-4.3,4.4-7L31.1,540c-0.5,2.8,0,5.8,1.5,8.5
				c1.8,3.3,4.9,5.5,8.4,6.4l-12.5,52.6c-1.9-0.4-4-0.1-5.8,0.9c-4.1,2.3-5.6,7.5-3.3,11.7c1.8,3.2,5.3,4.8,8.7,4.3l7,43.4
				c-0.3,0.1-0.7,0.2-1,0.3c-1.7,1-2.4,3.2-1.4,4.9c1,1.7,3.2,2.4,4.9,1.4c1.7-1,2.4-3.2,1.4-4.9c-0.7-1.3-2.1-2-3.5-1.8l-7-43.4
				c0.9-0.2,1.8-0.5,2.6-0.9c4.1-2.3,5.6-7.5,3.3-11.7c-1.2-2.1-3-3.5-5.1-4.1L41.7,555c2.8,0.5,5.9,0.1,8.6-1.3l36.3,65.5
				c-4,2.5-5.4,7.7-3.1,11.8c2.4,4.3,7.7,5.8,12,3.4c2.8-1.6,4.4-4.4,4.5-7.4l19,0.3c0,0.6,0.2,1.2,0.5,1.7c1,1.9,3.4,2.5,5.2,1.5
				c1.8-1,2.5-3.4,1.5-5.2c-1-1.9-3.4-2.5-5.2-1.5c-1.2,0.7-1.9,1.8-2,3.1l-19-0.3c0-1.4-0.4-2.9-1.1-4.2c-2.3-4.1-7.4-5.7-11.6-3.6
				L51,553.3c3-1.9,5.1-4.8,5.9-8l8.1,1.9c-0.2,0.8,0,1.7,0.4,2.6c1,1.8,3.4,2.5,5.2,1.5c1.9-1,2.5-3.4,1.5-5.2
				c-1-1.9-3.4-2.5-5.2-1.5c-0.9,0.5-1.6,1.4-1.8,2.3l-8-1.9c0.6-2.8,0.3-5.8-1-8.5l63.7-35.4c2.8,4.5,7.8,6.9,12.8,6.6l1.6,20.1
				c-1.3,0.2-2.7,0.6-3.9,1.3c-5,2.8-6.8,9.2-4,14.2c1.4,2.6,3.8,4.3,6.5,5l-6.6,27.2c-0.8-0.2-1.7,0-2.5,0.4c-1.8,1-2.4,3.2-1.4,5
				c1,1.8,3.2,2.4,5,1.4c1.8-1,2.4-3.2,1.4-5c-0.5-0.9-1.3-1.5-2.2-1.7l6.6-27.2c2.4,0.5,5,0.2,7.4-1c2.8-1.5,4.6-4.2,5.2-7.1
				l16.9,3.1c-0.1,0.7,0,1.5,0.4,2.2c0.9,1.7,3.1,2.3,4.8,1.4c1.7-1,2.3-3.1,1.4-4.8c-1-1.7-3.1-2.3-4.8-1.4
				c-0.9,0.5-1.5,1.3-1.7,2.3l-16.9-3.1c0.4-2.3,0-4.6-1.2-6.8c-2-3.6-5.7-5.5-9.5-5.4l-1.5-20.1c1.8-0.2,3.7-0.8,5.4-1.7
				c4.7-2.6,7.3-7.4,7.3-12.4l0-0.8c-0.1-2.1-0.7-4.2-1.8-6.2c-1.6-2.9-4.2-5.1-7-6.3l48.4-137c2.2,0.7,4.5,0.7,6.8,0.1l6.4,22.3
				c-0.6,0.2-1.1,0.4-1.6,0.7c-4.6,2.6-6.3,8.4-3.7,13c1.8,3.2,5.1,5,8.5,4.9l1.3,38.4c-0.5,0-1,0.2-1.5,0.5c-1.8,1-2.4,3.3-1.4,5
				c1,1.8,3.3,2.4,5.1,1.4c1.8-1,2.4-3.3,1.4-5c-0.7-1.2-1.9-1.9-3.2-1.9l-1.3-38.5c1.4-0.1,2.8-0.5,4.1-1.2
				c2.3-1.3,3.9-3.4,4.5-5.7l20.6,5.4c-0.3,1.1-0.1,2.4,0.5,3.5c1.3,2.4,4.4,3.3,6.8,1.9c2.4-1.3,3.3-4.4,1.9-6.8s-4.4-3.3-6.8-1.9
				c-1.2,0.6-2,1.7-2.3,2.9l-20.7-5.4c0.6-2.3,0.3-4.7-0.9-6.9c-2.1-3.9-6.5-5.6-10.6-4.6l-6.4-22.3c0.8-0.2,1.5-0.6,2.2-1
				c3-1.7,5.1-4.4,5.9-7.5l100.6,24.7c-0.6,3-0.4,6.3,0.8,9.3l-8,3.3c0-0.1-0.1-0.2-0.1-0.2c-1.6-2.9-5.3-4-8.2-2.3
				c-2.9,1.6-3.9,5.3-2.3,8.2c1.6,2.9,5.3,4,8.2,2.3c2.6-1.4,3.7-4.5,2.8-7.2l8-3.3c0.2,0.4,0.4,0.8,0.6,1.2
				c1.9,3.4,4.8,5.8,8.1,7.1l-17.7,47.4c-2.3-0.8-5-0.6-7.3,0.7c-4.4,2.5-6,8-3.6,12.5c2.5,4.4,8.1,6,12.5,3.6c4.4-2.5,6-8,3.6-12.5
				c-1-1.9-2.6-3.2-4.5-4l17.7-47.4c4.2,1.4,8.9,1.2,13.1-1.1c1.3-0.7,2.5-1.6,3.5-2.6l25.7,24.8c-3.4,3.8-4.2,9.4-1.6,14
				c3.3,5.9,10.7,8,16.5,4.7c5.9-3.3,8-10.7,4.7-16.5c-3.3-5.9-10.7-8-16.5-4.7c-1,0.5-1.8,1.2-2.5,1.9l-25.7-24.8
				c4.6-5,5.7-12.5,2.2-18.8c-0.8-1.5-1.8-2.8-3-3.9l-0.6-0.5c-3.9-3.4-9.2-4.7-14.3-3.5L301.9,303c0.5-0.2,1-0.4,1.5-0.6
				c4-2.2,5.4-7.3,3.2-11.3c-0.2-0.3-0.4-0.6-0.6-0.9l6.4-5c1.2,1.4,3.3,1.8,5,0.9c2-1.1,2.6-3.5,1.6-5.5c-1.1-1.9-3.5-2.6-5.5-1.6
				c-1.9,1.1-2.6,3.5-1.6,5.5c0.1,0.1,0.2,0.2,0.2,0.4l-6.4,5c-2.5-3-6.9-4-10.4-2c-2.1,1.2-3.5,3.1-4,5.3l-16.2-3.5
				c0.2-1.2,0-2.5-0.6-3.6c-1.5-2.7-4.8-3.6-7.5-2.1c-2.6,1.5-3.6,4.8-2.1,7.5c1.5,2.6,4.8,3.6,7.5,2.1c1.4-0.8,2.3-2,2.6-3.5
				l16.2,3.5c-0.3,1.8-0.1,3.8,0.9,5.6c1.8,3.3,5.5,4.8,9,4.1l11.9,44.1c-1.1,0.3-2.2,0.8-3.3,1.4c-4,2.2-6.6,5.9-7.7,9.9
				l-100.6-24.7c0.7-2.9,0.3-6.1-1.3-8.9c-1-1.8-2.4-3.3-4.1-4.4l10.6-17.6c2.3,1.2,5.2,1.3,7.6,0c3.9-2.1,5.2-7,3.1-10.9
				c-2.1-3.9-7-5.2-10.9-3.1c-3.9,2.1-5.2,7-3.1,10.9c0.6,1.1,1.5,2.1,2.5,2.7l-10.6,17.6c-3.7-2.1-8.4-2.3-12.3-0.1
				c-1.6,0.9-2.8,2-3.9,3.3l-28.9-20.9c1.6-2.4,1.8-5.6,0.3-8.3c-2.2-3.9-7.1-5.3-10.9-3.1c-3.9,2.2-5.3,7-3.1,11
				c2.2,3.9,7.1,5.3,10.9,3.1c0.9-0.5,1.7-1.2,2.4-2l28.9,20.9c-1.9,2.8-2.6,6.4-1.8,9.8l-9.3,2.3c-0.1-0.2-0.2-0.5-0.3-0.7
				c-1.2-2.1-3.8-2.8-5.9-1.7c-2.1,1.2-2.8,3.8-1.7,5.8c1.2,2.1,3.8,2.8,5.8,1.7c1.6-0.9,2.4-2.7,2.1-4.4l9.3-2.3
				c0.3,0.9,0.6,1.8,1.1,2.6c1.5,2.7,3.9,4.7,6.6,5.7l-48.4,137c-2.2-0.8-4.5-1-6.8-0.6l-8.6-47.7c0.4-0.1,0.9-0.3,1.3-0.5
				c2.7-1.5,3.6-4.9,2.2-7.5c-1.5-2.7-4.9-3.6-7.6-2.2c-2.7,1.5-3.6,4.9-2.2,7.5c1.1,2,3.3,3.1,5.4,2.8l8.6,47.7
				c-1.4,0.3-2.8,0.8-4.1,1.5c-2,1.1-3.6,2.7-4.8,4.5l-59.6-38.8c1.5-2.6,1.7-6,0.1-8.8c-1.5-2.7-4.2-4.3-7.1-4.5l1.7-33.8
				c0.9,0,1.8-0.2,2.7-0.7c1.2-0.7,2.1-1.8,2.5-3l12,3.4c-0.2,0.9-0.1,1.9,0.4,2.7c1,1.9,3.4,2.5,5.2,1.5c1.9-1,2.5-3.4,1.5-5.2
				c-1-1.9-3.4-2.5-5.2-1.5c-0.9,0.5-1.5,1.3-1.8,2.1l-12-3.4c0.3-1.3,0.2-2.6-0.5-3.9c-0.4-0.6-0.8-1.2-1.4-1.6l23.5-32.2
				c1,0.7,2.4,0.8,3.5,0.1c1.7-0.9,2.3-3,1.3-4.7s-3-2.3-4.7-1.3c-1.7,0.9-2.3,3-1.3,4.7c0.2,0.4,0.5,0.7,0.8,1L58,389.6
				c-1.6-1.1-3.8-1.3-5.6-0.3c-2.6,1.4-3.5,4.7-2.1,7.3c0.9,1.6,2.5,2.6,4.2,2.8l-1.7,33.8c-1.5,0-3.1,0.3-4.6,1.1
				c-4.3,2.4-5.8,7.8-3.5,12.1c2.4,4.3,7.8,5.8,12.1,3.4c1.2-0.7,2.2-1.6,2.9-2.6l59.6,38.8c-2.6,4.2-2.8,9.7-0.3,14.3c0,0,0,0,0,0
				l-63.6,35.4c0,0,0,0,0,0c-2.5-4.5-7.2-6.9-12-6.8l-1.9-22.5c1.1-0.1,2.2-0.5,3.3-1.1c4.4-2.4,6-8,3.5-12.4c-2.4-4.4-8-6-12.4-3.5
				c-4.4,2.4-6,8-3.5,12.4c1.7,3.1,5,4.8,8.3,4.7l1.9,22.5c-1.8,0.2-3.5,0.7-5.2,1.6c-3.4,1.9-5.6,5.1-6.4,8.6l-72.8-14.3
				c0.5-2.7,0-5.6-1.4-8.3c-1.9-3.4-5.1-5.5-8.6-6.3l4.5-26.1c1.3,0.1,2.6-0.1,3.8-0.8c3.1-1.7,4.2-5.6,2.5-8.7
				c-1.7-3.1-5.7-4.2-8.8-2.5c-3.1,1.7-4.2,5.6-2.5,8.8c0.9,1.6,2.5,2.7,4.2,3.1l-4.5,26.1c-2.6-0.4-5.4,0.1-7.9,1.5
				c-3.1,1.7-5.2,4.5-6,7.7l-36-8.9c0.3-1.6,0.1-3.2-0.8-4.7c-1.9-3.4-6.2-4.6-9.6-2.7c-3.4,1.9-4.6,6.2-2.7,9.6
				c1.9,3.4,6.2,4.6,9.6,2.7c1.7-0.9,2.8-2.4,3.3-4.1l36,8.9c-0.6,2.6-0.3,5.4,0.9,8l-5.7,2.7c0,0,0,0,0,0c-1-1.9-3.4-2.5-5.2-1.5
				c-1.9,1-2.5,3.4-1.5,5.2s3.4,2.5,5.2,1.5c1.7-1,2.4-3,1.7-4.8l5.7-2.7c0.1,0.2,0.2,0.3,0.2,0.5c2,3.6,5.6,5.9,9.4,6.4l-6.6,63.6
				c-2-0.1-4.1,0.3-6.1,1.3c-1.3,0.7-2.4,1.7-3.3,2.8l-29.4-21.5c1.6-2.4,1.8-5.6,0.3-8.2c-2.1-3.8-7-5.2-10.8-3.1
				c-3.8,2.1-5.2,7-3.1,10.8c2.1,3.8,7,5.2,10.8,3.1c0.9-0.5,1.7-1.2,2.3-1.9l29.4,21.5c-2.3,3.3-2.6,7.8-0.5,11.5
				c0.6,1,1.3,2,2.1,2.7l-26.1,30.3c-2.9-2.3-6.9-2.7-10.3-0.8c-1.7,0.9-2.9,2.3-3.7,3.8l-33.2-15.7c0.6-1.6,0.6-3.5-0.3-5.2
				c-1.6-2.9-5.3-4-8.2-2.3c-2.9,1.6-3.9,5.3-2.3,8.2c0.6,1,1.4,1.8,2.3,2.3l-31.9,66c-2.6-1.1-5.6-1-8.2,0.4
				c-4.5,2.5-6.1,8.2-3.6,12.7C-193.7,722.1-188,723.8-183.5,721.3z"/>
			
				<linearGradient id="SVGID_27_" gradientUnits="userSpaceOnUse" x1="380.9145" y1="328.0261" x2="524.8374" y2="328.0261" gradientTransform="matrix(1 0 0 -1 0 658)">
				<stop  offset="0.1718" style="stop-color:#437FEC"/>
				<stop  offset="0.468" style="stop-color:#336CD5"/>
				<stop  offset="1" style="stop-color:#184EAE"/>
			</linearGradient>
			<path class="st31" d="M385.3,339.3c1.3-0.1,2.6,0.3,3.5,1.1l6.5-6.4c-2.1-2.1-3.5-5-3.8-8.3c-0.5-5.4,2.3-10.3,6.7-12.9l0.8-0.4
				c1.5-0.7,3.1-1.2,4.8-1.4c7.5-0.6,14,4.9,14.7,12.3c0.1,0.6,0.1,1.2,0,1.8l86.7,3.4c0.4-4.7,4.1-8.6,8.9-9
				c5.4-0.5,10.2,3.5,10.6,8.9c0.5,5.4-3.5,10.2-8.9,10.6c-5.4,0.5-10.2-3.5-10.7-9c0-0.3,0-0.5,0-0.8l-86.7-3.4
				c-0.7,6.3-5.8,11.4-12.3,12c-3.9,0.3-7.6-1-10.3-3.5l-6.5,6.4c0.6,0.7,1,1.6,1.1,2.6c0.2,2.6-1.7,5-4.4,5.2
				c-2.6,0.2-5-1.7-5.2-4.4C380.7,341.8,382.7,339.5,385.3,339.3z"/>
			
				<linearGradient id="SVGID_28_" gradientUnits="userSpaceOnUse" x1="185.2536" y1="151.8614" x2="245.0678" y2="151.8614" gradientTransform="matrix(1 0 0 -1 0 658)">
				<stop  offset="0.1718" style="stop-color:#437FEC"/>
				<stop  offset="0.468" style="stop-color:#336CD5"/>
				<stop  offset="1" style="stop-color:#184EAE"/>
			</linearGradient>
			<path class="st32" d="M242.6,518.5c-0.2,0.3-0.5,0.5-0.7,0.8c-2.5,2.4-5.8,3.4-9,3l-1.9,10c1.4,0.4,2.5,1.7,2.6,3.2
				c0.2,2-1.4,3.8-3.4,4s-3.8-1.4-3.9-3.4c-0.2-2,1.4-3.8,3.4-4c0.2,0,0.4,0,0.6,0l1.9-10c-2.1-0.4-4-1.4-5.6-3
				c-1.2-1.3-2.1-2.7-2.6-4.3l-28.3,8.2c0.4,1.7-0.1,3.5-1.4,4.8c-2,2-5.3,2-7.3-0.1c-2-2-2-5.3,0.1-7.3c2.1-2,5.3-2,7.4,0.1
				c0.5,0.5,0.9,1.2,1.1,1.9l28.3-8.2c-0.9-3.6,0.1-7.6,2.9-10.5c1-1,2.2-1.8,3.4-2.3l-5.3-13.9c-2.7,0.9-5.7,0.2-7.9-1.9
				c-3-3-2.9-7.9,0.1-10.8c3-3,7.9-2.9,10.8,0.1c3,3,2.9,7.9-0.1,10.8c-0.7,0.7-1.5,1.2-2.3,1.5l5.3,13.9c3.9-1.3,8.3-0.4,11.3,2.7
				c3.8,3.9,4.1,9.8,1,14.1L242.6,518.5z"/>
			
				<linearGradient id="SVGID_29_" gradientUnits="userSpaceOnUse" x1="180.876" y1="449.6601" x2="238.1916" y2="449.6601" gradientTransform="matrix(1 0 0 -1 0 658)">
				<stop  offset="0.1718" style="stop-color:#437FEC"/>
				<stop  offset="0.468" style="stop-color:#336CD5"/>
				<stop  offset="1" style="stop-color:#184EAE"/>
			</linearGradient>
			<path class="st33" d="M236.3,195.6c-1.6,1.5-3.7,2.1-5.7,1.6l-6.1,21.4c0.9,0.3,1.8,0.9,2.6,1.6c1.3,1.3,1.9,3,1.9,4.7l-0.1,0.9
				c-0.2,1.5-0.8,2.9-2,4.1c-1.9,1.9-4.7,2.4-7,1.5l-0.8-0.4c-0.6-0.3-1.3-0.7-1.8-1.3c-2-2-2.4-4.9-1.5-7.3l-22.3-10.6
				c-0.3,0.6-0.7,1.1-1.1,1.6c-2.7,2.6-7,2.6-9.6-0.1c-2.6-2.7-2.6-7,0.1-9.6c2.7-2.6,7-2.6,9.6,0.1c1.9,2,2.4,4.9,1.5,7.3
				l22.3,10.6c0.3-0.6,0.7-1.1,1.1-1.6c1.7-1.7,4.1-2.3,6.2-1.8l6.1-21.4c-0.9-0.3-1.6-0.8-2.3-1.5c-2.4-2.5-2.4-6.4,0.1-8.9
				c2.5-2.4,6.4-2.4,8.8,0.1C238.8,189.2,238.8,193.2,236.3,195.6z"/>
			
				<linearGradient id="SVGID_30_" gradientUnits="userSpaceOnUse" x1="25.4216" y1="360.8712" x2="128.6838" y2="360.8712" gradientTransform="matrix(1 0 0 -1 0 658)">
				<stop  offset="0.1718" style="stop-color:#437FEC"/>
				<stop  offset="0.468" style="stop-color:#336CD5"/>
				<stop  offset="1" style="stop-color:#184EAE"/>
			</linearGradient>
			<path class="st34" d="M127.4,347c-1.7,1.6-4.4,1.6-6.1,0c-1.7-1.7-1.6-4.4,0.1-6.1c0.1-0.1,0.2-0.2,0.3-0.3l-26.3-43.2
				c-2.3,1.1-5.1,0.7-6.9-1.2c-0.8-0.8-1.3-1.8-1.5-2.8l-36.9,5.4c0.1,1.7-0.5,3.4-1.8,4.6c-2.4,2.3-6.2,2.3-8.5-0.1
				c-2.3-2.4-2.3-6.2,0.1-8.5c0.7-0.7,1.5-1.1,2.3-1.4l-7.5-31.6c-2.5,0.4-5.1-0.4-7-2.3c-2.1-2.1-2.7-5.2-1.9-7.9l0.4-1
				c0.4-0.9,0.9-1.7,1.7-2.4c1.4-1.4,3.2-2.1,5-2.2h1.1c1.9,0.1,3.7,0.9,5.2,2.3c3.1,3.2,3,8.2-0.1,11.3c-0.9,0.9-2.1,1.5-3.2,1.9
				l7.5,31.6c1.8-0.3,3.8,0.3,5.2,1.7c0.8,0.8,1.3,1.8,1.5,2.8l36.9-5.4c-0.1-1.7,0.5-3.4,1.8-4.6c2.4-2.3,6.2-2.3,8.5,0.1
				c2.3,2.4,2.3,6.2-0.1,8.5c-0.2,0.2-0.4,0.4-0.6,0.5l26.3,43.2c1.6-0.7,3.5-0.4,4.8,0.9C129.1,342.6,129.1,345.3,127.4,347z"/>
			
				<linearGradient id="SVGID_31_" gradientUnits="userSpaceOnUse" x1="315.0796" y1="118.0449" x2="369.59" y2="118.0449" gradientTransform="matrix(1 0 0 -1 0 658)">
				<stop  offset="0.1718" style="stop-color:#437FEC"/>
				<stop  offset="0.468" style="stop-color:#336CD5"/>
				<stop  offset="1" style="stop-color:#184EAE"/>
			</linearGradient>
			<path class="st35" d="M323.1,512.7c2.9,0,5.3,1.6,6.7,3.9l19-10.1c-0.7-1.5-1.1-3.1-1.1-4.9c0-2.9,1.2-5.5,3-7.4l0.6-0.5
				c2-1.8,4.6-2.9,7.5-2.9c5,0,9.2,3.5,10.5,8.1l0.2,0.8c0.1,0.7,0.2,1.4,0.2,2.2c0,4-2.3,7.5-5.5,9.4l-0.7,0.4
				c-1.5,0.7-3.1,1.1-4.9,1.1c-4,0-7.5-2.2-9.4-5.5l-19,10.1c0.5,1,0.8,2.2,0.8,3.4c0,3.3-2.1,6.1-5,7.3l15.9,45.6
				c0.7-0.2,1.5-0.4,2.3-0.4c4.4,0,7.9,3.6,7.9,8c0,4.4-3.6,7.9-8,7.8s-7.9-3.6-7.9-8c0-3.3,2.1-6.1,5-7.3l-15.9-45.6
				c-0.7,0.2-1.5,0.4-2.3,0.3c-4.4,0-7.9-3.6-7.9-8C315.1,516.2,318.7,512.7,323.1,512.7z"/>
			
				<linearGradient id="SVGID_32_" gradientUnits="userSpaceOnUse" x1="368.21" y1="407.3463" x2="405.2612" y2="407.3463" gradientTransform="matrix(1 0 0 -1 0 658)">
				<stop  offset="0.1718" style="stop-color:#437FEC"/>
				<stop  offset="0.468" style="stop-color:#336CD5"/>
				<stop  offset="1" style="stop-color:#184EAE"/>
			</linearGradient>
			<path class="st36" d="M404.7,235.4c-0.5,1.3-1.2,2.4-2.2,3.5c-2.9,2.8-7,3.4-10.4,1.7l-13.5,25c0.5,0.3,0.9,0.6,1.3,1
				c2.6,2.7,2.6,7-0.1,9.7c-2.7,2.6-7,2.6-9.7-0.1c-1.3-1.3-2-3-2-4.8l0.1-0.8c0.2-1.5,0.8-3,2-4.1c2.1-2,5.1-2.5,7.7-1.3l13.5-25
				c-0.7-0.4-1.3-0.9-1.9-1.4c-3.6-3.6-3.5-9.4,0.1-13c3.6-3.6,9.4-3.5,13,0.1c2.4,2.4,3.1,5.8,2.3,8.8L404.7,235.4z"/>
			
				<linearGradient id="SVGID_33_" gradientUnits="userSpaceOnUse" x1="187.093" y1="56.1188" x2="236.6752" y2="56.1188" gradientTransform="matrix(1 0 0 -1 0 658)">
				<stop  offset="0.1718" style="stop-color:#437FEC"/>
				<stop  offset="0.468" style="stop-color:#336CD5"/>
				<stop  offset="1" style="stop-color:#184EAE"/>
			</linearGradient>
			<path class="st37" d="M230.1,609.4c-3.2,0.3-6.1-1.6-7.2-4.4l-12.2,3.8c0.2,0.7,0.3,1.4,0.4,2.1c0.5,6.6-4.4,12.3-11,12.8
				c-2.3,0.2-4.5-0.3-6.4-1.3l-1-0.6c-3-2-5.1-5.3-5.4-9.1c-0.5-6.4,4.1-12,10.4-12.8l-0.9-11.4c-2.1-0.1-3.8-1.8-4-3.9
				c-0.2-2.3,1.6-4.4,3.9-4.6c2.4-0.2,4.4,1.6,4.6,4c0.2,2.2-1.3,4-3.4,4.5l0.9,11.4c5.2-0.1,9.8,3.1,11.6,7.8l12.2-3.8
				c-0.1-0.3-0.1-0.7-0.2-1c-0.3-4,2.6-7.4,6.6-7.7c3.9-0.3,7.4,2.7,7.7,6.6C237,605.7,234,609.1,230.1,609.4z"/>
		</g>
		<g>
			
				<linearGradient id="SVGID_34_" gradientUnits="userSpaceOnUse" x1="502.51" y1="328.42" x2="527.63" y2="328.42" gradientTransform="matrix(1 0 0 -1 0 658)">
				<stop  offset="0.1718" style="stop-color:#437FEC"/>
				<stop  offset="0.468" style="stop-color:#336CD5"/>
				<stop  offset="1" style="stop-color:#184EAE"/>
			</linearGradient>
			<circle class="st38" cx="515.1" cy="329.6" r="12.6"/>
			
				<linearGradient id="SVGID_35_" gradientUnits="userSpaceOnUse" x1="383.71" y1="425.71" x2="408.37" y2="425.71" gradientTransform="matrix(1 0 0 -1 0 658)">
				<stop  offset="0.1718" style="stop-color:#437FEC"/>
				<stop  offset="0.468" style="stop-color:#336CD5"/>
				<stop  offset="1" style="stop-color:#184EAE"/>
			</linearGradient>
			<circle class="st39" cx="396" cy="232.3" r="12.3"/>
			
				<linearGradient id="SVGID_36_" gradientUnits="userSpaceOnUse" x1="213.36" y1="432.94" x2="231.12" y2="432.94" gradientTransform="matrix(1 0 0 -1 0 658)">
				<stop  offset="0.1718" style="stop-color:#437FEC"/>
				<stop  offset="0.468" style="stop-color:#336CD5"/>
				<stop  offset="1" style="stop-color:#184EAE"/>
			</linearGradient>
			<circle class="st40" cx="222.2" cy="225.1" r="8.9"/>
			
				<linearGradient id="SVGID_37_" gradientUnits="userSpaceOnUse" x1="200.04" y1="361.99" x2="220.84" y2="361.99" gradientTransform="matrix(1 0 0 -1 0 658)">
				<stop  offset="0.1718" style="stop-color:#437FEC"/>
				<stop  offset="0.468" style="stop-color:#336CD5"/>
				<stop  offset="1" style="stop-color:#184EAE"/>
			</linearGradient>
			<circle class="st41" cx="210.4" cy="296" r="10.4"/>
			
				<linearGradient id="SVGID_38_" gradientUnits="userSpaceOnUse" x1="36.074" y1="358.8729" x2="52.026" y2="358.8729" gradientTransform="matrix(1 0 0 -1 0 658)">
				<stop  offset="0.1718" style="stop-color:#437FEC"/>
				<stop  offset="0.468" style="stop-color:#336CD5"/>
				<stop  offset="1" style="stop-color:#184EAE"/>
			</linearGradient>
			<path class="st42" d="M36.8,302.4c-1.8-4,0-8.7,4-10.5s8.7,0,10.5,4s0,8.7-4,10.5C43.3,308.2,38.6,306.4,36.8,302.4z"/>
			
				<linearGradient id="SVGID_39_" gradientUnits="userSpaceOnUse" x1="47.71" y1="264.02" x2="62.33" y2="264.02" gradientTransform="matrix(1 0 0 -1 0 658)">
				<stop  offset="0.1718" style="stop-color:#437FEC"/>
				<stop  offset="0.468" style="stop-color:#336CD5"/>
				<stop  offset="1" style="stop-color:#184EAE"/>
			</linearGradient>
			<circle class="st43" cx="55" cy="394" r="7.3"/>
			
				<linearGradient id="SVGID_40_" gradientUnits="userSpaceOnUse" x1="288.78" y1="362.87" x2="309.92" y2="362.87" gradientTransform="matrix(1 0 0 -1 0 658)">
				<stop  offset="0.1718" style="stop-color:#437FEC"/>
				<stop  offset="0.468" style="stop-color:#336CD5"/>
				<stop  offset="1" style="stop-color:#184EAE"/>
			</linearGradient>
			<circle class="st44" cx="299.4" cy="295.1" r="10.6"/>
			
				<linearGradient id="SVGID_41_" gradientUnits="userSpaceOnUse" x1="279.9345" y1="224.0771" x2="302.2555" y2="224.0771" gradientTransform="matrix(1 0 0 -1 0 658)">
				<stop  offset="0.1718" style="stop-color:#437FEC"/>
				<stop  offset="0.468" style="stop-color:#336CD5"/>
				<stop  offset="1" style="stop-color:#184EAE"/>
			</linearGradient>
			<path class="st45" d="M280.9,438.5c-2.5-5.6,0-12.2,5.6-14.8s12.2,0,14.8,5.6s0,12.2-5.6,14.8C290,446.6,283.4,444.1,280.9,438.5
				z"/>
			
				<linearGradient id="SVGID_42_" gradientUnits="userSpaceOnUse" x1="312.493" y1="137.3808" x2="333.527" y2="137.3808" gradientTransform="matrix(1 0 0 -1 0 658)">
				<stop  offset="0.1718" style="stop-color:#437FEC"/>
				<stop  offset="0.468" style="stop-color:#336CD5"/>
				<stop  offset="1" style="stop-color:#184EAE"/>
			</linearGradient>
			<path class="st46" d="M313.4,524.9c-2.4-5.3,0-11.5,5.3-13.9c5.3-2.4,11.5,0,13.9,5.3c2.4,5.3,0,11.5-5.3,13.9
				C322,532.6,315.8,530.2,313.4,524.9z"/>
			
				<linearGradient id="SVGID_43_" gradientUnits="userSpaceOnUse" x1="220.48" y1="146.55" x2="247.9" y2="146.55" gradientTransform="matrix(1 0 0 -1 0 658)">
				<stop  offset="0.1718" style="stop-color:#437FEC"/>
				<stop  offset="0.468" style="stop-color:#336CD5"/>
				<stop  offset="1" style="stop-color:#184EAE"/>
			</linearGradient>
			<circle class="st47" cx="234.2" cy="511.5" r="13.7"/>
			
				<linearGradient id="SVGID_44_" gradientUnits="userSpaceOnUse" x1="183.45" y1="46.04" x2="214.67" y2="46.04" gradientTransform="matrix(1 0 0 -1 0 658)">
				<stop  offset="0.1718" style="stop-color:#437FEC"/>
				<stop  offset="0.468" style="stop-color:#336CD5"/>
				<stop  offset="1" style="stop-color:#184EAE"/>
			</linearGradient>
			<circle class="st48" cx="199.1" cy="612" r="15.6"/>
			
				<linearGradient id="SVGID_45_" gradientUnits="userSpaceOnUse" x1="114.18" y1="164.54" x2="149.24" y2="164.54" gradientTransform="matrix(1 0 0 -1 0 658)">
				<stop  offset="0.1718" style="stop-color:#437FEC"/>
				<stop  offset="0.468" style="stop-color:#336CD5"/>
				<stop  offset="1" style="stop-color:#184EAE"/>
			</linearGradient>
			<circle class="st49" cx="131.7" cy="493.5" r="17.5"/>
			
				<linearGradient id="SVGID_46_" gradientUnits="userSpaceOnUse" x1="-70.1399" y1="135.3579" x2="-38.1501" y2="135.3579" gradientTransform="matrix(1 0 0 -1 0 658)">
				<stop  offset="0.1718" style="stop-color:#437FEC"/>
				<stop  offset="0.468" style="stop-color:#336CD5"/>
				<stop  offset="1" style="stop-color:#184EAE"/>
			</linearGradient>
			<path class="st50" d="M-68.7,529.2c-3.6-8,0-17.5,8-21.1c8.1-3.6,17.5,0,21.1,8c3.6,8,0,17.5-8,21.1
				C-55.6,540.8-65.1,537.3-68.7,529.2z"/>
			
				<linearGradient id="SVGID_47_" gradientUnits="userSpaceOnUse" x1="15.932" y1="42.1108" x2="37.688" y2="42.1108" gradientTransform="matrix(1 0 0 -1 0 658)">
				<stop  offset="0.1718" style="stop-color:#437FEC"/>
				<stop  offset="0.468" style="stop-color:#336CD5"/>
				<stop  offset="1" style="stop-color:#184EAE"/>
			</linearGradient>
			<path class="st51" d="M16.9,620.3c-2.5-5.5,0-11.9,5.5-14.4s11.9,0,14.4,5.5c2.5,5.5,0,11.9-5.5,14.4S19.4,625.8,16.9,620.3z"/>
			
				<linearGradient id="SVGID_48_" gradientUnits="userSpaceOnUse" x1="-52.7183" y1="-22.4558" x2="-35.0945" y2="-22.4558" gradientTransform="matrix(1 0 0 -1 0 658)">
				<stop  offset="0.1718" style="stop-color:#437FEC"/>
				<stop  offset="0.468" style="stop-color:#336CD5"/>
				<stop  offset="1" style="stop-color:#184EAE"/>
			</linearGradient>
			<path class="st52" d="M-51.9,684.1c-2-4.4,0-9.7,4.4-11.7c4.4-2,9.7,0,11.7,4.4s0,9.7-4.4,11.7
				C-44.7,690.5-49.9,688.5-51.9,684.1z"/>
			
				<linearGradient id="SVGID_49_" gradientUnits="userSpaceOnUse" x1="-158.4473" y1="24.7771" x2="-140.5927" y2="24.7771" gradientTransform="matrix(1 0 0 -1 0 658)">
				<stop  offset="0.1718" style="stop-color:#437FEC"/>
				<stop  offset="0.468" style="stop-color:#336CD5"/>
				<stop  offset="1" style="stop-color:#184EAE"/>
			</linearGradient>
			<path class="st53" d="M-157.7,636.9c-2-4.5,0-9.8,4.5-11.8c4.5-2,9.8,0,11.8,4.5s0,9.8-4.5,11.8
				C-150.4,643.4-155.6,641.4-157.7,636.9z"/>
			
				<linearGradient id="SVGID_50_" gradientUnits="userSpaceOnUse" x1="229.46" y1="274.21" x2="243.28" y2="274.21" gradientTransform="matrix(1 0 0 -1 0 658)">
				<stop  offset="0.1718" style="stop-color:#437FEC"/>
				<stop  offset="0.468" style="stop-color:#336CD5"/>
				<stop  offset="1" style="stop-color:#184EAE"/>
			</linearGradient>
			<circle class="st54" cx="236.4" cy="383.8" r="6.9"/>
		</g>
	</g>
</g>
</svg>
