<svg width="35" height="35" viewBox="0 0 35 35" fill="none" xmlns="http://www.w3.org/2000/svg">
<path d="M32.708 12.4103C31.561 12.4103 30.599 13.3194 30.599 14.483V17.5012C30.599 24.6648 24.679 30.483 17.39 30.483C10.101 30.483 4.181 24.6648 4.181 17.5012C4.181 10.3739 10.101 4.55574 17.353 4.55574H20.165C21.312 4.55574 22.274 3.64665 22.274 2.48301C22.274 1.31938 21.349 0.410285 20.165 0.410285H17.39C7.77 0.373921 0 8.04665 0 17.5012C0 26.9194 7.807 34.5921 17.39 34.5921C26.973 34.5921 34.78 26.9194 34.78 17.5012V14.483C34.78 13.3557 33.855 12.4103 32.708 12.4103Z" fill="#4252AF"/>
<path d="M13.7243 12.4095C13.1323 11.7185 12.0963 11.5731 11.2823 12.0458C10.3943 12.5913 10.0983 13.7549 10.6533 14.6276L15.2783 22.4822C15.4633 22.7731 15.7223 23.0276 16.0183 23.2458C17.1653 24.0095 18.7193 23.7185 19.5333 22.5913L19.6073 22.4822L32.9273 2.95491C33.4823 2.15491 33.3343 1.02763 32.5203 0.409453C31.7063 -0.245093 30.4853 -0.0996381 29.8563 0.736726L17.3503 16.4458L13.7243 12.4095Z" fill="#4252AF"/>
</svg>
