<svg width="49" height="48" viewBox="0 0 49 48" fill="none" xmlns="http://www.w3.org/2000/svg">
<circle cx="24.5" cy="24" r="24" transform="rotate(-90 24.5 24)" fill="#17150D"/>
<path d="M36.25 28C36.25 28.1989 36.171 28.3897 36.0303 28.5303C35.8897 28.671 35.6989 28.75 35.5 28.75H13.5C13.3011 28.75 13.1103 28.671 12.9697 28.5303C12.829 28.3897 12.75 28.1989 12.75 28C12.75 27.8011 12.829 27.6103 12.9697 27.4697C13.1103 27.329 13.3011 27.25 13.5 27.25H35.5C35.6989 27.25 35.8897 27.329 36.0303 27.4697C36.171 27.6103 36.25 27.8011 36.25 28ZM13.5 20.75H35.5C35.6989 20.75 35.8897 20.671 36.0303 20.5303C36.171 20.3897 36.25 20.1989 36.25 20C36.25 19.8011 36.171 19.6103 36.0303 19.4697C35.8897 19.329 35.6989 19.25 35.5 19.25H13.5C13.3011 19.25 13.1103 19.329 12.9697 19.4697C12.829 19.6103 12.75 19.8011 12.75 20C12.75 20.1989 12.829 20.3897 12.9697 20.5303C13.1103 20.671 13.3011 20.75 13.5 20.75Z" fill="white"/>
</svg>
