<svg width="39" height="43" viewBox="0 0 39 43" fill="none" xmlns="http://www.w3.org/2000/svg">
<path fill-rule="evenodd" clip-rule="evenodd" d="M13.0489 40.1269C9.32492 39.0752 5.42609 38.5447 1.64397 38.0587C0.829355 37.9568 0.0730442 38.5254 0.0148577 39.3264C-0.101515 40.1281 0.480691 40.8612 1.23712 40.9631C4.90286 41.4309 8.68465 41.9316 12.234 42.944C12.9904 43.1636 13.8054 42.7116 14.0381 41.9339C14.2709 41.1569 13.8053 40.3471 13.0489 40.1269Z" fill="#4252AF"/>
<path fill-rule="evenodd" clip-rule="evenodd" d="M24.3366 25.2177C18.3434 19.0629 11.5937 13.7003 5.71688 7.38028C5.19321 6.79003 4.26222 6.75841 3.68036 7.30942C3.09849 7.86103 3.04053 8.78856 3.6224 9.37881C9.49923 15.717 16.2489 21.0971 22.2421 27.2701C22.8239 27.8463 23.7547 27.8545 24.3366 27.2877C24.8602 26.7215 24.9184 25.7939 24.3366 25.2177Z" fill="#4252AF"/>
<path fill-rule="evenodd" clip-rule="evenodd" d="M35.5673 1.54341C35.7419 5.06616 35.9161 8.58891 36.0907 12.1123C36.0907 12.9192 36.7893 13.5422 37.6039 13.503C38.4185 13.4631 39 12.7763 39 11.9688C38.8254 8.44018 38.6512 4.91216 38.4767 1.38413C38.4185 0.577224 37.7201 -0.0417174 36.9055 0.00219986C36.1491 0.0461172 35.5092 0.737085 35.5673 1.54341Z" fill="#4252AF"/>
</svg>
