<svg width="32" height="32" viewBox="0 0 32 32" fill="none" xmlns="http://www.w3.org/2000/svg">
<path d="M15.9999 21.2803C15.8026 21.2803 15.6141 21.2011 15.4764 21.0613C15.3377 20.9204 15.2608 20.7318 15.2629 20.5346V19.3468C15.7571 19.3554 16.2427 19.3554 16.7369 19.3468V20.5346C16.7391 20.7319 16.6621 20.9204 16.5234 21.0613C16.3857 21.2011 16.1971 21.2803 15.9999 21.2803ZM27.9998 11.4566V14.7168C20.4683 18.5903 11.5315 18.5903 4 14.7168V11.4566C4 10.737 4.28503 10.0466 4.79444 9.5372C5.30381 9.02781 5.9942 8.74276 6.71386 8.74276H11.6734V6.58381C11.6766 5.1586 12.832 4.00325 14.2572 4H17.7425C19.1677 4.00325 20.3231 5.1586 20.3263 6.58381V8.74276H25.2858C26.0055 8.74276 26.6959 9.02779 27.2053 9.5372C27.7146 10.0466 27.9998 10.737 27.9998 11.4566ZM18.5924 8.74278V6.58384C18.5914 6.11455 18.212 5.73521 17.7427 5.73413H14.2574C13.7881 5.73521 13.4087 6.11455 13.4076 6.58384V8.74278H18.5924ZM18.4711 20.5347C18.4624 21.8927 17.358 22.9895 16 22.9895C14.6409 22.9895 13.5376 21.8927 13.5289 20.5347V19.2428C10.2244 18.9502 6.99792 18.0723 4.00003 16.6503V25.2861C4.00003 26.0058 4.28506 26.6962 4.79446 27.2056C5.30384 27.7149 5.99423 28 6.71389 28H25.2861C26.0058 28 26.6962 27.715 27.2056 27.2056C27.7149 26.6962 28 26.0058 28 25.2861V16.6503C25.0021 18.0723 21.7756 18.9502 18.4711 19.2428L18.4711 20.5347Z" fill="black"/>
</svg>
