<svg width="64" height="64" viewBox="0 0 64 64" fill="none" xmlns="http://www.w3.org/2000/svg">
<rect x="1.5" y="1.5" width="61" height="61" rx="14.5" fill="white" stroke="black" stroke-width="3"/>
<path d="M54.125 27.9969L47.375 20.4969C47.2332 20.3393 47.0597 20.2135 46.8658 20.1278C46.6718 20.0422 46.462 19.9986 46.25 20H33.5V14C33.5 13.6022 33.342 13.2206 33.0607 12.9393C32.7794 12.658 32.3978 12.5 32 12.5C31.6022 12.5 31.2206 12.658 30.9393 12.9393C30.658 13.2206 30.5 13.6022 30.5 14V20H15.5C14.7044 20 13.9413 20.3161 13.3787 20.8787C12.8161 21.4413 12.5 22.2044 12.5 23V35C12.5 35.7956 12.8161 36.5587 13.3787 37.1213C13.9413 37.6839 14.7044 38 15.5 38H30.5V50C30.5 50.3978 30.658 50.7794 30.9393 51.0607C31.2206 51.342 31.6022 51.5 32 51.5C32.3978 51.5 32.7794 51.342 33.0607 51.0607C33.342 50.7794 33.5 50.3978 33.5 50V38H46.25C46.4604 38.0001 46.6685 37.9558 46.8607 37.8702C47.0529 37.7846 47.2249 37.6596 47.3656 37.5031L54.1156 30.0031C54.3646 29.7289 54.5034 29.3722 54.5051 29.0018C54.5068 28.6314 54.3714 28.2734 54.125 27.9969ZM45.5825 35H15.5V23H45.5825L50.9825 29L45.5825 35Z" fill="#050B17"/>
</svg>
