<svg width="64" height="64" viewBox="0 0 64 64" fill="none" xmlns="http://www.w3.org/2000/svg">
<rect x="1.5" y="1.5" width="61" height="61" rx="14.5" fill="white" stroke="black" stroke-width="3"/>
<path d="M43.25 24.4999C42.4714 24.4988 41.7025 24.6724 41 25.008V19.2499C40.9998 18.3401 40.7631 17.4459 40.3132 16.6552C39.8634 15.8644 39.2157 15.2041 38.4338 14.739C37.6518 14.2739 36.7624 14.02 35.8528 14.0022C34.9432 13.9844 34.0446 14.2033 33.245 14.6374C32.8601 13.4478 32.0633 12.4347 30.998 11.7803C29.9327 11.1259 28.6688 10.8731 27.4337 11.0675C26.1987 11.2619 25.0735 11.8907 24.2608 12.8407C23.448 13.7907 23.0009 14.9996 23 16.2499V17.508C22.2975 17.1724 21.5286 16.9988 20.75 16.9999C19.3576 16.9999 18.0223 17.553 17.0377 18.5376C16.0531 19.5221 15.5 20.8575 15.5 22.2499V36.4999C15.5 40.8759 17.2384 45.0728 20.3327 48.1671C23.4271 51.2615 27.6239 52.9999 32 52.9999C36.3761 52.9999 40.5729 51.2615 43.6673 48.1671C46.7616 45.0728 48.5 40.8759 48.5 36.4999V29.7499C48.5 28.3575 47.9469 27.0221 46.9623 26.0376C45.9777 25.053 44.6424 24.4999 43.25 24.4999ZM45.5 36.4999C45.5 40.0803 44.0777 43.5141 41.5459 46.0458C39.0142 48.5775 35.5804 49.9999 32 49.9999C28.4196 49.9999 24.9858 48.5775 22.4541 46.0458C19.9223 43.5141 18.5 40.0803 18.5 36.4999V22.2499C18.5 21.6531 18.7371 21.0808 19.159 20.6589C19.581 20.2369 20.1533 19.9999 20.75 19.9999C21.3467 19.9999 21.919 20.2369 22.341 20.6589C22.7629 21.0808 23 21.6531 23 22.2499V30.4999C23 30.8977 23.158 31.2792 23.4393 31.5605C23.7206 31.8418 24.1022 31.9999 24.5 31.9999C24.8978 31.9999 25.2794 31.8418 25.5607 31.5605C25.842 31.2792 26 30.8977 26 30.4999V16.2499C26 15.6531 26.2371 15.0808 26.659 14.6589C27.081 14.2369 27.6533 13.9999 28.25 13.9999C28.8467 13.9999 29.419 14.2369 29.841 14.6589C30.2629 15.0808 30.5 15.6531 30.5 16.2499V28.9999C30.5 29.3977 30.658 29.7792 30.9393 30.0605C31.2206 30.3418 31.6022 30.4999 32 30.4999C32.3978 30.4999 32.7794 30.3418 33.0607 30.0605C33.342 29.7792 33.5 29.3977 33.5 28.9999V19.2499C33.5 18.6531 33.7371 18.0808 34.159 17.6589C34.581 17.2369 35.1533 16.9999 35.75 16.9999C36.3467 16.9999 36.919 17.2369 37.341 17.6589C37.7629 18.0808 38 18.6531 38 19.2499V32.1255C35.9041 32.4828 34.002 33.5693 32.6296 35.1932C31.2572 36.8171 30.5029 38.8737 30.5 40.9999C30.5 41.3977 30.658 41.7792 30.9393 42.0605C31.2206 42.3418 31.6022 42.4999 32 42.4999C32.3978 42.4999 32.7794 42.3418 33.0607 42.0605C33.342 41.7792 33.5 41.3977 33.5 40.9999C33.5 39.4086 34.1321 37.8824 35.2574 36.7572C36.3826 35.632 37.9087 34.9999 39.5 34.9999C39.8978 34.9999 40.2794 34.8418 40.5607 34.5605C40.842 34.2792 41 33.8977 41 33.4999V29.7499C41 29.1531 41.2371 28.5808 41.659 28.1589C42.081 27.7369 42.6533 27.4999 43.25 27.4999C43.8467 27.4999 44.419 27.7369 44.841 28.1589C45.2629 28.5808 45.5 29.1531 45.5 29.7499V36.4999Z" fill="#050B17"/>
</svg>
