<svg width="64" height="64" viewBox="0 0 64 64" fill="none" xmlns="http://www.w3.org/2000/svg">
<rect x="1.5" y="1.5" width="61" height="61" rx="14.5" fill="white" stroke="black" stroke-width="3"/>
<path d="M50.0008 31.9999C50.0008 32.3977 49.8428 32.7792 49.5615 33.0605C49.2802 33.3418 48.8987 33.4999 48.5008 33.4999H32.0008C31.603 33.4999 31.2215 33.3418 30.9402 33.0605C30.6589 32.7792 30.5008 32.3977 30.5008 31.9999C30.5008 31.602 30.6589 31.2205 30.9402 30.9392C31.2215 30.6579 31.603 30.4999 32.0008 30.4999H48.5008C48.8987 30.4999 49.2802 30.6579 49.5615 30.9392C49.8428 31.2205 50.0008 31.602 50.0008 31.9999ZM32.0008 21.4999H48.5008C48.8987 21.4999 49.2802 21.3418 49.5615 21.0605C49.8428 20.7792 50.0008 20.3977 50.0008 19.9999C50.0008 19.602 49.8428 19.2205 49.5615 18.9392C49.2802 18.6579 48.8987 18.4999 48.5008 18.4999H32.0008C31.603 18.4999 31.2215 18.6579 30.9402 18.9392C30.6589 19.2205 30.5008 19.602 30.5008 19.9999C30.5008 20.3977 30.6589 20.7792 30.9402 21.0605C31.2215 21.3418 31.603 21.4999 32.0008 21.4999ZM48.5008 42.4999H32.0008C31.603 42.4999 31.2215 42.6579 30.9402 42.9392C30.6589 43.2205 30.5008 43.602 30.5008 43.9999C30.5008 44.3977 30.6589 44.7792 30.9402 45.0605C31.2215 45.3418 31.603 45.4999 32.0008 45.4999H48.5008C48.8987 45.4999 49.2802 45.3418 49.5615 45.0605C49.8428 44.7792 50.0008 44.3977 50.0008 43.9999C50.0008 43.602 49.8428 43.2205 49.5615 42.9392C49.2802 42.6579 48.8987 42.4999 48.5008 42.4999ZM23.4396 15.9386L18.5008 20.8792L16.5621 18.9386C16.2806 18.6571 15.8989 18.499 15.5008 18.499C15.1028 18.499 14.721 18.6571 14.4396 18.9386C14.1581 19.2201 14 19.6018 14 19.9999C14 20.3979 14.1581 20.7796 14.4396 21.0611L17.4396 24.0611C17.5789 24.2006 17.7443 24.3112 17.9264 24.3867C18.1085 24.4622 18.3037 24.501 18.5008 24.501C18.698 24.501 18.8931 24.4622 19.0752 24.3867C19.2573 24.3112 19.4228 24.2006 19.5621 24.0611L25.5621 18.0611C25.8435 17.7796 26.0017 17.3979 26.0017 16.9999C26.0017 16.6018 25.8435 16.2201 25.5621 15.9386C25.2806 15.6571 24.8989 15.499 24.5008 15.499C24.1028 15.499 23.721 15.6571 23.4396 15.9386ZM23.4396 27.9386L18.5008 32.8792L16.5621 30.9386C16.2806 30.6571 15.8989 30.499 15.5008 30.499C15.1028 30.499 14.721 30.6571 14.4396 30.9386C14.1581 31.2201 14 31.6018 14 31.9999C14 32.1969 14.0388 32.3921 14.1142 32.5742C14.1897 32.7563 14.3002 32.9217 14.4396 33.0611L17.4396 36.0611C17.5789 36.2006 17.7443 36.3112 17.9264 36.3867C18.1085 36.4622 18.3037 36.501 18.5008 36.501C18.698 36.501 18.8931 36.4622 19.0752 36.3867C19.2573 36.3112 19.4228 36.2006 19.5621 36.0611L25.5621 30.0611C25.8435 29.7796 26.0017 29.3979 26.0017 28.9999C26.0017 28.6018 25.8435 28.2201 25.5621 27.9386C25.2806 27.6571 24.8989 27.499 24.5008 27.499C24.1028 27.499 23.721 27.6571 23.4396 27.9386ZM23.4396 39.9386L18.5008 44.8792L16.5621 42.9386C16.4227 42.7992 16.2573 42.6887 16.0752 42.6133C15.8931 42.5378 15.6979 42.499 15.5008 42.499C15.3037 42.499 15.1086 42.5378 14.9265 42.6133C14.7444 42.6887 14.5789 42.7992 14.4396 42.9386C14.3002 43.078 14.1897 43.2434 14.1142 43.4255C14.0388 43.6076 14 43.8028 14 43.9999C14 44.197 14.0388 44.3921 14.1142 44.5742C14.1897 44.7563 14.3002 44.9217 14.4396 45.0611L17.4396 48.0611C17.5789 48.2006 17.7443 48.3112 17.9264 48.3867C18.1085 48.4622 18.3037 48.501 18.5008 48.501C18.698 48.501 18.8931 48.4622 19.0752 48.3867C19.2573 48.3112 19.4228 48.2006 19.5621 48.0611L25.5621 42.0611C25.8435 41.7796 26.0017 41.3979 26.0017 40.9999C26.0017 40.6018 25.8435 40.2201 25.5621 39.9386C25.2806 39.6571 24.8989 39.499 24.5008 39.499C24.1028 39.499 23.721 39.6571 23.4396 39.9386Z" fill="#050B17"/>
</svg>
