<svg width="56" height="57" viewBox="0 0 56 57" fill="none" xmlns="http://www.w3.org/2000/svg">
<rect y="0.5" width="56" height="56" rx="28" fill="#A3C0F2"/>
<path d="M42.6667 21.4938C44.4013 25.1216 44.7306 29.2633 43.591 33.1196C42.4515 36.976 39.9239 40.2735 36.496 42.3758C33.0682 44.4781 28.9831 45.2361 25.0292 44.5036C21.0753 43.7711 17.5329 41.5999 15.0857 38.4092C12.6384 35.2185 11.4598 31.2343 11.7774 27.2257C12.0949 23.2171 13.8861 19.4682 16.8051 16.7025C19.7242 13.9369 23.5643 12.3505 27.5842 12.2496C31.6041 12.1488 35.5189 13.5405 38.573 16.1563L42.1152 12.6125C42.3497 12.378 42.6678 12.2462 42.9995 12.2462C43.3312 12.2462 43.6494 12.378 43.8839 12.6125C44.1185 12.8471 44.2502 13.1652 44.2502 13.4969C44.2502 13.8286 44.1185 14.1467 43.8839 14.3813L34.187 24.0797L28.2948 29.9719L24.5527 33.7141C25.5201 34.354 26.6466 34.712 27.806 34.7481C28.9653 34.7843 30.1119 34.497 31.1173 33.9186C32.1227 33.3401 32.9474 32.4933 33.4989 31.4729C34.0504 30.4524 34.3071 29.2986 34.2402 28.1406C34.2215 27.8091 34.3353 27.4838 34.5566 27.2362C34.7778 26.9886 35.0883 26.839 35.4198 26.8203C35.7514 26.8017 36.0767 26.9155 36.3243 27.1367C36.5719 27.358 36.7215 27.6685 36.7402 28C36.841 29.77 36.4018 31.5289 35.4807 33.0437C34.5596 34.5585 33.2 35.7578 31.5821 36.4827C29.9642 37.2076 28.1643 37.424 26.4207 37.1031C24.6771 36.7823 23.0721 35.9393 21.8183 34.686C20.2589 33.1207 19.3493 31.0235 19.2723 28.8153C19.1953 26.6072 19.9565 24.4517 21.4031 22.7816C22.8496 21.1115 24.8745 20.0505 27.071 19.8116C29.2675 19.5727 31.4731 20.1737 33.2448 21.4938L36.7964 17.9359C34.1914 15.7731 30.8792 14.649 27.4959 14.7795C24.1126 14.91 20.8967 16.2859 18.4661 18.6429C16.0354 21 14.5613 24.1719 14.3268 27.5496C14.0923 30.9273 15.114 34.2726 17.1957 36.9429C19.2774 39.6131 22.2723 41.4202 25.6051 42.0169C28.9379 42.6136 32.3737 41.9579 35.2526 40.1758C38.1314 38.3936 40.2503 35.6107 41.2023 32.3615C42.1544 29.1123 41.8723 25.6259 40.4105 22.5719C40.2675 22.2727 40.2492 21.929 40.3597 21.6163C40.4702 21.3036 40.7003 21.0477 40.9995 20.9047C41.2987 20.7617 41.6425 20.7435 41.9551 20.8539C42.2678 20.9644 42.5238 21.1946 42.6667 21.4938Z" fill="white"/>
</svg>
