<svg width="96" height="124" viewBox="0 0 96 124" fill="none" xmlns="http://www.w3.org/2000/svg">
<path d="M71.2167 90.4954C71.2191 90.4967 71.2189 90.4997 71.2162 90.4994C71.155 90.4918 70.9174 90.0867 70.5146 89.3225C70.0959 88.5283 69.4987 87.3462 68.7415 85.8194C67.227 82.7534 65.0783 78.2899 62.431 72.7181C57.2032 61.7155 50.0368 46.4154 42.0339 29.1172C41.89 28.8062 42.1147 28.4489 42.4574 28.446C42.7978 28.4431 43.0291 28.7905 42.8948 29.1033C41.8746 31.4793 40.7943 33.9736 39.7808 36.5297C37.7799 41.4796 35.9514 46.3556 34.3384 51.1208C33.5011 53.4911 32.7685 55.8552 32.0174 58.1578C31.3094 60.4727 30.6075 62.7383 29.9734 64.9608C27.4246 73.851 25.5406 81.9715 24.1677 88.8361C22.8009 95.7007 21.9206 101.297 21.3172 105.17C21.0155 107.103 20.8124 108.611 20.6338 109.633C20.4614 110.655 20.3445 111.185 20.2952 111.178C20.2398 111.178 20.246 110.63 20.3137 109.596C20.3876 108.568 20.4922 107.041 20.6954 105.09C21.1079 101.186 21.8221 95.5407 23.0534 88.6206C24.2847 81.7006 26.0639 73.5124 28.5512 64.5545C29.1669 62.3135 29.8564 60.0294 30.5521 57.7022C31.2909 55.3812 32.0174 53.0047 32.8424 50.616C34.4431 45.8138 36.2716 40.9009 38.2848 35.9263C39.4053 33.1189 40.5997 30.3854 41.714 27.7935C41.8864 27.3933 42.3543 27.2086 42.7545 27.381C42.9392 27.461 43.0808 27.6026 43.1608 27.775C51.2506 45.3705 58.3553 61.0021 63.3914 72.2626C65.9094 77.8958 67.9103 82.4271 69.2586 85.567C69.9359 87.1369 70.4469 88.3559 70.7732 89.1932C71.0848 89.993 71.2392 90.4333 71.2149 90.4872C71.2137 90.4898 71.2141 90.4942 71.2167 90.4954Z" fill="#003392"/>
<path d="M60.9239 63.9817C60.9224 63.9817 60.9211 63.9825 60.9213 63.984C60.9965 64.4191 49.4193 67.9351 35.0385 71.8437C20.6259 75.7593 8.84832 78.5852 8.73135 78.1604C8.61437 77.7356 20.2011 74.214 34.6198 70.2984C49.0069 66.3897 60.7682 63.5669 60.9263 63.9795C60.9268 63.9809 60.9255 63.9817 60.9239 63.9817Z" fill="#003392"/>
<path d="M52.8683 15.0297C52.8647 15.0226 52.8669 15.0141 52.8735 15.0097C52.9265 14.9742 53.1656 14.8187 53.6071 14.5926C53.8656 14.4633 54.1796 14.3094 54.5552 14.1247C54.9369 13.9523 55.3986 13.7861 55.9158 13.5829C56.9501 13.1827 58.2799 12.8133 59.8868 12.5301C61.4998 12.2962 63.3961 12.1854 65.5078 12.4686C67.6133 12.7456 69.9097 13.4228 72.2308 14.5618C74.5395 15.7254 76.8667 17.3384 79.0769 19.3763C81.281 21.4264 83.405 23.8583 85.3012 26.6965C85.7691 27.3983 86.2432 28.1617 86.6187 28.9498C87.0128 29.7317 87.4253 30.5197 87.8193 31.3262C88.1702 32.1574 88.5211 32.9947 88.8782 33.8443C89.2476 34.6939 89.4939 35.5989 89.814 36.4855C90.9776 40.0871 91.7595 44.0027 92.0612 48.1214C92.369 52.2402 92.1966 56.5498 91.6056 60.9456C91.0146 65.3414 90.0049 69.8296 88.6935 74.3547C88.3857 75.4936 88.004 76.6142 87.6531 77.7593C87.2837 78.8982 86.8404 80.0372 86.4341 81.1885C85.9354 82.3028 85.4736 83.448 84.9257 84.5562C84.6425 85.1041 84.3593 85.6582 84.0761 86.2123L83.6451 87.0434L83.1711 87.8499C80.6653 92.1903 77.5501 96.3029 73.9608 100.102C70.3653 103.906 66.265 107.366 61.8015 110.463C57.3257 113.541 52.5112 116.312 47.2288 118.344C41.9649 120.344 36.2516 121.613 30.3905 121.391C27.4723 121.274 24.5541 120.757 21.8206 119.716C19.0932 118.682 16.5751 117.1 14.5004 115.105C13.4599 114.114 12.5056 113.03 11.6745 111.879C10.8187 110.74 10.0922 109.527 9.42732 108.29C8.10981 105.815 7.12476 103.211 6.36749 100.588C3.43695 90.0725 3.16606 79.3538 4.74215 69.5033C5.52404 64.5718 6.7492 59.8436 8.29451 55.38C8.49152 54.826 8.68853 54.2719 8.88554 53.7178C9.0764 53.1637 9.27956 52.6157 9.51351 52.0801C9.96295 51.0027 10.4062 49.9376 10.8433 48.8787C11.3359 47.8444 11.8222 46.8162 12.3086 45.8004C12.7765 44.7722 13.3552 43.8118 13.8662 42.8329C16.0026 38.9481 18.3298 35.3403 20.854 32.0958C21.1618 31.6833 21.4696 31.277 21.7775 30.8706C22.1038 30.4766 22.4239 30.0887 22.744 29.7009C23.3966 28.9313 24.0061 28.1494 24.6711 27.4168C25.336 26.6903 25.9947 25.97 26.6473 25.262C27.2876 24.5355 28.0018 23.9014 28.6605 23.2365C29.9719 21.882 31.4002 20.7184 32.7362 19.5179C33.4381 18.9638 34.1338 18.4097 34.8171 17.8679C35.1619 17.597 35.5005 17.3323 35.8391 17.0675C36.1901 16.8213 36.541 16.575 36.8857 16.3287C37.5814 15.8424 38.2648 15.3622 38.9359 14.8881C39.6316 14.451 40.3211 14.02 40.9984 13.5952C41.337 13.3859 41.6756 13.1704 42.008 12.9672C42.3528 12.7764 42.6914 12.5855 43.03 12.3947C43.7073 12.0191 44.3722 11.6497 45.0248 11.2927C46.3484 10.6031 47.6598 9.98746 48.9034 9.38411C50.184 8.84233 51.403 8.30055 52.5912 7.82649C53.7918 7.38321 54.9369 6.95841 56.0328 6.55207C57.141 6.19499 58.1999 5.86253 59.1973 5.54239C63.2237 4.35417 66.4005 3.64616 68.5676 3.23367C69.6512 3.03666 70.4823 2.8889 71.0364 2.80271C71.5998 2.71602 71.6191 2.82014 71.0672 2.96278C70.5192 3.10438 69.7066 3.30139 68.6353 3.54765C66.499 4.06481 63.353 4.86517 59.382 6.13958C58.3969 6.47819 57.3564 6.83528 56.2606 7.21083C55.1832 7.62948 54.0565 8.07275 52.8744 8.5345C51.7108 9.02703 50.5103 9.58112 49.2544 10.1352C48.0292 10.7509 46.7486 11.3788 45.4496 12.0807C44.8093 12.4501 44.1567 12.8195 43.4918 13.2012C43.1593 13.3921 42.8269 13.5829 42.4944 13.7799C42.1681 13.9892 41.8418 14.2047 41.5094 14.414C40.8444 14.8389 40.1734 15.276 39.49 15.7131C38.8312 16.1871 38.1602 16.6674 37.4829 17.1599C37.1443 17.4062 36.8057 17.6524 36.4609 17.8987C36.1285 18.1634 35.796 18.4343 35.4636 18.699C34.7987 19.2408 34.1214 19.7888 33.4319 20.3429C32.1329 21.5372 30.7415 22.7008 29.4547 24.043C28.8083 24.7079 28.1126 25.342 27.4908 26.0562C26.8567 26.7642 26.2102 27.4722 25.5638 28.1987C24.9173 28.9251 24.3201 29.707 23.686 30.4705C23.372 30.8522 23.058 31.24 22.7379 31.6279C22.4424 32.0342 22.1407 32.4344 21.839 32.8469C19.3702 36.0668 17.1108 39.6376 15.036 43.4732C14.5373 44.4459 13.977 45.394 13.5215 46.4037C13.0536 47.4072 12.5795 48.4231 12.0993 49.4451C11.6745 50.4855 11.2435 51.5383 10.8126 52.5973C10.5848 53.1206 10.3878 53.6624 10.2031 54.2103C10.0122 54.7521 9.82134 55.3 9.63049 55.8479C8.13444 60.2438 6.95237 64.892 6.20127 69.7372C5.444 74.5763 5.14233 79.6124 5.39475 84.7347C5.64101 89.8447 6.42906 95.0655 7.87586 100.163C8.62081 102.706 9.56892 105.205 10.831 107.563C11.4652 108.739 12.1547 109.884 12.9612 110.956C13.7431 112.039 14.6358 113.049 15.6024 113.966C17.5356 115.819 19.8504 117.278 22.3993 118.239C24.9419 119.205 27.6816 119.698 30.4583 119.809C36.03 120.018 41.5586 118.811 46.6624 116.872C51.7662 114.914 56.5253 112.199 60.9088 109.195C65.2861 106.166 69.3187 102.78 72.8464 99.0673C76.3742 95.3548 79.434 91.3469 81.8905 87.1296L82.3584 86.3477L82.777 85.5412C83.0541 85.0056 83.3373 84.47 83.6143 83.9343C84.1499 82.8569 84.5994 81.7487 85.0919 80.6713C85.4921 79.5508 85.9292 78.4611 86.2986 77.3468C86.6495 76.2201 87.0312 75.1058 87.3452 73.9853C88.6689 69.5218 89.6847 65.1075 90.2942 60.7917C90.9037 56.4759 91.1008 52.2586 90.8299 48.2322C90.5651 44.2058 89.8386 40.3826 88.7366 36.8548C88.4349 35.9806 88.201 35.0941 87.8501 34.2629C87.5114 33.4256 87.1728 32.6006 86.8404 31.788C86.4525 30.9999 86.0708 30.218 85.6953 29.4485C85.332 28.6604 84.9134 27.9709 84.4578 27.269C82.6416 24.4801 80.5914 22.0667 78.4736 20.0412C76.3434 18.0218 74.1085 16.4211 71.8922 15.2513C69.6635 14.1062 67.4594 13.4105 65.4216 13.0965C63.3837 12.7764 61.5368 12.838 59.9607 13.0103C58.3846 13.2443 57.0671 13.5521 56.0266 13.8969C55.5095 14.0754 55.0477 14.2109 54.6537 14.3586C54.272 14.5126 53.9457 14.648 53.6809 14.7527C53.1576 14.962 52.8806 15.0543 52.8683 15.0297Z" fill="#003392"/>
<path d="M66.6613 55.6241C66.6613 55.6258 66.6603 55.6273 66.6586 55.6272C66.215 55.6213 65.4783 48.1896 65.0052 39.0105C64.5311 29.8064 64.5065 22.3323 64.9498 22.3077C65.393 22.2831 66.1318 29.7264 66.6059 38.9243C67.079 48.1031 67.1045 55.5714 66.6641 55.6208C66.6623 55.621 66.6613 55.6224 66.6613 55.6241Z" fill="#003392"/>
<path d="M76.6511 34.9657C76.8174 35.372 71.9783 37.73 65.7293 39.9464C59.4804 42.1689 54.235 43.3879 54.1118 42.9693C53.9825 42.5383 58.9879 40.6421 65.1937 38.438C71.3996 36.2401 76.4849 34.5532 76.6511 34.9657Z" fill="#003392"/>
</svg>
