<svg width="146" height="118" viewBox="0 0 146 118" fill="none" xmlns="http://www.w3.org/2000/svg">
<path d="M3.73076 21.7774C6.13982 24.1864 9.34387 25.5141 12.7511 25.5141C15.9008 25.5141 18.8697 24.3672 21.2051 22.2909L45.0316 46.119C41.0982 50.1708 38.9258 55.488 38.9258 61.1459C38.9258 66.9142 41.1717 72.3369 45.2508 76.416C51.6573 82.8241 61.3959 84.5325 69.5924 80.7366L98.9952 110.139C99.0096 110.154 99.0272 110.157 99.0416 110.17C104.17 115.215 110.94 118 118.143 118C125.421 118 132.264 115.165 137.41 110.018C148.035 99.3931 148.035 82.1059 137.41 71.4811L124.351 58.1866C122.962 56.8013 121.124 55.8015 119.171 55.8015C119.157 55.8015 119.141 55.8015 119.127 55.8015C117.164 55.8015 115.311 56.8269 113.91 58.2298C112.51 59.6295 111.747 61.6162 111.759 63.6125C111.76 63.9165 111.813 64.2684 111.85 64.5659L111.52 64.2652C110.093 62.8383 108.219 62.1409 106.336 62.1409C104.436 62.1409 102.53 62.8751 101.078 64.3276C99.4047 66.0008 98.7377 68.2915 99.0112 70.4862L98.6881 70.1646C97.2612 68.7378 95.3864 68.0275 93.5053 68.0275C91.6049 68.0275 89.6997 68.7554 88.2473 70.2078C86.8476 71.6075 86.0846 73.4775 86.0958 75.4738C86.0974 75.7777 86.1502 76.0721 86.187 76.3696L80.0812 70.2638C83.8755 62.1345 82.2743 52.5543 75.9909 46.0966L100.064 22.0269C102.439 24.2712 105.526 25.5157 108.811 25.5157C112.218 25.5157 115.42 24.188 117.831 21.779C122.804 16.8057 122.804 8.71159 117.831 3.73834C115.422 1.3293 112.218 0.00159454 108.811 0.00159454C105.403 0.00159454 102.199 1.3293 99.7902 3.73834C95.1097 8.41886 94.8362 15.8588 98.9648 20.8656L74.8392 45.004C71.1216 41.7024 66.2939 39.8132 61.495 39.5989V25.4677C64.6943 25.2406 67.3545 23.9577 69.5332 21.779C74.5065 16.8057 74.5 8.71159 69.5268 3.73834C67.1178 1.3293 63.9105 0.00159454 60.5033 0.00159454C57.0961 0.00159454 53.8904 1.3293 51.4814 3.73834C46.5081 8.71159 46.5193 16.8057 51.4926 21.779C53.7544 24.0377 56.6962 25.3302 59.8954 25.4837V39.5829C55.0965 39.7332 50.0017 41.6416 46.2074 45.02L22.3377 21.1567C26.7287 16.1515 26.5479 8.51164 21.773 3.73675C19.364 1.3277 16.1583 0 12.7511 0C9.34387 0 6.13982 1.3277 3.73076 3.73675C-1.24249 8.7116 -1.24408 16.8041 3.73076 21.7774ZM91.6241 84.067C91.936 84.3789 92.4431 84.3789 92.755 84.067C93.067 83.7551 93.067 83.248 92.755 82.9361L92.6047 82.7857L89.4182 79.5993C88.3177 78.4987 87.705 77.0286 87.6954 75.4642C87.6858 73.8982 88.2841 72.4329 89.3782 71.3388C91.6449 69.0737 95.3128 69.0529 97.5571 71.2988L100.825 74.5652C100.859 74.5988 100.902 74.6148 100.94 74.642C101.004 74.7108 101.051 74.7908 101.118 74.8596L103.169 76.9103C103.481 77.2222 103.988 77.2222 104.3 76.9103C104.612 76.5983 104.612 76.0913 104.3 75.7793L102.249 73.7286C99.9598 71.4395 99.9422 67.7332 102.209 65.4665C104.474 63.1998 108.145 63.1822 110.389 65.4265L113.656 68.6946C113.689 68.7282 113.733 68.7442 113.771 68.7714C113.835 68.8401 113.883 68.9217 113.95 68.9889L116.002 71.0396C116.314 71.3516 116.821 71.3516 117.133 71.0396C117.445 70.7277 117.445 70.2206 117.133 69.9087L115.081 67.858C113.981 66.7574 113.368 65.2874 113.358 63.7229C113.349 62.1569 113.947 60.4565 115.041 59.3623C116.143 58.257 117.596 57.4012 119.135 57.4012C119.146 57.4012 119.159 57.4012 119.17 57.4012C120.697 57.4012 122.134 58.233 123.22 59.3191L136.279 72.4953C146.279 82.4962 146.279 98.8284 136.279 108.829C131.434 113.675 124.992 116.372 118.143 116.372C111.292 116.372 104.85 113.718 100.006 108.873L56.4178 65.2922C55.3173 64.1916 54.7046 62.7247 54.695 61.1603C54.6854 59.5943 55.2837 58.1306 56.3778 57.0365C58.6445 54.7714 62.3157 54.757 64.5567 56.9965L88.2873 80.7302L91.4737 83.9167L91.6241 84.067ZM59.054 70.1998C57.168 69.8927 55.4021 69.0065 54.0312 67.6356C50.456 64.0588 50.456 58.2378 54.0312 54.6594C57.6063 51.0906 63.429 51.0842 67.0074 54.6594C68.4023 56.0543 69.298 57.8523 69.5892 59.7718L65.6845 55.8671C64.2576 54.4403 62.3828 53.7284 60.5017 53.7284C58.6013 53.7284 56.6962 54.4547 55.2437 55.9071C52.3532 58.7977 52.3724 63.5182 55.2837 66.4311L59.054 70.1998ZM78.8782 69.0593L70.6433 60.8244C70.5602 58.2618 69.514 55.8079 67.6856 53.9796C65.7101 52.004 63.1155 51.0154 60.5209 51.0154C57.9247 51.0154 55.3301 52.0024 53.3545 53.9796C49.4034 57.9306 49.4034 64.3612 53.3545 68.3123C55.1605 70.1214 57.5967 71.1708 60.1242 71.2684L68.3783 79.5225C60.9064 82.7169 52.174 81.0773 46.3833 75.285C42.6066 71.5083 40.5271 66.4871 40.5271 61.1459C40.5271 55.8063 42.6066 50.7835 46.3833 47.0084C50.1585 43.2316 55.1813 41.1521 60.5225 41.1521C65.8636 41.1521 70.8849 43.2316 74.66 47.0084C80.5003 52.8486 82.1175 61.565 78.8782 69.0593ZM100.921 4.86768C103.028 2.76096 105.829 1.59962 108.811 1.59962C111.791 1.59962 114.592 2.76096 116.7 4.86768C121.051 9.21867 121.051 16.2971 116.7 20.6465C114.593 22.7532 111.791 23.9145 108.811 23.9145C105.83 23.9145 103.028 22.7532 100.921 20.6465C96.5702 16.2971 96.5702 9.21867 100.921 4.86768ZM52.6123 4.86768C54.719 2.76096 57.52 1.59962 60.5017 1.59962C63.4834 1.59962 66.2827 2.76096 68.3911 4.86768C72.7421 9.21867 72.7421 16.2971 68.3911 20.6465C66.2843 22.7532 63.4834 23.9145 60.5017 23.9145C57.52 23.9145 54.7206 22.7532 52.6123 20.6465C48.2629 16.2971 48.2629 9.21867 52.6123 4.86768ZM4.86171 4.86768C6.96841 2.76096 9.76938 1.59962 12.7511 1.59962C15.7328 1.59962 18.5322 2.76096 20.6405 4.86768C24.9915 9.21867 24.9915 16.2971 20.6405 20.6465C18.5338 22.7532 15.7328 23.9145 12.7511 23.9145C9.76938 23.9145 6.97002 22.7532 4.86171 20.6465C0.510712 16.2971 0.510712 9.21867 4.86171 4.86768Z" fill="#003392"/>
</svg>
