<svg width="130" height="118" viewBox="0 0 130 118" fill="none" xmlns="http://www.w3.org/2000/svg">
<g clip-path="url(#clip0_441_8879)">
<path d="M90.5465 12.6067C92.9324 12.6067 94.8665 10.6726 94.8665 8.28675C94.8665 5.9009 92.9324 3.9668 90.5465 3.9668C88.1607 3.9668 86.2266 5.9009 86.2266 8.28675C86.2266 10.6726 88.1607 12.6067 90.5465 12.6067Z" fill="#003392"/>
<path d="M103.053 18.3572C104.544 18.3572 105.754 17.1479 105.754 15.6561C105.754 14.1644 104.544 12.9551 103.053 12.9551C101.561 12.9551 100.352 14.1644 100.352 15.6561C100.352 17.1479 101.561 18.3572 103.053 18.3572Z" fill="#003392"/>
<path d="M91.7641 32.9863C93.4784 32.9863 94.8681 31.5966 94.8681 29.8823C94.8681 28.168 93.4784 26.7783 91.7641 26.7783C90.0499 26.7783 88.6602 28.168 88.6602 29.8823C88.6602 31.5966 90.0499 32.9863 91.7641 32.9863Z" fill="#003392"/>
<path d="M61.6582 37.0508C63.657 37.0508 65.2774 35.4304 65.2774 33.4316C65.2774 31.4328 63.657 29.8125 61.6582 29.8125C59.6594 29.8125 58.0391 31.4328 58.0391 33.4316C58.0391 35.4304 59.6594 37.0508 61.6582 37.0508Z" fill="#003392"/>
<path d="M49.2002 61.0195C50.8533 61.0195 52.1934 59.6795 52.1934 58.0264C52.1934 56.3733 50.8533 55.0332 49.2002 55.0332C47.5471 55.0332 46.207 56.3733 46.207 58.0264C46.207 59.6795 47.5471 61.0195 49.2002 61.0195Z" fill="#003392"/>
<path d="M58.5655 64.3586C60.2758 64.3586 61.6623 62.9721 61.6623 61.2618C61.6623 59.5515 60.2758 58.165 58.5655 58.165C56.8552 58.165 55.4688 59.5515 55.4688 61.2618C55.4688 62.9721 56.8552 64.3586 58.5655 64.3586Z" fill="#003392"/>
<path d="M54.1789 42.0199C55.4664 42.0199 56.5101 40.9761 56.5101 39.6886C56.5101 38.4011 55.4664 37.3574 54.1789 37.3574C52.8914 37.3574 51.8477 38.4011 51.8477 39.6886C51.8477 40.9761 52.8914 42.0199 54.1789 42.0199Z" fill="#003392"/>
<path d="M28.6737 38.5525C30.2107 38.5525 31.4568 37.3064 31.4568 35.7694C31.4568 34.2323 30.2107 32.9863 28.6737 32.9863C27.1366 32.9863 25.8906 34.2323 25.8906 35.7694C25.8906 37.3064 27.1366 38.5525 28.6737 38.5525Z" fill="#003392"/>
<path d="M26.133 26.7777C27.7662 26.7777 29.0902 25.4537 29.0902 23.8205C29.0902 22.1873 27.7662 20.8633 26.133 20.8633C24.4998 20.8633 23.1758 22.1873 23.1758 23.8205C23.1758 25.4537 24.4998 26.7777 26.133 26.7777Z" fill="#003392"/>
<path d="M19.175 15.3646C20.4625 15.3646 21.5062 14.3209 21.5062 13.0334C21.5062 11.7459 20.4625 10.7021 19.175 10.7021C17.8875 10.7021 16.8438 11.7459 16.8438 13.0334C16.8438 14.3209 17.8875 15.3646 19.175 15.3646Z" fill="#003392"/>
<path d="M29.2619 9.17135C30.4724 9.17135 31.4536 8.19013 31.4536 6.97972C31.4536 5.76932 30.4724 4.78809 29.2619 4.78809C28.0515 4.78809 27.0703 5.76932 27.0703 6.97972C27.0703 8.19013 28.0515 9.17135 29.2619 9.17135Z" fill="#003392"/>
<path d="M35.8775 11.8156C36.9727 11.8156 37.8605 10.9278 37.8605 9.83259C37.8605 8.73742 36.9727 7.84961 35.8775 7.84961C34.7823 7.84961 33.8945 8.73742 33.8945 9.83259C33.8945 10.9278 34.7823 11.8156 35.8775 11.8156Z" fill="#003392"/>
<path d="M42.5588 21.9057C43.7692 21.9057 44.7505 20.9245 44.7505 19.7141C44.7505 18.5037 43.7692 17.5225 42.5588 17.5225C41.3484 17.5225 40.3672 18.5037 40.3672 19.7141C40.3672 20.9245 41.3484 21.9057 42.5588 21.9057Z" fill="#003392"/>
<path d="M33.6488 47.656C35.321 47.656 36.6765 46.3004 36.6765 44.6283C36.6765 42.9561 35.321 41.6006 33.6488 41.6006C31.9766 41.6006 30.6211 42.9561 30.6211 44.6283C30.6211 46.3004 31.9766 47.656 33.6488 47.656Z" fill="#003392"/>
<path d="M11.7598 38.1787C13.7586 38.1787 15.3789 36.5584 15.3789 34.5596C15.3789 32.5608 13.7586 30.9404 11.7598 30.9404C9.76097 30.9404 8.14062 32.5608 8.14062 34.5596C8.14062 36.5584 9.76097 38.1787 11.7598 38.1787Z" fill="#003392"/>
<path d="M3.23637 45.2559C5.02376 45.2559 6.47273 43.807 6.47273 42.0196C6.47273 40.2322 5.02376 38.7832 3.23637 38.7832C1.44897 38.7832 0 40.2322 0 42.0196C0 43.807 1.44897 45.2559 3.23637 45.2559Z" fill="#003392"/>
<path d="M14.2631 56.6336C16.0696 56.6336 17.534 55.1692 17.534 53.3627C17.534 51.5562 16.0696 50.0918 14.2631 50.0918C12.4566 50.0918 10.9922 51.5562 10.9922 53.3627C10.9922 55.1692 12.4566 56.6336 14.2631 56.6336Z" fill="#003392"/>
<path d="M31.1599 55.0679C32.5341 55.0679 33.648 53.954 33.648 52.5799C33.648 51.2057 32.5341 50.0918 31.1599 50.0918C29.7858 50.0918 28.6719 51.2057 28.6719 52.5799C28.6719 53.954 29.7858 55.0679 31.1599 55.0679Z" fill="#003392"/>
<path d="M48.1209 73.8923C49.178 73.8923 50.0348 73.0354 50.0348 71.9784C50.0348 70.9213 49.178 70.0645 48.1209 70.0645C47.0639 70.0645 46.207 70.9213 46.207 71.9784C46.207 73.0354 47.0639 73.8923 48.1209 73.8923Z" fill="#003392"/>
<path d="M68.8604 84.6104C70.3021 84.6104 71.4708 83.4417 71.4708 82C71.4708 80.5584 70.3021 79.3896 68.8604 79.3896C67.4187 79.3896 66.25 80.5584 66.25 82C66.25 83.4417 67.4187 84.6104 68.8604 84.6104Z" fill="#003392"/>
<path d="M79.161 76.0496C80.141 76.0496 80.9354 75.2552 80.9354 74.2753C80.9354 73.2954 80.141 72.501 79.161 72.501C78.1811 72.501 77.3867 73.2954 77.3867 74.2753C77.3867 75.2552 78.1811 76.0496 79.161 76.0496Z" fill="#003392"/>
<path d="M75.229 66.1669C76.9584 66.1669 78.3603 64.765 78.3603 63.0356C78.3603 61.3062 76.9584 59.9043 75.229 59.9043C73.4996 59.9043 72.0977 61.3062 72.0977 63.0356C72.0977 64.765 73.4996 66.1669 75.229 66.1669Z" fill="#003392"/>
<path d="M72.6889 47.0301C74.284 47.0301 75.577 45.7371 75.577 44.142C75.577 42.547 74.284 41.2539 72.6889 41.2539C71.0938 41.2539 69.8008 42.547 69.8008 44.142C69.8008 45.7371 71.0938 47.0301 72.6889 47.0301Z" fill="#003392"/>
<path d="M89.6034 47.3084C90.9291 47.3084 92.0037 46.2337 92.0037 44.9081C92.0037 43.5825 90.9291 42.5078 89.6034 42.5078C88.2778 42.5078 87.2031 43.5825 87.2031 44.9081C87.2031 46.2337 88.2778 47.3084 89.6034 47.3084Z" fill="#003392"/>
<path d="M94.3544 57.2186C95.7842 57.2186 96.9432 56.0596 96.9432 54.6298C96.9432 53.2001 95.7842 52.041 94.3544 52.041C92.9247 52.041 91.7656 53.2001 91.7656 54.6298C91.7656 56.0596 92.9247 57.2186 94.3544 57.2186Z" fill="#003392"/>
<path d="M106.033 54.6288C107.132 54.6288 108.023 53.7378 108.023 52.6386C108.023 51.5395 107.132 50.6484 106.033 50.6484C104.934 50.6484 104.043 51.5395 104.043 52.6386C104.043 53.7378 104.934 54.6288 106.033 54.6288Z" fill="#003392"/>
<path d="M127.005 64.1161C128.389 64.1161 129.511 62.9945 129.511 61.6108C129.511 60.2271 128.389 59.1055 127.005 59.1055C125.622 59.1055 124.5 60.2271 124.5 61.6108C124.5 62.9945 125.622 64.1161 127.005 64.1161Z" fill="#003392"/>
<path d="M110.422 70.8318C112.094 70.8318 113.45 69.4762 113.45 67.8041C113.45 66.1319 112.094 64.7764 110.422 64.7764C108.75 64.7764 107.395 66.1319 107.395 67.8041C107.395 69.4762 108.75 70.8318 110.422 70.8318Z" fill="#003392"/>
<path d="M116.552 44.9084C117.465 44.9084 118.205 44.1682 118.205 43.255C118.205 42.3418 117.465 41.6016 116.552 41.6016C115.639 41.6016 114.898 42.3418 114.898 43.255C114.898 44.1682 115.639 44.9084 116.552 44.9084Z" fill="#003392"/>
<path d="M125.667 50.1625C127.118 50.1625 128.294 48.9861 128.294 47.5349C128.294 46.0837 127.118 44.9072 125.667 44.9072C124.216 44.9072 123.039 46.0837 123.039 47.5349C123.039 48.9861 124.216 50.1625 125.667 50.1625Z" fill="#003392"/>
<path d="M116.217 28.7961C117.101 28.7961 117.818 28.0797 117.818 27.1959C117.818 26.3121 117.101 25.5957 116.217 25.5957C115.334 25.5957 114.617 26.3121 114.617 27.1959C114.617 28.0797 115.334 28.7961 116.217 28.7961Z" fill="#003392"/>
<path d="M105.538 44.656C106.91 44.656 108.022 43.544 108.022 42.1722C108.022 40.8005 106.91 39.6885 105.538 39.6885C104.167 39.6885 103.055 40.8005 103.055 42.1722C103.055 43.544 104.167 44.656 105.538 44.656Z" fill="#003392"/>
<path d="M80.5863 30.8846C82.0471 30.8846 83.2313 29.7004 83.2313 28.2397C83.2313 26.7789 82.0471 25.5947 80.5863 25.5947C79.1256 25.5947 77.9414 26.7789 77.9414 28.2397C77.9414 29.7004 79.1256 30.8846 80.5863 30.8846Z" fill="#003392"/>
<path d="M69.9729 18.3579C71.1833 18.3579 72.1645 17.3766 72.1645 16.1662C72.1645 14.9558 71.1833 13.9746 69.9729 13.9746C68.7625 13.9746 67.7812 14.9558 67.7812 16.1662C67.7812 17.3766 68.7625 18.3579 69.9729 18.3579Z" fill="#003392"/>
<path d="M51.9324 14.0093C53.1722 14.0093 54.1773 13.0042 54.1773 11.7644C54.1773 10.5246 53.1722 9.51953 51.9324 9.51953C50.6926 9.51953 49.6875 10.5246 49.6875 11.7644C49.6875 13.0042 50.6926 14.0093 51.9324 14.0093Z" fill="#003392"/>
<path d="M64.1961 5.83073C65.5989 5.83073 66.736 4.69359 66.736 3.29085C66.736 1.88812 65.5989 0.750977 64.1961 0.750977C62.7934 0.750977 61.6562 1.88812 61.6562 3.29085C61.6562 4.69359 62.7934 5.83073 64.1961 5.83073Z" fill="#003392"/>
<path d="M44.4357 33.7385C45.8002 33.7385 46.9065 32.6323 46.9065 31.2677C46.9065 29.9031 45.8002 28.7969 44.4357 28.7969C43.0711 28.7969 41.9648 29.9031 41.9648 31.2677C41.9648 32.6323 43.0711 33.7385 44.4357 33.7385Z" fill="#003392"/>
<path d="M33.5792 30.8859C34.5981 30.8859 35.424 30.06 35.424 29.0411C35.424 28.0222 34.5981 27.1963 33.5792 27.1963C32.5603 27.1963 31.7344 28.0222 31.7344 29.0411C31.7344 30.06 32.5603 30.8859 33.5792 30.8859Z" fill="#003392"/>
<path d="M64.4439 53.9893C65.7505 53.9893 66.8096 52.9301 66.8096 51.6236C66.8096 50.317 65.7505 49.2578 64.4439 49.2578C63.1373 49.2578 62.0781 50.317 62.0781 51.6236C62.0781 52.9301 63.1373 53.9893 64.4439 53.9893Z" fill="#003392"/>
<path d="M81.77 58.3876C82.8079 58.3876 83.6494 57.5462 83.6494 56.5083C83.6494 55.4703 82.8079 54.6289 81.77 54.6289C80.732 54.6289 79.8906 55.4703 79.8906 56.5083C79.8906 57.5462 80.732 58.3876 81.77 58.3876Z" fill="#003392"/>
<path d="M91.9788 65.2155C93.2918 65.2155 94.3561 64.1511 94.3561 62.8382C94.3561 61.5253 93.2918 60.4609 91.9788 60.4609C90.6659 60.4609 89.6016 61.5253 89.6016 62.8382C89.6016 64.1511 90.6659 65.2155 91.9788 65.2155Z" fill="#003392"/>
<path d="M96.5159 88.104C97.7112 88.104 98.6801 87.135 98.6801 85.9397C98.6801 84.7444 97.7112 83.7754 96.5159 83.7754C95.3205 83.7754 94.3516 84.7444 94.3516 85.9397C94.3516 87.135 95.3205 88.104 96.5159 88.104Z" fill="#003392"/>
<path d="M66.1812 96.9288C67.142 96.9288 67.921 96.1499 67.921 95.189C67.921 94.2281 67.142 93.4492 66.1812 93.4492C65.2203 93.4492 64.4414 94.2281 64.4414 95.189C64.4414 96.1499 65.2203 96.9288 66.1812 96.9288Z" fill="#003392"/>
<path d="M73.4228 114.953C74.1913 114.953 74.8143 114.33 74.8143 113.561C74.8143 112.793 74.1913 112.17 73.4228 112.17C72.6543 112.17 72.0312 112.793 72.0312 113.561C72.0312 114.33 72.6543 114.953 73.4228 114.953Z" fill="#003392"/>
<path d="M78.674 117.667C79.6158 117.667 80.3792 116.904 80.3792 115.962C80.3792 115.02 79.6158 114.257 78.674 114.257C77.7322 114.257 76.9688 115.02 76.9688 115.962C76.9688 116.904 77.7322 117.667 78.674 117.667Z" fill="#003392"/>
<path d="M79.7191 107.018C80.2953 107.018 80.7624 106.551 80.7624 105.975C80.7624 105.399 80.2953 104.932 79.7191 104.932C79.1429 104.932 78.6758 105.399 78.6758 105.975C78.6758 106.551 79.1429 107.018 79.7191 107.018Z" fill="#003392"/>
<path d="M76.0969 96.5805C76.9616 96.5805 77.6626 95.8796 77.6626 95.0149C77.6626 94.1502 76.9616 93.4492 76.0969 93.4492C75.2322 93.4492 74.5312 94.1502 74.5312 95.0149C74.5312 95.8796 75.2322 96.5805 76.0969 96.5805Z" fill="#003392"/>
<path d="M76.8661 88.5153C77.5774 88.5153 78.154 87.9387 78.154 87.2274C78.154 86.5161 77.5774 85.9395 76.8661 85.9395C76.1548 85.9395 75.5781 86.5161 75.5781 87.2274C75.5781 87.9387 76.1548 88.5153 76.8661 88.5153Z" fill="#003392"/>
<path d="M64.9618 90.7752C65.9417 90.7752 66.7361 89.9808 66.7361 89.0009C66.7361 88.021 65.9417 87.2266 64.9618 87.2266C63.9819 87.2266 63.1875 88.021 63.1875 89.0009C63.1875 89.9808 63.9819 90.7752 64.9618 90.7752Z" fill="#003392"/>
<path d="M62.8391 73.7525C63.4924 73.7525 64.022 73.2229 64.022 72.5696C64.022 71.9163 63.4924 71.3867 62.8391 71.3867C62.1858 71.3867 61.6562 71.9163 61.6562 72.5696C61.6562 73.2229 62.1858 73.7525 62.8391 73.7525Z" fill="#003392"/>
<path d="M39.4861 62.062C40.501 62.062 41.3237 61.2393 41.3237 60.2244C41.3237 59.2095 40.501 58.3867 39.4861 58.3867C38.4712 58.3867 37.6484 59.2095 37.6484 60.2244C37.6484 61.2393 38.4712 62.062 39.4861 62.062Z" fill="#003392"/>
<path d="M41.0328 48.005C41.8879 48.005 42.5812 47.3117 42.5812 46.4566C42.5812 45.6014 41.8879 44.9082 41.0328 44.9082C40.1776 44.9082 39.4844 45.6014 39.4844 46.4566C39.4844 47.3117 40.1776 48.005 41.0328 48.005Z" fill="#003392"/>
<path d="M54.1616 19.7138C55.4396 19.7138 56.4756 18.6778 56.4756 17.3999C56.4756 16.1219 55.4396 15.0859 54.1616 15.0859C52.8837 15.0859 51.8477 16.1219 51.8477 17.3999C51.8477 18.6778 52.8837 19.7138 54.1616 19.7138Z" fill="#003392"/>
<path d="M50.3163 3.39623C51.1619 3.39623 51.8474 2.71072 51.8474 1.86511C51.8474 1.01949 51.1619 0.333984 50.3163 0.333984C49.4707 0.333984 48.7852 1.01949 48.7852 1.86511C48.7852 2.71072 49.4707 3.39623 50.3163 3.39623Z" fill="#003392"/>
<path d="M119.857 37.4622C120.77 37.4622 121.51 36.7219 121.51 35.8087C121.51 34.8955 120.77 34.1553 119.857 34.1553C118.943 34.1553 118.203 34.8955 118.203 35.8087C118.203 36.7219 118.943 37.4622 119.857 37.4622Z" fill="#003392"/>
<path d="M120.814 70.9005C122.044 70.9005 123.041 69.9032 123.041 68.6729C123.041 67.4426 122.044 66.4453 120.814 66.4453C119.583 66.4453 118.586 67.4426 118.586 68.6729C118.586 69.9032 119.583 70.9005 120.814 70.9005Z" fill="#003392"/>
<path d="M102.19 58.025C103.128 58.025 103.888 57.2648 103.888 56.327C103.888 55.3891 103.128 54.6289 102.19 54.6289C101.252 54.6289 100.492 55.3891 100.492 56.327C100.492 57.2648 101.252 58.025 102.19 58.025Z" fill="#003392"/>
<path d="M87.1144 37.4622C88.0275 37.4622 88.7678 36.7219 88.7678 35.8087C88.7678 34.8955 88.0275 34.1553 87.1144 34.1553C86.2012 34.1553 85.4609 34.8955 85.4609 35.8087C85.4609 36.7219 86.2012 37.4622 87.1144 37.4622Z" fill="#003392"/>
<path d="M86.2778 20.3056C87.4214 20.3056 88.3485 19.3785 88.3485 18.2348C88.3485 17.0912 87.4214 16.1641 86.2778 16.1641C85.1341 16.1641 84.207 17.0912 84.207 18.2348C84.207 19.3785 85.1341 20.3056 86.2778 20.3056Z" fill="#003392"/>
<path d="M106.033 32.7772C107.132 32.7772 108.023 31.8862 108.023 30.787C108.023 29.6879 107.132 28.7969 106.033 28.7969C104.934 28.7969 104.043 29.6879 104.043 30.787C104.043 31.8862 104.934 32.7772 106.033 32.7772Z" fill="#003392"/>
<path d="M60.2868 80.5453C61.5282 80.5453 62.5346 79.539 62.5346 78.2976C62.5346 77.0562 61.5282 76.0498 60.2868 76.0498C59.0454 76.0498 58.0391 77.0562 58.0391 78.2976C58.0391 79.539 59.0454 80.5453 60.2868 80.5453Z" fill="#003392"/>
<path d="M27.7406 61.6101C28.6307 61.6101 29.3523 60.8885 29.3523 59.9984C29.3523 59.1083 28.6307 58.3867 27.7406 58.3867C26.8505 58.3867 26.1289 59.1083 26.1289 59.9984C26.1289 60.8885 26.8505 61.6101 27.7406 61.6101Z" fill="#003392"/>
<path d="M19.0184 62.0621C19.8354 62.0621 20.4977 61.3998 20.4977 60.5828C20.4977 59.7658 19.8354 59.1035 19.0184 59.1035C18.2014 59.1035 17.5391 59.7658 17.5391 60.5828C17.5391 61.3998 18.2014 62.0621 19.0184 62.0621Z" fill="#003392"/>
<path d="M12.6347 22.9863C13.5376 22.9863 14.2695 22.2544 14.2695 21.3515C14.2695 20.4487 13.5376 19.7168 12.6347 19.7168C11.7319 19.7168 11 20.4487 11 21.3515C11 22.2544 11.7319 22.9863 12.6347 22.9863Z" fill="#003392"/>
<path d="M78.6438 4.23086C79.7198 4.23086 80.5922 3.35852 80.5922 2.28242C80.5922 1.20633 79.7198 0.333984 78.6438 0.333984C77.5677 0.333984 76.6953 1.20633 76.6953 2.28242C76.6953 3.35852 77.5677 4.23086 78.6438 4.23086Z" fill="#003392"/>
<path d="M80.9337 84.8577C81.5314 84.8577 82.0159 84.3732 82.0159 83.7755C82.0159 83.1779 81.5314 82.6934 80.9337 82.6934C80.3361 82.6934 79.8516 83.1779 79.8516 83.7755C79.8516 84.3732 80.3361 84.8577 80.9337 84.8577Z" fill="#003392"/>
<path d="M78.6753 116.214C78.6681 116.214 78.6581 116.214 78.6494 116.213C78.5084 116.198 78.4077 116.073 78.4235 115.934L79.4682 105.947C79.4841 105.81 79.615 105.708 79.7445 105.721C79.8856 105.735 79.9863 105.86 79.9705 106L78.9257 115.987C78.9128 116.118 78.8034 116.214 78.6753 116.214Z" fill="#003392"/>
<path d="M73.4214 113.813C73.3638 113.813 73.3063 113.795 73.2588 113.754C73.1523 113.665 73.1365 113.505 73.2271 113.397L79.5257 105.811C79.615 105.703 79.7733 105.687 79.8812 105.778C79.9877 105.867 80.0035 106.027 79.9128 106.135L73.6142 113.721C73.5653 113.783 73.4934 113.813 73.4214 113.813Z" fill="#003392"/>
<path d="M73.4235 113.814C73.3228 113.814 73.2278 113.753 73.1875 113.654L65.9478 95.2807C65.8959 95.1498 65.9593 95.0044 66.0902 94.9526C66.2154 94.9008 66.3665 94.9641 66.4183 95.0951L73.658 113.469C73.7099 113.6 73.6465 113.745 73.5156 113.797C73.4868 113.808 73.4551 113.814 73.4235 113.814Z" fill="#003392"/>
<path d="M66.183 95.4424C66.0448 95.4424 65.9311 95.3316 65.9297 95.1934C65.9283 95.0538 66.0391 94.9387 66.1787 94.9358L76.095 94.7617C76.2547 94.7689 76.3497 94.8711 76.3526 95.0107C76.354 95.1503 76.2432 95.2654 76.1036 95.2683L66.1873 95.4424C66.1844 95.4424 66.183 95.4424 66.183 95.4424Z" fill="#003392"/>
<path d="M79.7185 106.227C79.612 106.227 79.5127 106.159 79.4767 106.053L75.8561 95.0919C75.813 94.9595 75.8864 94.8156 76.0187 94.7724C76.1511 94.7264 76.295 94.8012 76.3396 94.9336L79.9602 105.895C80.0034 106.027 79.93 106.171 79.7976 106.214C79.7717 106.224 79.7444 106.227 79.7185 106.227Z" fill="#003392"/>
<path d="M79.7197 106.227C79.665 106.227 79.6089 106.21 79.5614 106.172L66.0245 95.3855C65.9152 95.2991 65.8979 95.1394 65.9857 95.03C66.072 94.9207 66.2303 94.902 66.3411 94.9912L79.878 105.778C79.9874 105.864 80.0047 106.024 79.9169 106.134C79.868 106.195 79.7946 106.227 79.7197 106.227Z" fill="#003392"/>
<path d="M78.6761 116.214C78.5912 116.214 78.5063 116.171 78.4588 116.092L65.9652 95.3182C65.8947 95.1988 65.9321 95.0419 66.0515 94.9714C66.1724 94.9009 66.3278 94.9369 66.3998 95.0577L78.8934 115.831C78.9639 115.951 78.9265 116.108 78.8071 116.178C78.7639 116.203 78.7207 116.214 78.6761 116.214Z" fill="#003392"/>
<path d="M78.6753 116.214C78.6393 116.214 78.6048 116.207 78.5703 116.191L73.3164 113.791C73.1898 113.732 73.1322 113.582 73.1912 113.455C73.2488 113.329 73.4042 113.273 73.5251 113.33L78.7789 115.731C78.9056 115.79 78.9631 115.939 78.9041 116.066C78.8624 116.159 78.7703 116.214 78.6753 116.214Z" fill="#003392"/>
<path d="M73.4202 113.814C73.295 113.814 73.1885 113.724 73.1684 113.598L68.6081 82.0378C68.588 81.8996 68.6858 81.7701 68.8239 81.7514C68.9607 81.7284 69.0887 81.8262 69.1103 81.9644L73.6706 113.525C73.6907 113.663 73.5929 113.793 73.4547 113.811C73.4432 113.813 73.4317 113.814 73.4202 113.814Z" fill="#003392"/>
<path d="M76.8658 87.4797C76.8183 87.4797 76.7709 87.4668 76.7277 87.438L68.7238 82.2115C68.6073 82.1352 68.5742 81.9784 68.6504 81.8618C68.7238 81.7467 68.8792 81.7107 69.0001 81.7884L77.004 87.0149C77.1205 87.0912 77.1536 87.2481 77.0774 87.3646C77.0299 87.4395 76.9493 87.4797 76.8658 87.4797Z" fill="#003392"/>
<path d="M76.0967 95.2677C76.0895 95.2677 76.0809 95.2677 76.0708 95.2663C75.9326 95.2519 75.8319 95.1281 75.8449 94.99L76.6119 87.2034C76.6234 87.0725 76.7342 86.9746 76.8637 86.9746C76.8709 86.9746 76.8795 86.9746 76.8896 86.976C77.0277 86.9904 77.1285 87.1142 77.1155 87.2523L76.3485 95.0389C76.3356 95.1698 76.2248 95.2677 76.0967 95.2677Z" fill="#003392"/>
<path d="M78.6734 116.214C78.5468 116.214 78.4374 116.12 78.4216 115.991L75.8457 95.0428C75.8285 94.9046 75.9263 94.778 76.0659 94.7607C76.2227 94.7492 76.3307 94.8427 76.3479 94.9809L78.9238 115.929C78.9411 116.067 78.8432 116.194 78.7036 116.211C78.6921 116.214 78.6835 116.214 78.6734 116.214Z" fill="#003392"/>
<path d="M76.0994 95.2681C76.0577 95.2681 76.0188 95.258 75.9786 95.2379L64.8434 89.2256C64.7211 89.1594 64.675 89.0054 64.7412 88.8831C64.8103 88.7608 64.9614 88.7176 65.0851 88.781L76.2203 94.7932C76.3426 94.8594 76.3887 95.0134 76.3225 95.1357C76.275 95.2191 76.1887 95.2681 76.0994 95.2681Z" fill="#003392"/>
<path d="M64.9635 89.2555C64.9218 89.2555 64.8786 89.2454 64.8412 89.2238C64.7189 89.1562 64.6757 89.0008 64.7419 88.8785L68.6388 81.8762C68.7078 81.7539 68.8661 81.7078 68.9827 81.7783C69.105 81.846 69.1482 82.0014 69.082 82.1237L65.1851 89.126C65.1362 89.208 65.0513 89.2555 64.9635 89.2555Z" fill="#003392"/>
<path d="M68.8595 82.2524C68.7818 82.2524 68.707 82.2164 68.6552 82.1502C68.5717 82.038 68.5962 81.8797 68.707 81.7962L79.0075 74.1075C79.1198 74.0269 79.2781 74.0471 79.363 74.1593C79.4464 74.2716 79.422 74.4299 79.3112 74.5133L69.0106 82.202C68.966 82.2351 68.9128 82.2524 68.8595 82.2524Z" fill="#003392"/>
<path d="M96.5161 86.1911C96.4672 86.1911 96.4197 86.1767 96.3751 86.1479L79.019 74.5206C78.9024 74.4429 78.8708 74.2846 78.9499 74.1695C79.0247 74.0515 79.1873 74.0227 79.2996 74.099L96.6557 85.7263C96.7722 85.804 96.8039 85.9623 96.7247 86.0774C96.6787 86.1522 96.5981 86.1911 96.5161 86.1911Z" fill="#003392"/>
<path d="M96.5169 86.1924C96.5054 86.1924 96.4939 86.191 96.481 86.191L80.9021 84.0267C80.7639 84.0065 80.6661 83.8799 80.6862 83.7403C80.7064 83.6007 80.833 83.5129 80.9726 83.5244L96.5529 85.6887C96.6911 85.7089 96.7889 85.8355 96.7688 85.9751C96.7501 86.1003 96.6421 86.1924 96.5169 86.1924Z" fill="#003392"/>
<path d="M76.8633 87.4801C76.7928 87.4801 76.7208 87.4499 76.669 87.3909C76.5798 87.2844 76.5913 87.1232 76.6992 87.034L80.7702 83.5818C80.8767 83.4925 81.0379 83.5055 81.1286 83.6105C81.2178 83.717 81.2063 83.8782 81.0983 83.9674L77.0273 87.4196C76.9799 87.4614 76.9209 87.4801 76.8633 87.4801Z" fill="#003392"/>
<path d="M76.8658 87.4804C76.8514 87.4804 76.8356 87.4789 76.8226 87.476C76.6845 87.4516 76.5938 87.3192 76.6169 87.1825L78.9121 74.2658C78.9351 74.1291 79.0646 74.0269 79.2042 74.0615C79.3424 74.0859 79.433 74.2183 79.41 74.355L77.1148 87.2717C77.0932 87.3955 76.9867 87.4804 76.8658 87.4804Z" fill="#003392"/>
<path d="M66.1821 95.4423C66.1361 95.4423 66.0886 95.4308 66.0483 95.4034C65.9303 95.33 65.8943 95.1746 65.9677 95.0552L78.9477 74.1778C79.0226 74.0598 79.1765 74.0181 79.2974 74.0972C79.4154 74.1706 79.4514 74.326 79.378 74.4455L66.398 95.3228C66.3476 95.3991 66.267 95.4423 66.1821 95.4423Z" fill="#003392"/>
<path d="M66.1818 95.4419C66.0638 95.4419 65.9559 95.3584 65.9328 95.2375L64.7154 89.0512C64.6895 88.9144 64.7787 88.7806 64.9154 88.7547C65.0694 88.7245 65.186 88.818 65.2133 88.9547L66.4307 95.1411C66.4566 95.2778 66.3674 95.4116 66.2307 95.4375C66.2134 95.439 66.1976 95.4419 66.1818 95.4419Z" fill="#003392"/>
<path d="M64.9618 89.2551C64.8654 89.2551 64.7719 89.199 64.7301 89.1026L60.0533 78.3977C59.9958 78.2696 60.0548 78.1214 60.1843 78.0638C60.3066 78.0091 60.4591 78.0652 60.5167 78.1948L65.1935 88.8997C65.2511 89.0277 65.1921 89.176 65.0626 89.2335C65.0309 89.2479 64.9949 89.2551 64.9618 89.2551Z" fill="#003392"/>
<path d="M60.2838 78.5505C60.2479 78.5505 60.2148 78.5433 60.1817 78.5289C60.0536 78.4714 59.996 78.3217 60.0536 78.1951L62.6079 72.4692C62.6654 72.3383 62.8151 72.2836 62.9417 72.3411C63.0698 72.3987 63.1273 72.5484 63.0698 72.675L60.5155 78.4009C60.4738 78.4944 60.3802 78.5505 60.2838 78.5505Z" fill="#003392"/>
<path d="M62.8429 72.823C62.7681 72.823 62.6933 72.7899 62.6429 72.7237C62.5566 72.6129 62.5782 72.4532 62.689 72.3683L75.0775 62.8348C75.1869 62.7484 75.3466 62.7686 75.4315 62.8808C75.5179 62.9916 75.4963 63.1513 75.3855 63.2362L62.9969 72.7698C62.9523 72.8072 62.8962 72.823 62.8429 72.823Z" fill="#003392"/>
<path d="M75.2298 63.2901C75.0917 63.2901 74.978 63.1778 74.9766 63.0397C74.9751 62.9001 75.0874 62.785 75.2255 62.7835L91.9715 62.585H91.9758C92.1139 62.585 92.2276 62.6972 92.229 62.8354C92.2305 62.9749 92.1182 63.0901 91.9801 63.0915L75.2342 63.2901C75.2313 63.2901 75.2298 63.2901 75.2298 63.2901Z" fill="#003392"/>
<path d="M110.421 68.0556C110.4 68.0556 110.378 68.0527 110.357 68.0469L91.9112 63.0823C91.7745 63.0463 91.6953 62.9068 91.7313 62.7715C91.7702 62.6377 91.9112 62.5585 92.0421 62.5931L110.488 67.5577C110.624 67.5937 110.703 67.7332 110.667 67.8685C110.634 67.9822 110.534 68.0556 110.421 68.0556Z" fill="#003392"/>
<path d="M96.5151 86.1923C96.4619 86.1923 96.4057 86.175 96.3611 86.1405C96.2503 86.0556 96.2287 85.8958 96.3136 85.785L110.219 67.649C110.305 67.5367 110.464 67.5152 110.574 67.6029C110.685 67.6878 110.707 67.8476 110.622 67.9584L96.7166 86.0944C96.6662 86.1592 96.5914 86.1923 96.5151 86.1923Z" fill="#003392"/>
<path d="M96.5162 86.1923C96.3982 86.1923 96.2903 86.1088 96.2673 85.9879L91.7271 62.8872C91.7012 62.7505 91.7905 62.6167 91.9272 62.5908C92.0768 62.5635 92.1977 62.6541 92.225 62.7908L96.7652 85.8915C96.7911 86.0282 96.7018 86.162 96.5651 86.1879C96.5479 86.1908 96.532 86.1923 96.5162 86.1923Z" fill="#003392"/>
<path d="M79.1601 74.5649C79.0911 74.5649 79.022 74.5361 78.9716 74.4814C78.8766 74.3764 78.8867 74.2181 78.9918 74.1231L91.8077 62.6497C91.9084 62.5562 92.0725 62.5648 92.1631 62.6699C92.2581 62.7749 92.248 62.9332 92.143 63.0282L79.327 74.5016C79.281 74.5433 79.2191 74.5649 79.1601 74.5649Z" fill="#003392"/>
<path d="M79.1611 74.5652C79.0561 74.5652 78.9596 74.5004 78.9222 74.3954L74.9908 63.1206C74.9448 62.9897 75.0138 62.8443 75.1477 62.7983C75.2815 62.7551 75.4225 62.8213 75.47 62.9551L79.4014 74.2299C79.4475 74.3608 79.3784 74.5062 79.2446 74.5522C79.2158 74.5594 79.1884 74.5652 79.1611 74.5652Z" fill="#003392"/>
<path d="M120.809 68.9263C120.803 68.9263 120.795 68.9263 120.788 68.9249L110.396 68.0543C110.258 68.0428 110.155 67.9205 110.165 67.7809C110.176 67.6427 110.27 67.5291 110.44 67.5492L120.831 68.4198C120.969 68.4313 121.073 68.5536 121.062 68.6932C121.051 68.827 120.94 68.9263 120.809 68.9263Z" fill="#003392"/>
<path d="M120.815 68.9263C120.756 68.9263 120.697 68.9062 120.65 68.863C120.543 68.7709 120.533 68.6112 120.627 68.5061L126.82 61.4434C126.909 61.3383 127.072 61.3283 127.176 61.4204C127.282 61.5125 127.292 61.6722 127.199 61.7772L121.005 68.84C120.956 68.8961 120.887 68.9263 120.815 68.9263Z" fill="#003392"/>
<path d="M127.006 61.864C126.877 61.864 126.767 61.7661 126.754 61.6352L125.415 47.5586C125.401 47.419 125.505 47.2967 125.643 47.2823C125.777 47.2593 125.906 47.3701 125.918 47.5111L127.256 61.5877C127.27 61.7273 127.167 61.8496 127.029 61.864C127.021 61.864 127.013 61.864 127.006 61.864Z" fill="#003392"/>
<path d="M125.667 47.7869C125.631 47.7869 125.594 47.7797 125.561 47.7639L116.443 43.4843C116.316 43.4253 116.262 43.2742 116.321 43.1475C116.383 43.0223 116.534 42.9691 116.657 43.0252L125.775 47.3049C125.902 47.3639 125.956 47.515 125.897 47.6416C125.853 47.7337 125.761 47.7869 125.667 47.7869Z" fill="#003392"/>
<path d="M116.549 43.5066C116.516 43.5066 116.48 43.4994 116.447 43.485C116.319 43.4288 116.262 43.2777 116.319 43.1511L119.626 35.7042C119.681 35.5775 119.83 35.5156 119.96 35.5761C120.088 35.6322 120.146 35.7833 120.088 35.9099L116.781 43.3569C116.739 43.4504 116.647 43.5066 116.549 43.5066Z" fill="#003392"/>
<path d="M119.858 36.0617C119.759 36.0617 119.666 36.0027 119.625 35.9077L115.988 27.2951C115.935 27.1656 115.994 27.0174 116.122 26.9627C116.25 26.9095 116.398 26.9699 116.455 27.0966L120.091 35.7091C120.144 35.8386 120.085 35.9868 119.957 36.0415C119.925 36.0545 119.891 36.0617 119.858 36.0617Z" fill="#003392"/>
<path d="M106.034 31.0398C105.929 31.0398 105.833 30.9751 105.796 30.8715C105.749 30.7405 105.819 30.5952 105.95 30.5491L116.136 26.9588C116.279 26.9098 116.413 26.9818 116.46 27.1127C116.506 27.2437 116.437 27.389 116.306 27.4351L106.119 31.0255C106.089 31.0355 106.062 31.0398 106.034 31.0398Z" fill="#003392"/>
<path d="M106.035 31.0405C105.917 31.0405 105.81 30.957 105.787 30.8361L102.809 15.7062C102.783 15.5695 102.872 15.4357 103.009 15.4098C103.159 15.3839 103.28 15.4717 103.307 15.6098L106.284 30.7397C106.31 30.8764 106.221 31.0103 106.084 31.0362C106.067 31.039 106.051 31.0405 106.035 31.0405Z" fill="#003392"/>
<path d="M91.7688 30.1342C91.7141 30.1342 91.658 30.1169 91.6105 30.0795C91.5011 29.9932 91.4838 29.8334 91.5716 29.7241L102.861 15.4993C102.946 15.39 103.105 15.3712 103.216 15.4576C103.326 15.5439 103.343 15.7037 103.255 15.813L91.9659 30.0378C91.917 30.1025 91.845 30.1342 91.7688 30.1342Z" fill="#003392"/>
<path d="M91.7665 30.1347C91.6326 30.1347 91.5218 30.0311 91.5132 29.8958L90.2972 8.30184C90.29 8.16225 90.3965 8.04281 90.5361 8.03418C90.667 8.04425 90.7951 8.13347 90.8038 8.27306L92.0197 29.8671C92.0284 30.0066 91.9204 30.1261 91.7809 30.1347C91.7765 30.1347 91.7708 30.1347 91.7665 30.1347Z" fill="#003392"/>
<path d="M86.3002 18.4888C86.2671 18.4888 86.2325 18.4817 86.2009 18.4687C86.0728 18.414 86.0124 18.2644 86.067 18.1363L90.3165 8.18831C90.3712 8.06024 90.5237 8.00268 90.6489 8.05592C90.777 8.1106 90.8374 8.26026 90.7827 8.38834L86.5333 18.3363C86.493 18.4327 86.3995 18.4888 86.3002 18.4888Z" fill="#003392"/>
<path d="M80.5894 28.4928C80.5462 28.4928 80.5045 28.4813 80.4642 28.4597C80.3419 28.3906 80.3001 28.2366 80.3692 28.1143L86.0793 18.1102C86.1469 17.9879 86.3052 17.9462 86.4232 18.0167C86.5455 18.0858 86.5872 18.2397 86.5182 18.3621L80.8081 28.3662C80.7635 28.4482 80.6757 28.4928 80.5894 28.4928Z" fill="#003392"/>
<path d="M86.2996 18.4883C86.2046 18.4883 86.1154 18.4365 86.0722 18.3444L78.4123 2.3914C78.3504 2.26477 78.4051 2.11367 78.5303 2.05323C78.6483 1.99567 78.8051 2.0446 78.867 2.17123L86.5269 18.1257C86.5888 18.2523 86.5341 18.4034 86.4089 18.4639C86.3744 18.4811 86.337 18.4883 86.2996 18.4883Z" fill="#003392"/>
<path d="M90.5497 8.54044C90.5123 8.54044 90.472 8.5318 90.4345 8.5131L78.5252 2.50661C78.4 2.44329 78.3511 2.29075 78.4144 2.167C78.4763 2.0418 78.6259 1.99576 78.754 2.05476L90.6633 8.06124C90.7885 8.12456 90.8375 8.2771 90.7742 8.40085C90.7324 8.49007 90.6432 8.54044 90.5497 8.54044Z" fill="#003392"/>
<path d="M103.054 15.9098C103.011 15.9098 102.965 15.8983 102.926 15.8753L90.4212 8.50602C90.3003 8.43551 90.2614 8.28009 90.3319 8.15922C90.401 8.03978 90.5593 7.99805 90.6773 8.06856L103.182 15.4378C103.303 15.5083 103.342 15.6637 103.272 15.7846C103.224 15.8652 103.142 15.9098 103.054 15.9098Z" fill="#003392"/>
<path d="M116.223 27.4499C116.164 27.4499 116.105 27.4297 116.057 27.388L102.892 15.8485C102.785 15.7549 102.775 15.5967 102.869 15.4902C102.958 15.3866 103.121 15.3765 103.224 15.4671L116.39 27.0067C116.496 27.1002 116.506 27.2585 116.413 27.365C116.364 27.4197 116.293 27.4499 116.223 27.4499Z" fill="#003392"/>
<path d="M125.667 47.7868C125.574 47.7868 125.486 47.735 125.44 47.6458L119.628 35.9192C119.566 35.794 119.618 35.6415 119.743 35.5796C119.869 35.5206 120.019 35.5695 120.082 35.6933L125.895 47.4199C125.957 47.5451 125.905 47.6976 125.78 47.7595C125.744 47.7782 125.705 47.7868 125.667 47.7868Z" fill="#003392"/>
<path d="M64.1992 3.5444C64.0668 3.5444 63.956 3.44222 63.946 3.30839C63.9359 3.16881 64.0424 3.04793 64.182 3.03786L78.6226 2.0291C78.7852 2.01183 78.883 2.12408 78.8931 2.26366C78.9032 2.40325 78.7967 2.52413 78.6571 2.5342L64.2165 3.54296C64.2108 3.54439 64.205 3.5444 64.1992 3.5444Z" fill="#003392"/>
<path d="M64.1996 3.54362C64.1924 3.54362 64.1824 3.54362 64.1737 3.54218L50.29 2.11611C50.1519 2.10172 50.0483 1.97652 50.0641 1.83838C50.0785 1.69879 50.2109 1.58942 50.3404 1.61245L64.2241 3.03852C64.3622 3.05291 64.4659 3.17811 64.45 3.31625C64.4385 3.4472 64.3277 3.54362 64.1996 3.54362Z" fill="#003392"/>
<path d="M29.2598 7.23217C29.1447 7.23217 29.0425 7.15446 29.0151 7.0379C28.982 6.90263 29.0641 6.76592 29.2008 6.73283L50.2523 1.61853C50.3861 1.58256 50.5257 1.6689 50.5573 1.80561C50.5904 1.94087 50.5084 2.07758 50.3717 2.11068L29.3202 7.22497C29.3001 7.22929 29.2799 7.23217 29.2598 7.23217Z" fill="#003392"/>
<path d="M19.1743 13.2729C19.0894 13.2729 19.0045 13.2298 18.9571 13.1492C18.8865 13.0297 18.9254 12.8743 19.0434 12.8024L29.1353 6.76134C29.2562 6.68795 29.4101 6.72825 29.4835 6.84912C29.554 6.96856 29.5152 7.12398 29.3972 7.19593L19.3053 13.237C19.2636 13.26 19.2175 13.2729 19.1743 13.2729Z" fill="#003392"/>
<path d="M12.6286 21.6046C12.5739 21.6046 12.5178 21.5873 12.4717 21.5499C12.3609 21.4635 12.3436 21.3052 12.4286 21.1944L18.9704 12.8639C19.0596 12.7531 19.2193 12.7344 19.3258 12.8208C19.4366 12.9071 19.4539 13.0654 19.369 13.1762L12.8272 21.5067C12.7768 21.57 12.7034 21.6046 12.6286 21.6046Z" fill="#003392"/>
<path d="M11.7614 34.813C11.7557 34.813 11.7499 34.813 11.7456 34.8116C11.6046 34.8029 11.501 34.6821 11.5082 34.5425L12.3788 21.3337C12.3888 21.1998 12.4997 21.0977 12.632 21.0977C12.6378 21.0977 12.6436 21.0977 12.6479 21.0991C12.7889 21.1077 12.8925 21.2286 12.8853 21.3682L12.0147 34.577C12.0046 34.7094 11.8938 34.813 11.7614 34.813Z" fill="#003392"/>
<path d="M3.23736 42.2737C3.16685 42.2737 3.09633 42.2434 3.04741 42.1873C2.95387 42.0808 2.96682 41.9211 3.07043 41.829L11.5952 34.3691C11.7003 34.277 11.8586 34.2885 11.9507 34.3921C12.0442 34.4986 12.0312 34.6583 11.9276 34.7504L3.40285 42.2103C3.35536 42.2521 3.29636 42.2737 3.23736 42.2737Z" fill="#003392"/>
<path d="M14.2669 53.6164C14.2021 53.6164 14.1345 53.5906 14.0856 53.5387L3.05545 42.1949C2.95904 42.0956 2.96048 41.9345 3.06121 41.8366C3.16338 41.7416 3.32167 41.7431 3.41952 41.8424L14.4496 53.1862C14.5461 53.2855 14.5446 53.4466 14.4439 53.5445C14.3935 53.592 14.3302 53.6164 14.2669 53.6164Z" fill="#003392"/>
<path d="M19.0113 60.8359C18.9278 60.8359 18.8487 60.7956 18.7997 60.7222L14.0495 53.5026C13.9718 53.386 14.0063 53.2292 14.1229 53.1515C14.2395 53.0752 14.3963 53.1083 14.4726 53.2234L19.2228 60.443C19.3005 60.5596 19.266 60.7164 19.1494 60.7941C19.1091 60.8215 19.0588 60.8359 19.0113 60.8359Z" fill="#003392"/>
<path d="M19.0114 60.8367C18.879 60.8367 18.7682 60.7345 18.7582 60.6007C18.751 60.4611 18.8546 60.3402 18.9942 60.3316L27.7218 59.7474C27.8902 59.733 27.9823 59.8438 27.9924 59.9833C27.9996 60.1229 27.896 60.2438 27.7564 60.2524L19.0287 60.8367C19.0229 60.8367 19.0172 60.8367 19.0114 60.8367Z" fill="#003392"/>
<path d="M39.4855 60.4781H39.4812L27.7373 60.2522C27.5963 60.2493 27.4855 60.1342 27.4883 59.9946C27.4898 59.8564 27.6035 59.7471 27.7416 59.7471H27.7459L39.4898 59.973C39.6308 59.9759 39.7416 60.091 39.7388 60.2306C39.7373 60.3687 39.6251 60.4781 39.4855 60.4781Z" fill="#003392"/>
<path d="M48.1239 72.2321C48.0462 72.2321 47.97 72.1961 47.9196 72.1299L39.284 60.3759C39.2006 60.2637 39.225 60.104 39.3373 60.0219C39.4495 59.937 39.6078 59.9629 39.6913 60.0752L48.3268 71.8291C48.4103 71.9414 48.3858 72.1011 48.2736 72.1831C48.229 72.2162 48.1758 72.2321 48.1239 72.2321Z" fill="#003392"/>
<path d="M60.2866 78.5507C60.2477 78.5507 60.2074 78.5421 60.17 78.522L48.0045 72.2032C47.8793 72.1384 47.8318 71.9859 47.8951 71.8621C47.9628 71.7384 48.1168 71.6895 48.2376 71.7542L60.4032 78.073C60.5283 78.1377 60.5758 78.2903 60.5125 78.414C60.4665 78.5018 60.3772 78.5507 60.2866 78.5507Z" fill="#003392"/>
<path d="M60.2897 78.5508C60.1616 78.5508 60.0508 78.4544 60.0378 78.3235L58.3139 61.2883C58.2995 61.1487 58.4002 61.025 58.5398 61.0106C58.6679 60.989 58.8031 61.0969 58.8161 61.2365L60.54 78.2717C60.5544 78.4113 60.4537 78.535 60.3141 78.5494C60.3069 78.5508 60.2968 78.5508 60.2897 78.5508Z" fill="#003392"/>
<path d="M58.5639 61.5155C58.5366 61.5155 58.5092 61.5112 58.4805 61.5011L49.1196 58.2648C48.9872 58.2187 48.9181 58.0748 48.9628 57.9424C49.0088 57.81 49.1541 57.7395 49.2851 57.7856L58.646 61.0219C58.7783 61.068 58.8474 61.2119 58.8028 61.3443C58.7668 61.4508 58.6675 61.5155 58.5639 61.5155Z" fill="#003392"/>
<path d="M39.488 60.4781C39.3714 60.4781 39.2678 60.3975 39.2405 60.281C39.2103 60.1442 39.2952 60.009 39.4319 59.9773L49.1467 57.7785C49.2849 57.7483 49.4173 57.8346 49.4489 57.9699C49.4791 58.1066 49.3942 58.2419 49.2575 58.2735L39.5427 60.4723C39.5268 60.4767 39.5067 60.4781 39.488 60.4781Z" fill="#003392"/>
<path d="M39.4865 60.4784C39.4246 60.4784 39.3642 60.4568 39.3138 60.4122L30.9876 52.7681C30.8854 52.6731 30.8782 52.5134 30.9732 52.4097C31.0682 52.309 31.2265 52.2989 31.3315 52.3939L39.6577 60.038C39.7599 60.133 39.7671 60.2927 39.6721 60.3963C39.6232 60.451 39.557 60.4784 39.4865 60.4784Z" fill="#003392"/>
<path d="M27.7447 60.2525C27.7088 60.2525 27.6742 60.2453 27.6383 60.2295C27.5116 60.1705 27.4569 60.0194 27.5159 59.8927L30.9322 52.4746C30.9912 52.3465 31.1394 52.2932 31.2689 52.3494C31.3955 52.4084 31.4502 52.5595 31.3912 52.6861L27.975 60.1043C27.9318 60.1978 27.8383 60.2525 27.7447 60.2525Z" fill="#003392"/>
<path d="M27.7464 60.2518C27.709 60.2518 27.6716 60.2446 27.6342 60.2259L14.1563 53.5906C14.0311 53.5287 13.9807 53.3776 14.0411 53.251C14.103 53.1258 14.2512 53.0754 14.3807 53.1359L27.8586 59.7712C27.9838 59.8331 28.0342 59.9842 27.9738 60.1108C27.9292 60.2 27.8385 60.2518 27.7464 60.2518Z" fill="#003392"/>
<path d="M14.2697 53.6171C14.1733 53.6171 14.0812 53.5624 14.038 53.4675C13.9804 53.3394 14.038 53.1912 14.1646 53.1336L33.5468 44.4002C33.672 44.3412 33.8217 44.3987 33.8836 44.5268C33.9411 44.6549 33.8836 44.8031 33.7569 44.8606L14.3747 53.5941C14.3402 53.6099 14.3042 53.6171 14.2697 53.6171Z" fill="#003392"/>
<path d="M33.6499 44.8811C33.5606 44.8811 33.4757 44.8351 33.4283 44.7516L28.4535 35.8915C28.3859 35.7692 28.4305 35.6152 28.55 35.5476C28.6752 35.48 28.8263 35.5231 28.8953 35.644L33.87 44.5041C33.9377 44.6264 33.8931 44.7804 33.7736 44.848C33.7348 44.871 33.6916 44.8811 33.6499 44.8811Z" fill="#003392"/>
<path d="M116.549 43.5069C116.479 43.5069 116.405 43.4767 116.355 43.4163L105.837 30.9485C105.748 30.8421 105.759 30.6809 105.867 30.5917C105.974 30.5053 106.136 30.514 106.226 30.6219L116.743 43.0896C116.833 43.1961 116.821 43.3573 116.713 43.4465C116.667 43.4882 116.607 43.5069 116.549 43.5069Z" fill="#003392"/>
<path d="M105.539 42.4258C105.534 42.4258 105.531 42.4258 105.527 42.4258C105.389 42.4201 105.28 42.3006 105.285 42.1625L105.78 30.7769C105.786 30.6359 105.898 30.5452 106.045 30.5352C106.183 30.5409 106.293 30.6604 106.287 30.7985L105.792 42.1841C105.786 42.3208 105.672 42.4258 105.539 42.4258Z" fill="#003392"/>
<path d="M116.55 43.5067C116.542 43.5067 116.534 43.5067 116.524 43.5052L105.512 42.4231C105.374 42.4087 105.273 42.2849 105.286 42.1468C105.298 42.0158 105.409 41.918 105.538 41.918C105.545 41.918 105.554 41.918 105.564 41.9194L116.575 43.0016C116.714 43.0159 116.814 43.1397 116.801 43.2778C116.79 43.4088 116.679 43.5067 116.55 43.5067Z" fill="#003392"/>
<path d="M116.552 43.508C116.413 43.508 116.3 43.3986 116.298 43.2605L115.969 27.2009C115.967 27.0614 116.078 26.9462 116.216 26.9434H116.222C116.36 26.9434 116.474 27.0527 116.475 27.1909L116.805 43.2504C116.806 43.39 116.695 43.5051 116.557 43.508C116.557 43.508 116.554 43.508 116.552 43.508Z" fill="#003392"/>
<path d="M91.7691 30.135C91.641 30.135 91.5317 30.0386 91.5173 29.9091C91.5014 29.7695 91.6022 29.6458 91.7403 29.6299L116.195 26.9433C116.348 26.9174 116.46 27.0267 116.474 27.1663C116.49 27.3059 116.389 27.4297 116.251 27.4455L91.7979 30.1336C91.7878 30.135 91.7792 30.135 91.7691 30.135Z" fill="#003392"/>
<path d="M87.113 36.0622C87.0583 36.0622 87.0021 36.0449 86.9561 36.0075C86.8453 35.9212 86.828 35.7629 86.9129 35.6521L91.5653 29.7262C91.6545 29.6168 91.8142 29.5981 91.9207 29.683C92.0315 29.7693 92.0488 29.9276 91.9639 30.0384L87.3115 35.9643C87.2612 36.0276 87.1878 36.0622 87.113 36.0622Z" fill="#003392"/>
<path d="M87.1125 36.062C87.0003 36.062 86.8995 35.9872 86.8679 35.8735C86.8319 35.7382 86.9139 35.6001 87.0477 35.5641L105.968 30.5419C106.1 30.503 106.241 30.5851 106.279 30.7203C106.315 30.8556 106.233 30.9937 106.099 31.0297L87.1787 36.0519C87.1557 36.0577 87.1341 36.062 87.1125 36.062Z" fill="#003392"/>
<path d="M89.6 45.1611C89.5295 45.1611 89.4576 45.1308 89.4086 45.0733C89.318 44.9668 89.3295 44.8071 89.436 44.7164L105.868 30.5952C105.97 30.5032 106.133 30.5147 106.224 30.6226C106.314 30.7291 106.303 30.8888 106.196 30.9795L89.7641 45.0992C89.7166 45.1409 89.659 45.1611 89.6 45.1611Z" fill="#003392"/>
<path d="M89.5999 45.1607C89.4891 45.1607 89.387 45.0859 89.3567 44.9751L86.8687 35.8761C86.8312 35.7409 86.9104 35.6013 87.0442 35.5653C87.1852 35.5293 87.3191 35.6085 87.3551 35.7423L89.8431 44.8413C89.8805 44.9765 89.8014 45.1161 89.6676 45.1521C89.6431 45.1564 89.6215 45.1607 89.5999 45.1607Z" fill="#003392"/>
<path d="M89.601 45.1608C89.5966 45.1608 89.5938 45.1608 89.5895 45.1608L72.6795 44.3952C72.5413 44.388 72.432 44.27 72.4377 44.1304C72.4449 43.9908 72.5399 43.9016 72.7025 43.8887L89.6125 44.6542C89.7506 44.6614 89.86 44.7794 89.8542 44.919C89.847 45.0543 89.7348 45.1608 89.601 45.1608Z" fill="#003392"/>
<path d="M94.3542 54.883C94.2607 54.883 94.17 54.8312 94.1269 54.7406L89.3738 45.0171C89.3119 44.8919 89.3637 44.7408 89.4903 44.6789C89.6155 44.6199 89.7695 44.6703 89.8285 44.7955L94.5816 54.5189C94.6435 54.6441 94.5917 54.7952 94.465 54.8571C94.429 54.8758 94.3916 54.883 94.3542 54.883Z" fill="#003392"/>
<path d="M94.3537 54.8833C94.2918 54.8833 94.2328 54.8618 94.1839 54.8186C94.0817 54.725 94.0731 54.5639 94.1666 54.4603L105.351 42.0026C105.446 41.899 105.605 41.8933 105.709 41.9825C105.811 42.076 105.82 42.2372 105.726 42.3408L94.5422 54.7984C94.4919 54.8546 94.4228 54.8833 94.3537 54.8833Z" fill="#003392"/>
<path d="M89.6001 45.1611C89.4793 45.1611 89.3728 45.0748 89.3512 44.951C89.3282 44.8129 89.4203 44.6833 89.557 44.6589L105.494 41.9247C105.647 41.8902 105.762 41.9924 105.786 42.1319C105.809 42.2701 105.717 42.3996 105.581 42.4241L89.6433 45.1582C89.6275 45.1597 89.6131 45.1611 89.6001 45.1611Z" fill="#003392"/>
<path d="M81.7695 56.7607C81.7205 56.7607 81.6702 56.7464 81.627 56.7176C81.5119 56.6399 81.4802 56.4816 81.5594 56.3664L89.3877 44.765C89.4682 44.6499 89.6265 44.6197 89.7402 44.6974C89.8553 44.7751 89.887 44.9334 89.8079 45.0485L81.9796 56.6499C81.9292 56.7219 81.85 56.7607 81.7695 56.7607Z" fill="#003392"/>
<path d="M81.7701 56.7612C81.6478 56.7612 81.5385 56.6706 81.5183 56.5454C81.4982 56.4072 81.5931 56.2777 81.7313 56.2576L94.3127 54.3796C94.4551 54.3595 94.5803 54.4545 94.6019 54.5926C94.6221 54.7308 94.5271 54.8603 94.389 54.8804L81.8076 56.7584C81.7932 56.7612 81.7817 56.7612 81.7701 56.7612Z" fill="#003392"/>
<path d="M102.192 56.5805C102.174 56.5805 102.156 56.579 102.138 56.5747L94.3014 54.8767C94.1646 54.8465 94.0783 54.7126 94.1071 54.5759C94.1373 54.4392 94.2798 54.3557 94.4078 54.3817L102.245 56.0797C102.381 56.1099 102.468 56.2437 102.439 56.3805C102.413 56.4985 102.308 56.5805 102.192 56.5805Z" fill="#003392"/>
<path d="M102.19 56.5803C102.122 56.5803 102.058 56.5544 102.009 56.5026C101.912 56.4018 101.914 56.2421 102.014 56.1442L105.857 52.456C105.959 52.361 106.12 52.3639 106.215 52.4632C106.311 52.5639 106.31 52.7237 106.209 52.8215L102.367 56.5098C102.317 56.5558 102.253 56.5803 102.19 56.5803Z" fill="#003392"/>
<path d="M106.034 52.892C105.9 52.892 105.786 52.7855 105.78 52.6502L105.285 42.1827C105.28 42.0432 105.386 41.9252 105.527 41.918C105.685 41.9208 105.785 42.0201 105.792 42.1597L106.287 52.6272C106.293 52.7668 106.186 52.8848 106.045 52.892C106.041 52.892 106.037 52.892 106.034 52.892Z" fill="#003392"/>
<path d="M127.006 61.8641C126.944 61.8641 126.885 61.8425 126.836 61.7994L105.368 42.361C105.265 42.2675 105.257 42.1063 105.35 42.0027C105.445 41.8977 105.605 41.8933 105.709 41.9854L127.177 61.4238C127.28 61.5173 127.288 61.6785 127.195 61.7821C127.144 61.8353 127.075 61.8641 127.006 61.8641Z" fill="#003392"/>
<path d="M127.008 61.8633C126.975 61.8633 126.941 61.8561 126.909 61.8432L105.935 52.8723C105.807 52.8176 105.747 52.6679 105.801 52.5399C105.859 52.4118 106.012 52.3542 106.134 52.4075L127.108 61.3784C127.236 61.433 127.296 61.5827 127.241 61.7108C127.2 61.8058 127.108 61.8633 127.008 61.8633Z" fill="#003392"/>
<path d="M106.034 52.8931C105.998 52.8931 105.961 52.8859 105.925 52.87L89.4923 45.1382C89.3671 45.0777 89.3124 44.9281 89.3714 44.8014C89.4333 44.6748 89.5815 44.6244 89.7096 44.6791L106.142 52.411C106.267 52.4714 106.322 52.6211 106.263 52.7477C106.22 52.8398 106.129 52.8931 106.034 52.8931Z" fill="#003392"/>
<path d="M89.6014 45.1607C89.5654 45.1607 89.5308 45.1535 89.4963 45.1377C89.3682 45.0787 89.3121 44.9276 89.3711 44.8009L102.825 15.5499C102.882 15.4233 103.038 15.37 103.158 15.4247C103.286 15.4837 103.343 15.6348 103.284 15.7614L89.8302 45.0125C89.7884 45.106 89.6963 45.1607 89.6014 45.1607Z" fill="#003392"/>
<path d="M86.3014 18.4885C86.1791 18.4885 86.0697 18.3979 86.0496 18.2741C86.0294 18.136 86.1244 18.0064 86.2625 17.9849L103.017 15.4047C103.155 15.386 103.285 15.481 103.306 15.6162C103.327 15.7544 103.232 15.8839 103.093 15.9055L86.3388 18.4856C86.3273 18.4885 86.3129 18.4885 86.3014 18.4885Z" fill="#003392"/>
<path d="M87.1134 36.0612C86.9796 36.0612 86.8659 35.9547 86.8602 35.8195L86.0471 18.2475C86.0413 18.108 86.1478 17.99 86.2889 17.9828C86.4457 17.9756 86.5464 18.0849 86.5536 18.2245L87.3667 35.7964C87.3724 35.936 87.266 36.054 87.1249 36.0612C87.1206 36.0612 87.1177 36.0612 87.1134 36.0612Z" fill="#003392"/>
<path d="M87.1115 36.0615C87.041 36.0615 86.9691 36.0312 86.9201 35.9737L80.397 28.4058C80.3064 28.2993 80.3179 28.1396 80.4229 28.049C80.5294 27.9554 80.6877 27.9684 80.7813 28.0763L87.3044 35.6441C87.395 35.7506 87.3835 35.9104 87.2785 36.001C87.2281 36.0413 87.1705 36.0615 87.1115 36.0615Z" fill="#003392"/>
<path d="M91.7659 30.1341C91.7544 30.1341 91.7429 30.1327 91.7285 30.1313L80.5516 28.4893C80.4135 28.4692 80.3185 28.3411 80.3386 28.203C80.3588 28.0648 80.4696 27.9583 80.6279 27.99L91.8048 29.6319C91.9429 29.6521 92.0379 29.7801 92.0178 29.9183C91.9976 30.0435 91.8911 30.1341 91.7659 30.1341Z" fill="#003392"/>
<path d="M61.6597 33.6843C61.5331 33.6843 61.4237 33.5893 61.4079 33.4612C61.3921 33.3231 61.4914 33.1965 61.6295 33.1806L91.7353 29.6306C91.8735 29.6147 91.9987 29.714 92.016 29.8522C92.0318 29.9903 91.9325 30.117 91.7943 30.1328L61.6885 33.6829C61.6799 33.6829 61.6698 33.6843 61.6597 33.6843Z" fill="#003392"/>
<path d="M72.6888 44.3949C72.6254 44.3949 72.5621 44.3719 72.5132 44.3244L61.4831 33.6138C61.3824 33.5159 61.3809 33.3562 61.4773 33.2554C61.5766 33.1561 61.7364 33.1547 61.8356 33.2497L72.8658 43.9603C72.9665 44.0582 72.9679 44.2179 72.8715 44.3187C72.8212 44.369 72.755 44.3949 72.6888 44.3949Z" fill="#003392"/>
<path d="M64.4411 51.8761C64.372 51.8761 64.3029 51.8487 64.2526 51.7926C64.159 51.689 64.1677 51.5293 64.2698 51.4343L72.5169 43.9528C72.6219 43.8593 72.7802 43.865 72.8752 43.9701C72.9688 44.0737 72.9601 44.2334 72.8579 44.3284L64.6109 51.8099C64.562 51.8545 64.5015 51.8761 64.4411 51.8761Z" fill="#003392"/>
<path d="M64.4424 51.8766C64.3201 51.8766 64.2107 51.7859 64.1906 51.6622L61.4089 33.47C61.3888 33.3319 61.4838 33.2023 61.6219 33.1808C61.7629 33.1592 61.8896 33.2556 61.9112 33.3923L64.6928 51.5844C64.7129 51.7226 64.618 51.8521 64.4798 51.8737C64.4683 51.8751 64.4539 51.8766 64.4424 51.8766Z" fill="#003392"/>
<path d="M61.6595 33.6853C61.6221 33.6853 61.5846 33.6781 61.5487 33.6594C61.4235 33.599 61.3702 33.4479 61.4321 33.3213L69.8043 16.0558C69.8662 15.9307 70.0202 15.8788 70.1425 15.9393C70.2677 15.9997 70.321 16.1508 70.2591 16.2775L61.8868 33.5429C61.8437 33.6321 61.753 33.6853 61.6595 33.6853Z" fill="#003392"/>
<path d="M80.5909 28.4926C80.5204 28.4926 80.4499 28.4624 80.401 28.4063L69.8443 16.3329C69.7507 16.2264 69.7637 16.0667 69.8673 15.9746C69.9724 15.8825 70.1306 15.894 70.2227 15.9976L80.7794 28.071C80.873 28.1775 80.86 28.3372 80.7564 28.4293C80.7089 28.4725 80.6499 28.4926 80.5909 28.4926Z" fill="#003392"/>
<path d="M80.5876 28.4931C80.556 28.4931 80.5229 28.4873 80.4912 28.4744L54.0621 17.6356C53.934 17.5824 53.8721 17.4356 53.9254 17.3061C53.9772 17.178 54.1254 17.1133 54.2549 17.1679L80.684 28.0067C80.8121 28.0599 80.874 28.2067 80.8207 28.3362C80.7804 28.4341 80.6855 28.4931 80.5876 28.4931Z" fill="#003392"/>
<path d="M61.659 33.6851C61.564 33.6851 61.4734 33.6304 61.4302 33.5383L53.93 17.5076C53.871 17.381 53.9257 17.2313 54.0523 17.1709C54.1732 17.1104 54.3272 17.1665 54.3891 17.2932L61.8892 33.3239C61.9482 33.4505 61.8936 33.6002 61.7669 33.6606C61.7324 33.6765 61.695 33.6851 61.659 33.6851Z" fill="#003392"/>
<path d="M54.1558 39.9416C54.0824 39.9416 54.0119 39.9114 53.9615 39.8509C53.8709 39.743 53.8867 39.5833 53.9932 39.494L61.4934 33.2372C61.5999 33.1479 61.7625 33.1623 61.8488 33.2703C61.9395 33.3782 61.9236 33.5379 61.8171 33.6271L54.317 39.884C54.2709 39.9229 54.2133 39.9416 54.1558 39.9416Z" fill="#003392"/>
<path d="M54.1571 39.942C54.0981 39.942 54.0391 39.9218 53.9916 39.8801L44.2667 31.4589C44.1617 31.3668 44.1501 31.2071 44.2408 31.1006C44.3358 30.9941 44.4941 30.9855 44.5991 31.0747L54.324 39.4959C54.4291 39.5879 54.4406 39.7477 54.3499 39.8542C54.2981 39.9117 54.2291 39.942 54.1571 39.942Z" fill="#003392"/>
<path d="M44.432 31.521C44.3802 31.521 44.3313 31.5066 44.2881 31.4749C44.173 31.3943 44.1457 31.236 44.2248 31.1224L53.9497 17.2559C54.0289 17.1408 54.1886 17.1149 54.3023 17.194C54.4174 17.2746 54.4448 17.4329 54.3656 17.5466L44.6407 31.413C44.5903 31.4836 44.5112 31.521 44.432 31.521Z" fill="#003392"/>
<path d="M54.1599 17.6541C54.0592 17.6541 53.9642 17.5936 53.9239 17.4943L51.6978 11.8577C51.6459 11.7282 51.7093 11.5814 51.8402 11.5296C51.9625 11.4806 52.1151 11.5411 52.1683 11.672L54.3945 17.3087C54.4463 17.4382 54.383 17.585 54.252 17.6368C54.2232 17.6483 54.1916 17.6541 54.1599 17.6541Z" fill="#003392"/>
<path d="M42.5586 19.9683C42.4881 19.9683 42.4161 19.9381 42.3643 19.8791C42.2751 19.7726 42.2866 19.6114 42.3946 19.5222L51.7712 11.5716C51.8806 11.481 52.0389 11.4953 52.1296 11.6004C52.2188 11.7069 52.2073 11.868 52.0993 11.9573L42.7227 19.9079C42.6752 19.9496 42.6162 19.9683 42.5586 19.9683Z" fill="#003392"/>
<path d="M44.435 31.5202C44.3127 31.5202 44.2062 31.4325 44.1861 31.3073L42.3082 19.7562C42.2851 19.6181 42.3787 19.4886 42.5154 19.4655C42.6478 19.4382 42.7845 19.536 42.8061 19.6756L44.684 31.2281C44.707 31.3663 44.6135 31.4958 44.4768 31.5188C44.4638 31.5188 44.4494 31.5202 44.435 31.5202Z" fill="#003392"/>
<path d="M44.4321 31.5202C44.4019 31.5202 44.3702 31.5159 44.3415 31.5029C44.2105 31.4526 44.1457 31.3058 44.1976 31.1763L51.6963 11.6732C51.7438 11.5422 51.8906 11.4775 52.023 11.5278C52.1539 11.5782 52.2187 11.725 52.1669 11.8545L44.6681 31.3576C44.6307 31.4583 44.5343 31.5202 44.4321 31.5202Z" fill="#003392"/>
<path d="M51.932 12.0176C51.8515 12.0176 51.7737 11.9788 51.7248 11.9082C51.6457 11.7931 51.673 11.6363 51.7881 11.5557L64.0544 3.0827C64.1695 3.005 64.3278 3.03378 64.4069 3.14746C64.4861 3.26258 64.4587 3.41943 64.3436 3.50002L52.0774 11.973C52.0328 12.0032 51.981 12.0176 51.932 12.0176Z" fill="#003392"/>
<path d="M70.0332 16.4194C69.9368 16.4194 69.8447 16.3647 69.8015 16.2712L63.9677 3.39626C63.9101 3.26818 63.9677 3.11852 64.0943 3.06096C64.2166 3.00052 64.3706 3.05952 64.431 3.18616L70.2648 16.0611C70.3224 16.1892 70.2648 16.3388 70.1382 16.3964C70.1051 16.4122 70.0691 16.4194 70.0332 16.4194Z" fill="#003392"/>
<path d="M70.035 16.4188C69.989 16.4188 69.9444 16.4073 69.9026 16.3814C69.7818 16.3065 69.7458 16.1511 69.8192 16.0317L78.4274 2.14799C78.4979 2.02855 78.6562 1.99113 78.7757 2.06596C78.8965 2.14079 78.9325 2.2962 78.8591 2.41564L70.2509 16.2994C70.2034 16.3756 70.1199 16.4188 70.035 16.4188Z" fill="#003392"/>
<path d="M54.1758 17.6535C54.0449 17.6535 53.9341 17.5528 53.9225 17.4204C53.9125 17.2808 54.0175 17.16 54.1557 17.1485L70.0108 15.9138C70.1547 15.8835 70.2699 16.0073 70.2843 16.1455C70.2943 16.285 70.1893 16.4059 70.0511 16.4174L54.196 17.6521C54.1888 17.6536 54.1816 17.6535 54.1758 17.6535Z" fill="#003392"/>
<path d="M86.3032 18.489C86.2931 18.489 86.2816 18.4876 86.2715 18.4876L70.0034 16.4169C69.8652 16.3996 69.7659 16.2729 69.7832 16.1348C69.799 15.9967 69.9257 15.906 70.0652 15.9146L86.3334 17.9854C86.4716 18.0027 86.5709 18.1293 86.5536 18.2674C86.5392 18.3969 86.4298 18.489 86.3032 18.489Z" fill="#003392"/>
<path d="M49.2025 58.2791C49.1809 58.2791 49.1593 58.2762 49.1378 58.2705C49.0011 58.2345 48.9219 58.0949 48.9579 57.9596L53.9153 39.6207C53.9527 39.4854 54.0909 39.4063 54.2262 39.4423C54.3629 39.4782 54.442 39.6178 54.406 39.7531L49.4486 58.092C49.4169 58.2057 49.3133 58.2791 49.2025 58.2791Z" fill="#003392"/>
<path d="M41.0349 46.7078C40.9442 46.7078 40.855 46.6575 40.8089 46.5697C40.7456 46.4459 40.7946 46.2934 40.9183 46.2287L54.0422 39.4609C54.1645 39.399 54.3185 39.4451 54.3847 39.5703C54.448 39.694 54.3991 39.8466 54.2753 39.9113L41.1514 46.6791C41.114 46.6992 41.0752 46.7078 41.0349 46.7078Z" fill="#003392"/>
<path d="M41.0334 46.7079C41.0162 46.7079 40.996 46.7064 40.9787 46.7021C40.842 46.6719 40.7571 46.5366 40.7874 46.3999L44.1863 31.211C44.2165 31.0772 44.3547 30.9894 44.4885 31.0196C44.6252 31.0499 44.7101 31.1851 44.6799 31.3218L41.2809 46.5107C41.255 46.6287 41.15 46.7079 41.0334 46.7079Z" fill="#003392"/>
<path d="M33.6477 44.882C33.593 44.882 33.5354 44.8633 33.4894 44.8259C33.38 44.7381 33.3627 44.5784 33.4505 44.4704L44.2375 31.1077C44.3267 30.9983 44.4864 30.9825 44.5929 31.0702C44.7023 31.158 44.7195 31.3178 44.6317 31.4257L33.8448 44.7885C33.793 44.8503 33.7196 44.882 33.6477 44.882Z" fill="#003392"/>
<path d="M31.1583 52.8341C31.1324 52.8341 31.1093 52.8297 31.0834 52.8225C30.9496 52.7808 30.8762 52.6383 30.9179 52.506L33.406 44.5554C33.4477 44.4201 33.5873 44.3453 33.7226 44.3899C33.8564 44.4316 33.9298 44.5741 33.8881 44.7064L31.4 52.6571C31.3655 52.765 31.2676 52.8341 31.1583 52.8341Z" fill="#003392"/>
<path d="M31.16 52.8334C31.0751 52.8334 30.9917 52.7902 30.9442 52.714C30.8708 52.596 30.9068 52.4391 31.0276 52.3643L40.9022 46.2398C41.0231 46.1678 41.1785 46.2052 41.2505 46.3218C41.3239 46.4398 41.2879 46.5967 41.167 46.6715L31.2924 52.796C31.2507 52.8219 31.2061 52.8334 31.16 52.8334Z" fill="#003392"/>
<path d="M49.2005 58.2788C49.1214 58.2788 49.0422 58.2413 48.9933 58.1723L40.8269 46.6011C40.7477 46.486 40.7736 46.3277 40.8887 46.2485C41.001 46.1665 41.1593 46.1938 41.2427 46.309L49.4092 57.8802C49.4883 57.9953 49.4624 58.1536 49.3473 58.2327C49.3027 58.2644 49.2523 58.2788 49.2005 58.2788Z" fill="#003392"/>
<path d="M49.2019 58.2792C49.1026 58.2792 49.0105 58.2202 48.9688 58.1238C48.9155 57.9958 48.9745 57.8475 49.1026 57.7928L64.3419 51.3906C64.4786 51.3374 64.6182 51.3964 64.6743 51.5259C64.7275 51.654 64.6685 51.8022 64.5405 51.8569L49.3012 58.2591C49.2681 58.2735 49.2364 58.2792 49.2019 58.2792Z" fill="#003392"/>
<path d="M58.5656 61.5153C58.5195 61.5153 58.4749 61.5038 58.4332 61.4794C58.3152 61.406 58.2763 61.2506 58.3497 61.1311L64.2282 51.4925C64.3015 51.3731 64.4555 51.3357 64.5764 51.4076C64.6944 51.481 64.7332 51.6364 64.6599 51.7559L58.7814 61.3945C58.7325 61.4722 58.6505 61.5153 58.5656 61.5153Z" fill="#003392"/>
<path d="M75.2313 63.2898C75.2241 63.2898 75.214 63.2898 75.204 63.2884L58.5372 61.5141C58.399 61.4997 58.2983 61.373 58.3141 61.2349C58.3285 61.0968 58.4163 60.9903 58.5933 61.009L75.2601 62.7833C75.3982 62.7977 75.499 62.9243 75.4831 63.0625C75.4687 63.1934 75.3594 63.2898 75.2313 63.2898Z" fill="#003392"/>
<path d="M75.2287 63.2896C75.1035 63.2896 74.9956 63.1975 74.9769 63.0695L72.4356 44.1751C72.4183 44.0369 72.5147 43.9089 72.6529 43.8901C72.7795 43.8758 72.9177 43.9679 72.9378 44.1074L75.4791 63.0018C75.4964 63.14 75.4 63.2681 75.2618 63.2868C75.2503 63.2882 75.2402 63.2896 75.2287 63.2896Z" fill="#003392"/>
<path d="M81.7732 56.7607C81.6955 56.7607 81.6192 56.7248 81.5688 56.6586L72.4871 44.2916C72.4037 44.1794 72.4281 44.0196 72.5404 43.9376C72.6526 43.8513 72.8109 43.8786 72.8944 43.9908L81.9761 56.3578C82.0595 56.4701 82.0351 56.6298 81.9228 56.7118C81.8768 56.7449 81.8235 56.7607 81.7732 56.7607Z" fill="#003392"/>
<path d="M58.5659 61.5157C58.4479 61.5157 58.3429 61.4337 58.3184 61.3128C58.2882 61.1761 58.3774 61.0423 58.5141 61.0149L81.7227 56.2618C81.8709 56.2345 81.9932 56.3223 82.0206 56.459C82.0508 56.5957 81.9616 56.7295 81.8249 56.7568L58.6163 61.5099C58.599 61.5128 58.5817 61.5157 58.5659 61.5157Z" fill="#003392"/>
<path d="M91.9759 63.0906C91.9528 63.0906 91.9284 63.0877 91.9053 63.0805C91.7715 63.0417 91.6938 62.9021 91.7327 62.7668L94.1099 54.5586C94.1488 54.4248 94.2941 54.35 94.4236 54.3859C94.5575 54.4248 94.6352 54.5644 94.5963 54.6997L92.2191 62.9079C92.1874 63.0187 92.0867 63.0906 91.9759 63.0906Z" fill="#003392"/>
<path d="M110.423 68.0559C110.366 68.0559 110.311 68.0372 110.263 67.9983L94.1953 54.8255C94.0859 54.7363 94.0701 54.578 94.1593 54.4701C94.2485 54.3607 94.4068 54.3463 94.5147 54.4341L110.583 67.6069C110.692 67.6961 110.708 67.8544 110.619 67.9624C110.57 68.0242 110.497 68.0559 110.423 68.0559Z" fill="#003392"/>
<path d="M110.421 68.0558C110.342 68.0558 110.265 68.0198 110.216 67.9493L101.984 56.4731C101.904 56.3594 101.93 56.2011 102.042 56.1205C102.157 56.0385 102.312 56.0629 102.396 56.1795L110.627 67.6557C110.708 67.7694 110.682 67.9277 110.57 68.0083C110.525 68.0399 110.473 68.0558 110.421 68.0558Z" fill="#003392"/>
<path d="M96.5151 86.1912C96.4993 86.1912 96.4835 86.1898 96.4677 86.1869C96.3295 86.161 96.2403 86.0286 96.2662 85.8919L101.939 56.2797C101.965 56.1415 102.101 56.0379 102.235 56.0797C102.373 56.1056 102.463 56.2379 102.437 56.3747L96.7641 85.9855C96.7411 86.1078 96.6346 86.1912 96.5151 86.1912Z" fill="#003392"/>
<path d="M96.5134 86.1914C96.4199 86.1914 96.3321 86.1396 96.2875 86.0519L81.5432 56.6224C81.4799 56.4972 81.5289 56.3446 81.6555 56.2828C81.7807 56.2238 81.9347 56.2727 81.9937 56.395L96.7393 85.8259C96.8027 85.9511 96.7537 86.1037 96.6271 86.1655C96.5911 86.1828 96.5508 86.1914 96.5134 86.1914Z" fill="#003392"/>
<path d="M68.8614 82.2533C68.7779 82.2533 68.6974 82.2115 68.6484 82.1367L62.629 72.7082C62.5542 72.5902 62.5901 72.4334 62.7067 72.3585C62.8218 72.2866 62.9801 72.3183 63.0564 72.4363L69.0758 81.8647C69.1507 81.9827 69.1147 82.1396 68.9981 82.2144C68.9564 82.2403 68.9089 82.2533 68.8614 82.2533Z" fill="#003392"/>
<path d="M79.1618 74.5649C79.1547 74.5649 79.1446 74.5649 79.1345 74.5634L62.8145 72.8236C62.6764 72.8092 62.5757 72.6826 62.5915 72.5445C62.6059 72.4063 62.6965 72.2998 62.8707 72.3185L79.1906 74.0583C79.3288 74.0727 79.4295 74.1993 79.4137 74.3375C79.3993 74.4684 79.2899 74.5649 79.1618 74.5649Z" fill="#003392"/>
<path d="M62.8418 72.8238C62.7396 72.8238 62.6447 72.762 62.6044 72.6612L58.3247 61.3519C58.2758 61.221 58.342 61.0757 58.4729 61.0253C58.6053 60.9735 58.7478 61.0411 58.7996 61.1721L63.0792 72.4814C63.1282 72.6123 63.062 72.7577 62.931 72.808C62.9008 72.8195 62.872 72.8238 62.8418 72.8238Z" fill="#003392"/>
<path d="M48.1211 72.2323C48.1154 72.2323 48.1067 72.2323 48.101 72.2308C47.9628 72.2193 47.8578 72.0985 47.8679 71.9589L48.9471 58.0061C48.9586 57.8679 49.1011 57.7514 49.2205 57.7744C49.3587 57.7859 49.4637 57.9068 49.4537 58.0464L48.3744 71.9992C48.3629 72.1316 48.2521 72.2323 48.1211 72.2323Z" fill="#003392"/>
<path d="M60.2869 78.5498C60.1977 78.5498 60.1113 78.5023 60.0653 78.4189L48.9805 58.1473C48.9128 58.025 48.9589 57.871 49.0812 57.8034C49.1992 57.7386 49.3561 57.7818 49.4237 57.9041L60.5085 78.1757C60.5761 78.298 60.5301 78.452 60.4078 78.5196C60.3689 78.5397 60.3286 78.5498 60.2869 78.5498Z" fill="#003392"/>
<path d="M44.4336 31.5211C44.4178 31.5211 44.4005 31.5197 44.3818 31.5168L33.5258 29.2906C33.3891 29.2618 33.2999 29.128 33.3301 28.9927C33.356 28.856 33.474 28.7697 33.628 28.7956L44.484 31.0218C44.6207 31.0505 44.7099 31.1844 44.6797 31.3196C44.6581 31.4391 44.5531 31.5211 44.4336 31.5211Z" fill="#003392"/>
<path d="M33.6466 44.8816C33.5084 44.8816 33.3933 44.7694 33.3933 44.6298L33.3242 29.0408C33.3242 28.9013 33.4365 28.7876 33.576 28.7861C33.7142 28.7861 33.8308 28.8984 33.8308 29.038L33.8998 44.6269C33.8998 44.7665 33.7876 44.8802 33.648 44.8816C33.6466 44.8816 33.6466 44.8816 33.6466 44.8816Z" fill="#003392"/>
<path d="M33.5782 29.2944C33.5293 29.2944 33.4775 29.28 33.4343 29.2484L25.9874 24.029C25.8722 23.9484 25.8449 23.7902 25.924 23.6765C26.0032 23.5613 26.1615 23.534 26.2766 23.6146L33.7235 28.8339C33.8387 28.9145 33.866 29.0728 33.7869 29.1865C33.7351 29.257 33.6574 29.2944 33.5782 29.2944Z" fill="#003392"/>
<path d="M26.1313 24.075C26.0823 24.075 26.0305 24.0606 25.9874 24.0289C25.8722 23.9483 25.8449 23.7915 25.924 23.6763L35.6662 9.68759C35.7454 9.57103 35.9037 9.54369 36.0188 9.62428C36.1339 9.70486 36.1613 9.86172 36.0821 9.97684L26.3399 23.9656C26.2895 24.0375 26.2104 24.075 26.1313 24.075Z" fill="#003392"/>
<path d="M35.8728 10.0845C35.8397 10.0845 35.8052 10.0773 35.7721 10.0643L29.1612 7.21075C29.0331 7.15607 28.9727 7.00641 29.0288 6.87834C29.0864 6.74882 29.2303 6.69414 29.3627 6.74595L35.9736 9.59953C36.1016 9.65421 36.1621 9.80387 36.1059 9.93195C36.0642 10.0284 35.9692 10.0845 35.8728 10.0845Z" fill="#003392"/>
<path d="M33.61 29.3139C33.492 29.3139 33.384 29.2304 33.361 29.1095L29.0123 7.02771C28.9864 6.89101 29.0756 6.75718 29.2123 6.73128C29.3663 6.70106 29.4828 6.79459 29.5102 6.9313L33.8589 29.0131C33.8848 29.1498 33.7956 29.2837 33.6589 29.3096C33.6416 29.3124 33.6258 29.3139 33.61 29.3139Z" fill="#003392"/>
<path d="M33.6122 29.3138C33.5488 29.3138 33.4855 29.2908 33.438 29.2433C33.3359 29.1469 33.333 28.9857 33.4308 28.885L42.3744 19.5385C42.4708 19.4363 42.6334 19.4363 42.7298 19.5313C42.832 19.6277 42.8349 19.7889 42.737 19.8896L33.7935 29.2361C33.7445 29.2879 33.6798 29.3138 33.6122 29.3138Z" fill="#003392"/>
<path d="M42.5563 19.9682C42.4757 19.9682 42.3966 19.9293 42.3462 19.856L35.6648 9.97273C35.5857 9.85761 35.6173 9.69932 35.7325 9.62161C35.8476 9.5439 36.0059 9.57268 36.085 9.68924L42.7664 19.5725C42.8456 19.6876 42.8139 19.8459 42.6988 19.9236C42.6556 19.9552 42.6052 19.9682 42.5563 19.9682Z" fill="#003392"/>
<path d="M35.8743 10.0844C35.7851 10.0844 35.6987 10.0369 35.6527 9.9534C35.585 9.83108 35.6297 9.67711 35.752 9.60948L50.1926 1.6416C50.3149 1.57252 50.4689 1.61857 50.5365 1.74089C50.6041 1.86321 50.5595 2.01718 50.4372 2.08482L35.9966 10.0527C35.9577 10.0757 35.916 10.0844 35.8743 10.0844Z" fill="#003392"/>
<path d="M51.9324 12.0173C51.8101 12.0173 51.7036 11.9295 51.6834 11.8043L50.066 1.90383C50.043 1.76568 50.1365 1.63617 50.2732 1.61315C50.4056 1.593 50.5423 1.68366 50.5639 1.82324L52.1814 11.7237C52.2044 11.8619 52.1108 11.9914 51.9741 12.0144C51.9597 12.0159 51.9468 12.0173 51.9324 12.0173Z" fill="#003392"/>
<path d="M70.0312 16.4196C69.9794 16.4196 69.9291 16.4038 69.883 16.3707L50.167 2.06968C50.0547 1.98765 50.0288 1.82936 50.1094 1.71712C50.19 1.60343 50.3468 1.57609 50.4634 1.661L70.1795 15.962C70.2917 16.044 70.3176 16.2023 70.237 16.3146C70.1881 16.3822 70.1104 16.4196 70.0312 16.4196Z" fill="#003392"/>
<path d="M42.5582 19.968C42.5251 19.968 42.4906 19.9608 42.4575 19.9479C42.3294 19.8917 42.269 19.7435 42.3265 19.614L50.0858 1.76291C50.1404 1.63484 50.2901 1.57727 50.4182 1.63196C50.5463 1.68808 50.6067 1.8363 50.5491 1.96581L42.7899 19.8169C42.7482 19.9104 42.6546 19.968 42.5582 19.968Z" fill="#003392"/>
<path d="M42.5552 19.9677C42.5322 19.9677 42.5092 19.9649 42.4861 19.9577L19.102 13.2619C18.9682 13.223 18.889 13.0834 18.9279 12.9496C18.9667 12.8158 19.1077 12.7395 19.2401 12.7755L42.6243 19.4713C42.7581 19.5101 42.8373 19.6497 42.7984 19.7835C42.7667 19.8958 42.666 19.9677 42.5552 19.9677Z" fill="#003392"/>
<path d="M26.1314 24.075C26.0479 24.075 25.9673 24.0347 25.9184 23.9599L18.9578 13.1586C18.883 13.0406 18.9161 12.8837 19.0355 12.8089C19.1521 12.7341 19.309 12.7657 19.3852 12.8837L26.3458 23.6851C26.4206 23.8031 26.3875 23.9599 26.2681 24.0347C26.2263 24.0621 26.1789 24.075 26.1314 24.075Z" fill="#003392"/>
<path d="M11.7619 34.8138C11.6842 34.8138 11.6094 34.7793 11.5575 34.7117C11.4741 34.5994 11.4985 34.4411 11.6094 34.3577L25.9809 23.6197C26.0931 23.5391 26.2514 23.5578 26.3363 23.6715C26.4198 23.7837 26.3953 23.942 26.2845 24.0255L11.913 34.7635C11.8684 34.7966 11.8151 34.8138 11.7619 34.8138Z" fill="#003392"/>
<path d="M26.1303 24.0749C26.1145 24.0749 26.1001 24.0735 26.0843 24.0706L12.5833 21.5998C12.4452 21.5739 12.3545 21.4429 12.379 21.3048C12.402 21.1667 12.533 21.0731 12.674 21.1005L26.1749 23.5713C26.3131 23.5972 26.4037 23.7281 26.3793 23.8663C26.3577 23.99 26.2497 24.0749 26.1303 24.0749Z" fill="#003392"/>
<path d="M28.6694 36.0228C28.6075 36.0228 28.5485 36.0012 28.4996 35.958L12.4573 21.539C12.3552 21.4454 12.3465 21.2857 12.4401 21.1821C12.5351 21.0785 12.6933 21.0727 12.7984 21.1634L28.8406 35.5824C28.9428 35.676 28.9514 35.8357 28.8579 35.9393C28.809 35.994 28.7385 36.0228 28.6694 36.0228Z" fill="#003392"/>
<path d="M12.6285 21.6042C12.535 21.6042 12.4472 21.5524 12.4011 21.4632C12.3393 21.338 12.3911 21.1855 12.5163 21.1236L35.7608 9.60562C35.8875 9.54518 36.0371 9.59555 36.1004 9.7193C36.1623 9.8445 36.1105 9.99703 35.9853 10.0589L12.7407 21.5769C12.7062 21.5956 12.6659 21.6042 12.6285 21.6042Z" fill="#003392"/>
<path d="M11.7615 34.8127C11.7342 34.8127 11.7068 34.8084 11.6781 34.7983C11.5471 34.7523 11.4766 34.6084 11.5212 34.4774L18.9322 12.9381C18.9782 12.8057 19.1236 12.7338 19.2545 12.7813C19.3855 12.8273 19.456 12.9712 19.4114 13.1022L12.0004 34.6415C11.9644 34.7465 11.8651 34.8127 11.7615 34.8127Z" fill="#003392"/>
<path d="M3.23634 42.2735C3.12122 42.2735 3.01905 42.1958 2.99171 42.0806C2.95861 41.9454 3.04063 41.8072 3.1759 41.7741L28.6135 35.5244C28.7661 35.4957 28.8884 35.5748 28.9201 35.7101C28.9531 35.8453 28.8711 35.9835 28.7359 36.0166L3.29678 42.2663C3.27519 42.2706 3.25505 42.2735 3.23634 42.2735Z" fill="#003392"/>
<path d="M33.6508 44.881C33.6437 44.881 33.6365 44.881 33.6293 44.8796L3.21692 42.2706C3.07878 42.2591 2.97373 42.1368 2.98524 41.9972C2.99675 41.8576 3.12338 41.7526 3.26009 41.7669L33.6724 44.3773C33.8106 44.3888 33.9156 44.5112 33.9041 44.6507C33.8912 44.7817 33.7804 44.881 33.6508 44.881Z" fill="#003392"/>
<path d="M31.1622 52.834C31.132 52.834 31.1032 52.8297 31.073 52.8168L3.14871 42.2558C3.01776 42.2068 2.95156 42.0615 3.00049 41.9291C3.0523 41.7982 3.19476 41.7276 3.32715 41.7823L31.2514 52.3433C31.3824 52.3923 31.4486 52.5376 31.3996 52.67C31.3593 52.7722 31.2644 52.834 31.1622 52.834Z" fill="#003392"/>
<path d="M27.7446 60.2519C27.6611 60.2519 27.5791 60.2102 27.5316 60.1339L11.5469 34.6934C11.4721 34.5754 11.508 34.4185 11.626 34.3437C11.7426 34.2689 11.9009 34.3049 11.9743 34.4243L27.9575 59.8634C28.0324 59.9814 27.9964 60.1382 27.8784 60.213C27.8367 60.239 27.7892 60.2519 27.7446 60.2519Z" fill="#003392"/>
<path d="M27.7418 60.252C27.7375 60.252 27.736 60.252 27.7317 60.252C27.5907 60.2462 27.4827 60.1282 27.4885 59.9887L28.4181 35.7598C28.4239 35.6231 28.5347 35.5166 28.6714 35.5166C28.6757 35.5166 28.6771 35.5166 28.6815 35.5166C28.8225 35.5224 28.9304 35.6404 28.9246 35.7799L27.995 60.0088C27.9878 60.1455 27.877 60.252 27.7418 60.252Z" fill="#003392"/>
<path d="M19.0181 60.8359C18.9878 60.8359 18.9562 60.8301 18.9274 60.8186C18.7964 60.7668 18.7317 60.6215 18.7835 60.4905L28.4408 35.6774C28.4883 35.5479 28.6379 35.486 28.7674 35.5335C28.8984 35.5853 28.9631 35.7306 28.9113 35.8616L19.2541 60.6747C19.2166 60.774 19.1188 60.8359 19.0181 60.8359Z" fill="#003392"/>
<path d="M28.6744 36.0238C28.6226 36.0238 28.5694 36.0079 28.5248 35.9748C28.4125 35.8914 28.3881 35.7331 28.4715 35.6208L33.4117 28.9121C33.4923 28.7999 33.6534 28.774 33.7657 28.8589C33.8779 28.9423 33.9024 29.1006 33.8189 29.2129L28.8788 35.9216C28.8298 35.9878 28.7521 36.0238 28.6744 36.0238Z" fill="#003392"/>
<path d="M28.6746 36.023C28.5638 36.023 28.463 35.951 28.4314 35.8388C28.394 35.7049 28.4702 35.5653 28.6055 35.5265L44.3671 31.0238C44.5038 30.9849 44.642 31.0612 44.6794 31.1979C44.7168 31.3317 44.6405 31.4713 44.5053 31.5102L28.7436 36.0129C28.7206 36.0201 28.699 36.023 28.6746 36.023Z" fill="#003392"/>
<path d="M28.6698 36.0229C28.5532 36.0229 28.4482 35.9423 28.4223 35.8228L25.881 23.8746C25.8507 23.7379 25.9385 23.6041 26.0752 23.5753C26.2134 23.5451 26.3458 23.6329 26.376 23.7696L28.9173 35.7178C28.9475 35.8545 28.8597 35.9883 28.723 36.0171C28.7058 36.02 28.6885 36.0229 28.6698 36.0229Z" fill="#003392"/>
<path d="M64.4431 51.8775C64.4258 51.8775 64.4071 51.876 64.3884 51.8717L40.9826 46.7042C40.8459 46.674 40.761 46.5387 40.7913 46.402C40.8215 46.2653 40.9438 46.1789 41.0935 46.2092L64.4992 51.3767C64.6359 51.4069 64.7208 51.5422 64.6906 51.6789C64.6647 51.7969 64.5596 51.8775 64.4431 51.8775Z" fill="#003392"/>
<path d="M39.4864 60.4774C39.4764 60.4774 39.4692 60.4759 39.4591 60.4759C39.3181 60.4615 39.2202 60.3349 39.2361 60.1967L40.7844 46.4267C40.8003 46.2886 40.9312 46.195 41.0636 46.2037C41.2046 46.2181 41.3025 46.3447 41.2867 46.4828L39.7383 60.2529C39.7239 60.3809 39.6131 60.4774 39.4864 60.4774Z" fill="#003392"/>
<path d="M41.0319 46.7076C41.0118 46.7076 40.993 46.7062 40.97 46.7004L33.5821 44.8743C33.4482 44.8412 33.3648 44.7031 33.3979 44.5678C33.431 44.434 33.5605 44.3491 33.7044 44.3822L41.0923 46.2083C41.2262 46.2414 41.3096 46.3795 41.2765 46.5148C41.2492 46.6314 41.147 46.7076 41.0319 46.7076Z" fill="#003392"/>
<path d="M31.1596 52.8346C31.0229 52.8346 30.9107 52.7252 30.9064 52.5885C30.9021 52.4489 31.0129 52.3324 31.151 52.328L64.4328 51.3711C64.4371 51.3711 64.44 51.3711 64.44 51.3711C64.5767 51.3711 64.6889 51.4805 64.6932 51.6172C64.6975 51.7567 64.5867 51.8733 64.4486 51.8776L31.1683 52.8346C31.164 52.8346 31.1596 52.8346 31.1596 52.8346Z" fill="#003392"/>
<path d="M62.8437 72.8225C62.8164 72.8225 62.789 72.8182 62.7602 72.8081C62.6278 72.7621 62.5588 72.6182 62.6034 72.4858L72.4506 44.0564C72.4967 43.9255 72.642 43.8564 72.773 43.8996C72.9054 43.9456 72.9744 44.0895 72.9298 44.2219L63.0826 72.6513C63.048 72.7578 62.9487 72.8225 62.8437 72.8225Z" fill="#003392"/>
<path d="M61.6604 33.6846C61.6086 33.6846 61.5582 33.6688 61.5122 33.6371L42.4091 19.9203C42.2969 19.8383 42.271 19.6815 42.3516 19.5678C42.4322 19.4527 42.5905 19.4267 42.7056 19.5088L61.8086 33.2256C61.9209 33.3076 61.9468 33.4644 61.8662 33.5781C61.8173 33.6472 61.7396 33.6846 61.6604 33.6846Z" fill="#003392"/>
<path d="M61.6586 33.6848C61.6485 33.6848 61.637 33.6834 61.6269 33.6834L44.4018 31.5191C44.2637 31.5018 44.1644 31.3752 44.1816 31.2371C44.1989 31.0989 44.3255 30.9982 44.4637 31.0169L61.6888 33.1812C61.827 33.1984 61.9263 33.3251 61.909 33.4632C61.8946 33.5913 61.7852 33.6848 61.6586 33.6848Z" fill="#003392"/>
<path d="M87.1154 36.0623C87.1082 36.0623 87.0995 36.0623 87.0923 36.0608L61.6389 33.6836C61.5007 33.6706 61.3971 33.5469 61.4115 33.4073C61.423 33.2677 61.5554 33.1569 61.6863 33.1785L87.1398 35.5557C87.278 35.5687 87.3816 35.6925 87.3672 35.832C87.3542 35.963 87.2434 36.0623 87.1154 36.0623Z" fill="#003392"/>
<path d="M120.813 68.927C120.691 68.927 120.584 68.8392 120.564 68.7155L116.3 43.2965C116.277 43.1584 116.369 43.0289 116.508 43.0059C116.636 42.9742 116.775 43.0749 116.798 43.2131L121.062 68.632C121.085 68.7701 120.993 68.8997 120.855 68.9227C120.841 68.9256 120.828 68.927 120.813 68.927Z" fill="#003392"/>
<path d="M110.425 68.0565C110.405 68.0565 110.384 68.055 110.363 68.0493C110.227 68.0162 110.146 67.878 110.179 67.7428L116.307 43.1944C116.338 43.0592 116.482 42.9685 116.613 43.0102C116.75 43.0433 116.83 43.1815 116.797 43.3168L110.67 67.8651C110.643 67.9802 110.538 68.0565 110.425 68.0565Z" fill="#003392"/>
<path d="M110.425 68.0555C110.371 68.0555 110.318 68.0383 110.272 68.0052C110.161 67.9217 110.138 67.762 110.223 67.6497L125.468 47.3811C125.552 47.2688 125.711 47.2501 125.822 47.3307C125.933 47.4142 125.956 47.5739 125.871 47.6861L110.626 67.9548C110.577 68.021 110.502 68.0555 110.425 68.0555Z" fill="#003392"/>
<path d="M80.9395 84.0274C80.9007 84.0274 80.859 84.0188 80.8215 83.9972C80.6992 83.9324 80.6517 83.7799 80.7165 83.6561L91.7567 62.7198C91.8214 62.5975 91.974 62.5471 92.0992 62.6133C92.2215 62.6781 92.269 62.8306 92.2042 62.9543L81.1626 83.8921C81.1165 83.9785 81.0302 84.0274 80.9395 84.0274Z" fill="#003392"/>
<path d="M80.9402 84.0273C80.851 84.0273 80.7646 83.9798 80.7171 83.8949C80.6524 83.7726 80.697 83.6186 80.8193 83.5524L110.303 67.5807C110.421 67.5145 110.577 67.5576 110.647 67.6828C110.712 67.8051 110.668 67.9591 110.545 68.0253L81.0596 83.9971C81.0222 84.0172 80.9805 84.0273 80.9402 84.0273Z" fill="#003392"/>
<path d="M80.9354 84.0281C80.8145 84.0281 80.7094 83.9432 80.6864 83.8209L78.9107 74.3565C78.8848 74.2183 78.9754 74.0859 79.1121 74.0615C79.2431 74.0341 79.3812 74.1262 79.4086 74.2644L81.1843 83.7288C81.2102 83.8655 81.1196 83.9994 80.9829 84.0238C80.967 84.0267 80.9512 84.0281 80.9354 84.0281Z" fill="#003392"/>
<path d="M68.8622 82.2531C68.8363 82.2531 68.8089 82.2487 68.7816 82.2401C68.6492 82.1955 68.5773 82.0516 68.6233 81.9192L74.9924 62.9557C75.0356 62.8234 75.1709 62.75 75.3133 62.796C75.4457 62.8406 75.5177 62.9845 75.4716 63.1169L69.1025 82.0804C69.0651 82.1869 68.9672 82.2531 68.8622 82.2531Z" fill="#003392"/>
<path d="M48.1196 72.2315C48.0563 72.2315 47.9929 72.2085 47.944 72.1596C47.8433 72.0631 47.8418 71.902 47.9383 71.8012L58.3784 61.0848C58.4748 60.9884 58.636 60.9827 58.7367 61.0805C58.8374 61.1769 58.8389 61.3381 58.7425 61.4388L48.3023 72.1552C48.252 72.2056 48.1858 72.2315 48.1196 72.2315Z" fill="#003392"/>
<path d="M48.1213 72.2323C48.0148 72.2323 47.9155 72.1646 47.8796 72.0581C47.8364 71.9257 47.9098 71.7818 48.0422 71.7387L75.1505 62.7966C75.2844 62.7534 75.4268 62.8268 75.4714 62.9577C75.5146 63.0901 75.4412 63.234 75.3088 63.2772L48.2005 72.2193C48.1746 72.2279 48.1472 72.2323 48.1213 72.2323Z" fill="#003392"/>
<path d="M72.6909 44.3949C72.5628 44.3949 72.452 44.297 72.439 44.1661L69.7826 16.1886C69.7682 16.049 69.8718 15.9267 70.01 15.9123C70.1467 15.8936 70.2733 16.0015 70.2848 16.1411L72.9427 44.1171C72.9571 44.2567 72.8535 44.379 72.7153 44.3934C72.7067 44.3949 72.6995 44.3949 72.6909 44.3949Z" fill="#003392"/>
<path d="M72.6904 44.3955C72.653 44.3955 72.6127 44.3869 72.5781 44.3682C72.4529 44.3063 72.4026 44.1552 72.463 44.0286L80.3633 28.1259C80.428 28.0021 80.5834 27.9532 80.7029 28.0122C80.8281 28.0741 80.8784 28.2252 80.818 28.3518L72.9177 44.2545C72.8731 44.3437 72.7839 44.3955 72.6904 44.3955Z" fill="#003392"/>
<path d="M80.5892 28.4928C80.5 28.4928 80.4151 28.4468 80.3676 28.3633C80.3 28.241 80.3446 28.087 80.464 28.0194L102.929 15.4365C103.054 15.3646 103.203 15.4106 103.274 15.533C103.342 15.6553 103.297 15.8092 103.178 15.8769L80.713 28.4597C80.6741 28.4827 80.631 28.4928 80.5892 28.4928Z" fill="#003392"/>
<path d="M86.2997 18.4881C86.2508 18.4881 86.2004 18.4738 86.1572 18.445L64.0567 3.50071C63.9416 3.423 63.9099 3.26471 63.989 3.14959C64.0682 3.03159 64.2265 3.00425 64.3416 3.08195L86.4421 18.0262C86.5573 18.1039 86.5889 18.2622 86.5098 18.3773C86.4609 18.4507 86.3817 18.4881 86.2997 18.4881Z" fill="#003392"/>
<path d="M90.5487 8.54076C90.5328 8.54076 90.517 8.53932 90.5012 8.53644L64.1512 3.54014C64.0145 3.5128 63.9238 3.38041 63.9497 3.24371C63.9756 3.10556 64.108 3.01058 64.2462 3.04224L90.5961 8.03854C90.7329 8.06588 90.8235 8.19827 90.7976 8.33497C90.7746 8.45585 90.6681 8.54076 90.5487 8.54076Z" fill="#003392"/>
<path d="M52.0377 11.9452C52.0276 11.9452 52.0176 11.9438 52.0075 11.9438L35.8444 10.0845C35.7062 10.0687 35.6069 9.94351 35.6228 9.80536C35.6386 9.66434 35.7724 9.56361 35.9034 9.58232L52.0665 11.4415C52.2046 11.4574 52.3039 11.5826 52.2881 11.7207C52.2751 11.8502 52.1643 11.9452 52.0377 11.9452Z" fill="#003392"/>
<path d="M72.689 44.3949C72.6689 44.3949 72.6501 44.3934 72.63 44.3877L54.0997 39.9339C53.963 39.9008 53.8795 39.7655 53.914 39.6288C53.9471 39.4935 54.0896 39.4086 54.2191 39.4417L72.7494 43.8955C72.8861 43.9286 72.9696 44.0639 72.9351 44.2006C72.9063 44.3157 72.8041 44.3949 72.689 44.3949Z" fill="#003392"/>
<path d="M75.2291 63.2904C75.1614 63.2904 75.0952 63.2631 75.0449 63.2113L64.2565 51.7984C64.1601 51.6962 64.1659 51.5365 64.2666 51.4401C64.3688 51.3451 64.5299 51.348 64.6249 51.4501L75.4133 62.863C75.5097 62.9652 75.5039 63.1249 75.4032 63.2214C75.3543 63.2674 75.2924 63.2904 75.2291 63.2904Z" fill="#003392"/>
<path d="M81.7723 56.7616C81.6385 56.7616 81.5248 56.6551 81.519 56.5198L80.3362 28.2516C80.3304 28.1106 80.4383 27.994 80.5794 27.9883C80.5794 27.9883 80.5851 27.9883 80.5894 27.9883C80.7233 27.9883 80.8369 28.0948 80.8427 28.23L82.0241 56.4982C82.0299 56.6393 81.922 56.7558 81.7809 56.7616C81.7809 56.7616 81.7752 56.7616 81.7723 56.7616Z" fill="#003392"/>
<path d="M79.1632 74.5646C79.1517 74.5646 79.1402 74.5631 79.1258 74.5617C78.9877 74.5416 78.8927 74.4135 78.9129 74.2753L81.5232 56.4732C81.5434 56.335 81.6542 56.2372 81.8125 56.2602C81.9506 56.2803 82.0456 56.4084 82.0255 56.5466L79.4151 74.3487C79.3935 74.4725 79.287 74.5646 79.1632 74.5646Z" fill="#003392"/>
<path d="M64.4406 51.8762C64.3701 51.8762 64.2981 51.8459 64.2492 51.7884L53.9674 39.8531C53.8767 39.7466 53.8882 39.5869 53.9933 39.4962C54.0997 39.4027 54.2609 39.4156 54.3516 39.5236L64.6334 51.4588C64.7241 51.5653 64.7126 51.7251 64.6075 51.8157C64.5571 51.856 64.4996 51.8762 64.4406 51.8762Z" fill="#003392"/>
<path d="M54.1595 39.9416C54.0185 39.9416 53.9062 39.8279 53.9062 39.6883V17.4007C53.9062 17.2611 54.0185 17.1475 54.1595 17.1475C54.3005 17.1475 54.4128 17.2611 54.4128 17.4007V39.6883C54.4128 39.8279 54.3005 39.9416 54.1595 39.9416Z" fill="#003392"/>
<path d="M61.6602 33.684C61.6544 33.684 61.6458 33.684 61.6386 33.6826C61.5005 33.6711 61.3969 33.5487 61.4069 33.4092L63.9454 3.26879C63.9569 3.1364 64.0677 3.03711 64.1986 3.03711C64.2044 3.03711 64.213 3.03711 64.2202 3.03855C64.3584 3.05006 64.462 3.17238 64.4519 3.31196L61.9135 33.4523C61.9019 33.5833 61.7911 33.684 61.6602 33.684Z" fill="#003392"/>
<path d="M54.1576 17.6544C54.1259 17.6544 54.0928 17.6487 54.0612 17.6357L35.7769 10.0679C35.6489 10.0132 35.587 9.86643 35.6402 9.73691C35.692 9.60884 35.8374 9.5484 35.9698 9.59877L54.254 17.1666C54.3821 17.2213 54.4439 17.3681 54.3907 17.4976C54.3519 17.5954 54.2569 17.6544 54.1576 17.6544Z" fill="#003392"/>
<path d="M105.539 42.4254C105.48 42.4254 105.418 42.4052 105.37 42.3606L91.5975 30.0699C91.4924 29.9764 91.4823 29.8167 91.5759 29.713C91.6694 29.608 91.8291 29.5965 91.9342 29.6929L105.707 41.9836C105.812 42.0771 105.822 42.2369 105.727 42.3405C105.677 42.3966 105.608 42.4254 105.539 42.4254Z" fill="#003392"/>
<path d="M106.035 52.8929C105.966 52.8929 105.897 52.8642 105.845 52.808C105.752 52.7044 105.762 52.5447 105.867 52.4512L116.385 43.0658C116.486 42.9709 116.648 42.9824 116.743 43.086C116.837 43.1896 116.827 43.3493 116.722 43.4429L106.202 52.8282C106.155 52.8728 106.094 52.8929 106.035 52.8929Z" fill="#003392"/>
</g>
<defs>
<clipPath id="clip0_441_8879">
<rect width="129.512" height="118" fill="white"/>
</clipPath>
</defs>
</svg>
