<svg width="68" height="60" viewBox="0 0 68 60" fill="none" xmlns="http://www.w3.org/2000/svg">
<circle cx="37.998" cy="30" r="20" fill="white"/>
<path d="M3.16303 27.8151C2.76109 27.1443 3.2361 26.3215 4.01805 26.3342L14.8582 26.5097C15.6402 26.5224 16.1426 27.361 15.7626 28.0192L10.4945 36.1437C10.1145 36.8019 9.13708 36.7861 8.73514 36.1153L3.16303 27.8151Z" fill="white"/>
<mask id="path-3-inside-1_1335_894" fill="white">
<path d="M7.90234 30.0001C7.90234 22.857 10.4511 15.9483 15.0902 10.5167C19.7292 5.08503 26.1542 1.4869 33.2093 0.369472C40.2645 -0.747954 47.4868 0.688661 53.5773 4.42092C59.6678 8.15317 64.2267 13.9361 66.434 20.7296C68.6414 27.5231 68.3523 34.8813 65.6187 41.4806C62.8852 48.08 57.8866 53.4874 51.5221 56.7303C45.1575 59.9732 37.8447 60.8387 30.899 59.1712C23.9533 57.5037 17.8304 53.4126 13.6318 47.6337L16.0589 45.8703C19.8376 51.0713 25.3482 54.7533 31.5993 56.2541C37.8505 57.7549 44.432 56.9759 50.1601 54.0573C55.8882 51.1387 60.3869 46.272 62.8471 40.3326C65.3073 34.3932 65.5675 27.7708 63.5809 21.6567C61.5943 15.5425 57.4912 10.3379 52.0098 6.97884C46.5284 3.61981 40.0282 2.32685 33.6786 3.33254C27.329 4.33822 21.5465 7.57654 17.3714 12.465C13.1962 17.3535 10.9023 23.5713 10.9023 30.0001H7.90234Z"/>
</mask>
<path d="M7.90234 30.0001C7.90234 22.857 10.4511 15.9483 15.0902 10.5167C19.7292 5.08503 26.1542 1.4869 33.2093 0.369472C40.2645 -0.747954 47.4868 0.688661 53.5773 4.42092C59.6678 8.15317 64.2267 13.9361 66.434 20.7296C68.6414 27.5231 68.3523 34.8813 65.6187 41.4806C62.8852 48.08 57.8866 53.4874 51.5221 56.7303C45.1575 59.9732 37.8447 60.8387 30.899 59.1712C23.9533 57.5037 17.8304 53.4126 13.6318 47.6337L16.0589 45.8703C19.8376 51.0713 25.3482 54.7533 31.5993 56.2541C37.8505 57.7549 44.432 56.9759 50.1601 54.0573C55.8882 51.1387 60.3869 46.272 62.8471 40.3326C65.3073 34.3932 65.5675 27.7708 63.5809 21.6567C61.5943 15.5425 57.4912 10.3379 52.0098 6.97884C46.5284 3.61981 40.0282 2.32685 33.6786 3.33254C27.329 4.33822 21.5465 7.57654 17.3714 12.465C13.1962 17.3535 10.9023 23.5713 10.9023 30.0001H7.90234Z" stroke="white" stroke-width="6" mask="url(#path-3-inside-1_1335_894)"/>
</svg>
