<svg width="119" height="118" viewBox="0 0 119 118" fill="none" xmlns="http://www.w3.org/2000/svg">
<path d="M117.037 98.9762H108.692V69.7765C108.692 68.702 107.827 67.8171 106.776 67.8171C105.725 67.8171 104.86 68.702 104.86 69.7765V98.9762H15.4181V41.9039C15.4181 38.807 17.8905 36.2788 20.9193 36.2788H28.893C29.9438 36.2788 30.8092 35.394 30.8092 34.3196C30.8092 33.2452 29.9438 32.3604 28.893 32.3604H20.9193C15.7888 32.3604 11.6475 36.5949 11.6475 41.8408V98.9131H3.30289C2.25209 98.9131 1.38672 99.798 1.38672 100.872V108.457C1.38672 113.703 5.52812 117.937 10.6585 117.937H109.619C114.75 117.937 118.891 113.703 118.891 108.457V100.872C118.953 99.8611 118.088 98.9762 117.037 98.9762ZM115.121 108.457C115.121 111.554 112.648 114.082 109.619 114.082H10.6585C7.62971 114.082 5.15724 111.554 5.15724 108.457V102.832H115.121V108.457Z" fill="#092F95"/>
<path d="M23.7599 57.2617C22.709 57.2617 21.8438 58.1464 21.8438 59.221V91.0121C21.8438 92.0865 22.709 92.9713 23.7599 92.9713H74.1397C75.1905 92.9713 76.0557 92.0865 76.0557 91.0121C76.0557 89.9375 75.1905 89.0527 74.1397 89.0527H25.676V59.221C25.676 58.1464 24.8107 57.2617 23.7599 57.2617Z" fill="#092F95"/>
<path d="M64.9298 106.561H49.6623C48.6115 106.561 47.7461 107.445 47.7461 108.52C47.7461 109.594 48.6115 110.479 49.6623 110.479H64.9298C65.9806 110.479 66.846 109.594 66.846 108.52C66.846 107.382 65.9806 106.561 64.9298 106.561Z" fill="#092F95"/>
<path d="M105.351 0H50.7711C43.2919 0 37.2344 6.19389 37.2344 13.8415V47.4022C37.2344 55.0498 43.2919 61.2438 50.7711 61.2438H52.0074L58.5595 73.4419C58.8686 74.0739 59.5484 74.4531 60.2283 74.4531C60.9083 74.4531 61.5264 74.0739 61.8973 73.4419L68.4494 61.2438H105.351C112.83 61.2438 118.888 55.0498 118.888 47.4022V13.8415C118.95 6.19389 112.83 0 105.351 0ZM115.117 47.4022C115.117 52.9009 110.729 57.3883 105.351 57.3883H67.3368C66.6568 57.3883 66.0387 57.7675 65.6678 58.3995L60.2283 68.5753L54.7889 58.3995C54.4799 57.7675 53.7999 57.3883 53.12 57.3883H50.7711C45.3935 57.3883 41.0048 52.9009 41.0048 47.4022V13.8415C41.0048 8.34279 45.3935 3.85538 50.7711 3.85538H105.413C110.791 3.85538 115.179 8.34279 115.179 13.8415V47.4022H115.117Z" fill="#092F95"/>
<path d="M60.1719 30.2379C60.1719 29.016 61.1348 28.0254 62.3225 28.0254H93.8646C95.0525 28.0254 96.0152 29.016 96.0152 30.2379C96.0152 31.4598 95.0525 32.4504 93.8646 32.4504H62.3225C61.1348 32.4504 60.1719 31.4598 60.1719 30.2379Z" fill="#092F95"/>
</svg>
