<svg width="139" height="118" viewBox="0 0 139 118" fill="none" xmlns="http://www.w3.org/2000/svg">
<path d="M133.074 27.3063C128.162 19.5857 120.331 12.4529 111.025 7.22141C93.4676 -2.64706 75.5947 -1.51316 68.4597 5.28809C68.1967 5.53841 67.9508 5.79545 67.7229 6.05768C60.0216 2.96661 48.0202 0.771792 35.8221 6.79078C24.4442 12.406 19.7722 21.3417 19.1933 27.8308C19.1561 28.2517 19.1345 28.6652 19.1292 29.0712C14.8037 29.5376 10.651 31.1766 7.33043 33.8587C2.23899 37.9697 -0.350691 44.0892 0.0382181 51.0909C0.429355 58.1216 4.34292 64.4795 10.7761 68.5354C11.0279 68.6948 11.282 68.8483 11.5368 68.9973C10.9728 70.164 10.5705 71.4022 10.3604 72.6792C9.64445 77.0167 11.2284 80.998 14.8201 83.8887C18.6018 86.9328 22.9996 86.7615 28.576 86.5499C35.7118 86.2728 44.6021 85.936 57.3642 91.6354C58.1308 91.9811 59.0345 91.6324 59.3794 90.865C59.7229 90.0947 59.3779 89.1932 58.6084 88.849C45.1988 82.8621 35.5263 83.2316 28.4591 83.5013C23.3304 83.695 19.6269 83.838 16.7333 81.5106C14.0363 79.3411 12.8428 76.3804 13.371 73.1769C13.5297 72.2158 13.8367 71.2756 14.2673 70.3816C18.4632 72.1994 22.7128 72.6643 25.5677 71.4917C28.6908 70.2058 29.4008 67.1557 28.4874 64.8059C27.3952 61.9942 24.0791 59.9566 19.8541 61.4995C17.1706 62.4814 14.8461 64.2233 13.1497 66.4062C12.9009 66.2616 12.6521 66.1112 12.404 65.9547C9.12069 63.885 3.54426 59.1788 3.08533 50.921C2.65843 43.2384 6.20098 38.6931 9.24735 36.2323C12.1037 33.9257 15.6783 32.5132 19.4101 32.1049C19.9189 34.527 21.1043 36.5191 22.8722 37.8251C26.4289 40.4536 29.0454 39.4187 30.0064 38.8503C31.6373 37.887 32.5291 36.058 32.2795 34.1917C31.9986 32.0952 30.3529 30.4383 27.8779 29.7596C26.0124 29.2478 24.097 28.9781 22.1838 28.9386C22.1912 28.6652 22.2076 28.3858 22.233 28.1019C22.7381 22.4376 26.9281 14.5836 37.172 9.52796C48.2035 4.08563 59.0233 5.91911 66.0891 8.65853C65.1712 10.8891 65.2867 13.3365 66.4854 15.731C68.1006 18.9591 70.7603 20.7345 73.5862 20.4804C75.7542 20.286 77.5243 18.8958 78.098 16.9394C78.4243 15.8278 78.7715 12.9237 74.9719 9.97645C74.0302 9.24633 72.567 8.32103 70.6858 7.3838C76.9745 1.58385 93.5228 0.884273 109.529 9.88109C134.63 23.9909 138.529 43.0596 134.241 55.102C131.855 61.805 126.986 66.0262 119.418 67.9156C119.251 67.0975 119.041 66.2601 118.785 65.4064C117.11 59.809 113.281 57.9696 110.181 58.0829C107.118 58.214 104.588 60.1793 104.03 62.8614C103.536 65.2305 104.103 67.4522 105.626 69.1165C107.636 71.3129 111.014 72.2575 115.149 71.7733C115.714 71.7077 116.268 71.6317 116.812 71.5483C116.946 74.506 116.289 77.0778 114.844 79.2294C112.118 83.2882 106.996 85.1344 103.439 85.4816C94.1143 86.3815 91.8226 82.5298 88.6414 77.188C85.8521 72.5049 82.3803 66.6759 73.1496 63.4813C72.1527 63.1371 71.0561 62.8122 69.911 62.474C62.3483 60.236 54.5272 57.9227 57.8485 46.3802C58.887 42.7728 61.1466 39.0611 64.4322 35.7227C67.7527 39.0611 70.7551 43.114 73.382 46.661C75.2878 49.2328 76.9328 51.4537 78.4228 53.0421C85.797 60.9005 92.1251 62.0478 96.1288 61.6277C100.754 61.1419 105.073 58.2773 107.686 53.9629C108.283 52.975 108.705 51.9052 108.949 50.778C110.132 50.6566 111.269 50.4621 112.328 50.1932C117.411 48.905 120.541 46.0539 121.142 42.1649C121.906 37.215 120.67 32.7255 117.561 29.18C112.768 23.7123 103.881 20.7062 93.2605 20.9439C83.4785 21.1592 72.3136 24.8269 64.3822 31.5231C58.8475 26.7006 52.3584 23.874 45.1064 27.3569C36.766 31.3592 31.7163 38.9784 32.24 46.7676C32.7436 54.2513 38.253 60.233 47.3556 63.1803C52.9395 64.9892 58.2113 67.8828 61.8663 70.9091C61.8082 70.9284 61.7493 70.9478 61.6912 70.9672C58.2157 72.1488 56.1364 74.4702 55.9874 77.3371C55.8376 80.2217 57.6704 83.1258 60.444 84.4028C62.9361 85.5516 65.6569 85.0614 67.7251 83.096C69.5981 81.3154 70.2969 79.0953 69.7463 76.674C69.4878 75.5371 68.9596 74.3957 68.2146 73.2693C71.1663 73.6969 73.75 75.3791 75.5783 78.1849C78.0517 81.9845 78.8862 88.0593 74.8765 92.4162C72.2868 95.2293 69.5891 96.6091 66.9808 97.9442C61.6726 100.661 56.6586 103.225 54.767 116.255C54.6463 117.09 55.2237 117.863 56.0582 117.984C56.1327 117.996 56.2064 118 56.2794 118C57.0244 118 57.6771 117.453 57.7873 116.693C59.4524 105.224 63.3876 103.21 68.371 100.661C71.0859 99.2718 74.1628 97.6983 77.1205 94.4843C81.5042 89.7222 81.9214 82.3361 78.1352 76.5205C75.7675 72.8819 71.3734 69.6604 65.5757 70.1447C61.2807 65.9547 54.4787 62.2803 48.2958 60.2777C40.4426 57.735 35.6998 52.7359 35.2849 46.5627C34.8453 40.0259 39.2186 33.5674 46.4266 30.1075C52.1364 27.3681 57.4208 29.5577 62.139 33.5875C58.7953 36.949 56.237 40.946 54.916 45.5368C50.7573 59.9901 61.7627 63.2458 69.0452 65.3989C70.1434 65.7237 71.1961 66.0351 72.1512 66.3659C80.3285 69.194 83.2221 74.053 86.0204 78.7496C89.3476 84.3372 92.5021 89.6119 103.735 88.5182C108.156 88.0861 114.063 85.866 117.377 80.9295C119.278 78.0999 120.1 74.7608 119.838 70.9597C128.643 68.8752 134.317 63.9923 137.117 56.1257C140.471 46.702 139.073 36.7367 133.074 27.3063ZM20.9031 64.3663C23.3937 63.4499 25.1057 64.5272 25.6429 65.9115C26.0072 66.8487 25.8739 68.0661 24.4069 68.6695C22.6703 69.3833 19.495 69.2074 15.9801 67.7919C17.2928 66.278 18.9951 65.0637 20.9031 64.3663ZM27.0704 32.7024C28.3443 33.0518 29.14 33.7425 29.2547 34.5962C29.3419 35.2459 29.0275 35.8844 28.4538 36.2234C27.5293 36.7695 26.1562 36.458 24.6856 35.3711C23.653 34.6074 22.9176 33.4445 22.5213 31.9984C24.0493 32.061 25.5788 32.2934 27.0704 32.7024ZM73.1004 12.3873C74.7081 13.6345 75.4815 15.015 75.17 16.0811C74.951 16.8254 74.2224 17.3596 73.3135 17.4408C71.7713 17.5793 70.2455 16.4283 69.2136 14.3654C68.3375 12.6138 68.4038 11.1096 68.8925 9.87738C70.7536 10.7811 72.193 11.6833 73.1004 12.3873ZM114.794 68.7425C111.716 69.1091 109.189 68.4892 107.878 67.0573C107.022 66.1216 106.724 64.8864 107.018 63.4842C107.286 62.1909 108.672 61.2015 110.312 61.1315C110.378 61.1285 110.442 61.1285 110.506 61.1285C112.899 61.1285 114.891 63.0372 115.861 66.281C116.091 67.0454 116.279 67.7919 116.426 68.5191C115.894 68.6025 115.35 68.677 114.794 68.7425ZM105.921 47.8896C99.6989 47.8896 93.1532 45.8058 90.7334 42.6231C89.5161 41.0198 89.4684 39.2854 90.5919 37.32C91.5783 35.5953 92.8776 34.7564 94.5658 34.7564H94.5852C97.7902 34.7691 101.991 37.9555 104.355 42.1686C105.456 44.1309 106.054 46.0829 106.139 47.8888C106.067 47.8888 105.994 47.8896 105.921 47.8896ZM93.3261 23.9954C102.932 23.7563 111.133 26.4741 115.267 31.1915C117.795 34.077 118.758 37.6121 118.126 41.6985C117.611 45.0332 114.28 46.55 111.577 47.2354C110.81 47.4299 110.01 47.5797 109.187 47.6862C109.07 45.4273 108.343 43.0395 107.016 40.6756C104.062 35.4106 98.9554 31.722 94.5971 31.7049H94.5658C92.6049 31.7049 89.8766 32.4208 87.9426 35.8062C86.2201 38.8198 86.3482 41.8967 88.3046 44.4699C91.5127 48.6912 98.945 50.8935 105.745 50.9285C105.576 51.4381 105.352 51.9246 105.075 52.3828C102.955 55.8851 99.4918 58.2065 95.8114 58.5932C91.0299 59.0991 85.8059 56.4513 80.6489 50.9545C79.2795 49.4943 77.6822 47.3397 75.8346 44.8447C73.2449 41.3483 70.1672 37.1934 66.6537 33.6575C72.9976 28.2554 82.2179 24.239 93.3261 23.9954ZM64.456 73.381C65.677 74.7608 66.4891 76.1122 66.7707 77.3505C67.0821 78.7198 66.7171 79.8433 65.6227 80.8848C64.1326 82.3018 62.6761 82.0739 61.7195 81.6298C60.1051 80.8878 58.951 79.1102 59.0352 77.4965C59.1403 75.4745 61.0714 74.4017 62.6731 73.8578C63.2729 73.6537 63.8681 73.4958 64.456 73.381Z" fill="white"/>
</svg>
