<svg width="60" height="60" viewBox="0 0 60 60" fill="none" xmlns="http://www.w3.org/2000/svg">
<path d="M54.9984 36.2506V50.8335C54.9984 51.9385 54.5594 52.9983 53.778 53.7796C52.9966 54.561 51.9369 55 50.8318 55H9.16653C8.0615 55 7.00172 54.561 6.22035 53.7796C5.43897 52.9983 5 51.9385 5 50.8335V36.2506C5 35.6981 5.21949 35.1682 5.61017 34.7775C6.00086 34.3868 6.53075 34.1674 7.08327 34.1674C7.63578 34.1674 8.16567 34.3868 8.55636 34.7775C8.94704 35.1682 9.16653 35.6981 9.16653 36.2506V50.8335H50.8318V36.2506C50.8318 35.6981 51.0513 35.1682 51.442 34.7775C51.8327 34.3868 52.3626 34.1674 52.9151 34.1674C53.4676 34.1674 53.9975 34.3868 54.3882 34.7775C54.7789 35.1682 54.9984 35.6981 54.9984 36.2506ZM21.0568 18.9751L27.9159 12.1134V36.2506C27.9159 36.8031 28.1354 37.333 28.5261 37.7237C28.9168 38.1144 29.4467 38.3339 29.9992 38.3339C30.5517 38.3339 31.0816 38.1144 31.4723 37.7237C31.863 37.333 32.0824 36.8031 32.0824 36.2506V12.1134L38.9416 18.9751C39.3325 19.366 39.8627 19.5857 40.4155 19.5857C40.9683 19.5857 41.4985 19.366 41.8894 18.9751C42.2803 18.5842 42.4999 18.0541 42.4999 17.5012C42.4999 16.9484 42.2803 16.4182 41.8894 16.0273L31.4731 5.61099C31.2796 5.4173 31.0499 5.26364 30.7969 5.1588C30.544 5.05396 30.273 5 29.9992 5C29.7254 5 29.4543 5.05396 29.2014 5.1588C28.9485 5.26364 28.7187 5.4173 28.5253 5.61099L18.1089 16.0273C17.718 16.4182 17.4984 16.9484 17.4984 17.5012C17.4984 18.0541 17.718 18.5842 18.1089 18.9751C18.4998 19.366 19.03 19.5857 19.5829 19.5857C20.1357 19.5857 20.6659 19.366 21.0568 18.9751Z" fill="white"/>
</svg>
