<svg width="56" height="56" viewBox="0 0 56 56" fill="none" xmlns="http://www.w3.org/2000/svg">
<rect width="56" height="56" rx="28" fill="#A3C0F2"/>
<path d="M43.3953 16.814L28.3953 11.814C28.1387 11.7284 27.8613 11.7284 27.6047 11.814L12.6047 16.814C12.3558 16.8969 12.1393 17.0561 11.9859 17.269C11.8325 17.4818 11.75 17.7375 11.75 17.9999V30.4999C11.75 30.8314 11.8817 31.1494 12.1161 31.3838C12.3505 31.6182 12.6685 31.7499 13 31.7499C13.3315 31.7499 13.6495 31.6182 13.8839 31.3838C14.1183 31.1494 14.25 30.8314 14.25 30.4999V19.7343L19.4984 21.4827C18.104 23.7355 17.6606 26.4497 18.2655 29.0291C18.8705 31.6086 20.4744 33.8426 22.725 35.2405C19.9125 36.3437 17.4813 38.339 15.7031 41.0671C15.6106 41.2045 15.5464 41.359 15.5142 41.5215C15.4819 41.684 15.4823 41.8512 15.5152 42.0136C15.5482 42.1759 15.6131 42.3301 15.7061 42.4672C15.7992 42.6042 15.9186 42.7214 16.0573 42.8119C16.1961 42.9024 16.3515 42.9644 16.5144 42.9943C16.6773 43.0242 16.8446 43.0215 17.0064 42.9862C17.1683 42.9509 17.3215 42.8838 17.4572 42.7888C17.5929 42.6938 17.7084 42.5728 17.7969 42.4327C20.1516 38.8202 23.8703 36.7499 28 36.7499C32.1297 36.7499 35.8484 38.8202 38.2031 42.4327C38.3865 42.7052 38.6697 42.8946 38.9915 42.9599C39.3134 43.0253 39.648 42.9613 39.9231 42.7819C40.1982 42.6025 40.3916 42.322 40.4616 42.0011C40.5315 41.6802 40.4723 41.3447 40.2969 41.0671C38.5188 38.339 36.0781 36.3437 33.275 35.2405C35.5235 33.8426 37.1258 31.6101 37.7307 29.0325C38.3356 26.4549 37.8935 23.7427 36.5016 21.4905L43.3953 19.1937C43.6443 19.1107 43.8608 18.9516 44.0143 18.7387C44.1677 18.5259 44.2503 18.2701 44.2503 18.0077C44.2503 17.7453 44.1677 17.4896 44.0143 17.2767C43.8608 17.0639 43.6443 16.9047 43.3953 16.8218V16.814ZM35.5 26.7499C35.5003 27.9356 35.2195 29.1045 34.6807 30.1607C34.1418 31.2169 33.3601 32.1302 32.3999 32.8258C31.4397 33.5214 30.3282 33.9795 29.1567 34.1623C27.9851 34.3452 26.7869 34.2477 25.6604 33.8778C24.5338 33.5079 23.5111 32.8762 22.6759 32.0345C21.8408 31.1928 21.2171 30.165 20.8561 29.0356C20.4951 27.9062 20.407 26.7073 20.599 25.5372C20.7911 24.3672 21.2578 23.2593 21.9609 22.3046L27.6047 24.1796C27.8613 24.2651 28.1387 24.2651 28.3953 24.1796L34.0391 22.3046C34.9887 23.5921 35.5008 25.1501 35.5 26.7499Z" fill="white"/>
</svg>
