<svg width="96" height="124" viewBox="0 0 96 124" fill="none" xmlns="http://www.w3.org/2000/svg">
<path d="M71.1394 91.1258L71.139 91.1257C70.9899 91.1073 70.8867 91.042 70.8454 91.0136C70.7955 90.9794 70.7584 90.9443 70.7359 90.9215C70.6905 90.8756 70.6533 90.8273 70.6271 90.7914C70.5722 90.7161 70.5122 90.6207 70.4504 90.5166C70.3245 90.3045 70.1583 90.0006 69.9559 89.6165C69.5334 88.815 68.9333 87.6271 68.1757 86.0995L68.1752 86.0986C66.6585 83.0282 64.5082 78.5612 61.8605 72.9887C56.8588 62.4618 50.0834 48.0033 42.4993 31.6257C41.7836 33.2995 41.06 35.0164 40.368 36.762L40.3664 36.7659C38.3693 41.7063 36.5452 46.5708 34.9366 51.3228L34.934 51.3307L34.9339 51.3307C34.3272 53.0483 33.7769 54.7588 33.2314 56.4547C33.0277 57.0878 32.8247 57.7189 32.6196 58.3476C32.5203 58.6723 32.4212 58.9958 32.3224 59.3181C31.7166 61.2956 31.1237 63.2304 30.5807 65.1336L30.5805 65.1344C28.037 74.0058 26.1571 82.1093 24.7871 88.959C23.4231 95.8101 22.5443 101.396 21.9413 105.266L21.9412 105.266C21.8143 106.08 21.7037 106.826 21.6047 107.494C21.4715 108.393 21.3592 109.15 21.2563 109.739M71.1394 91.1258L71.6224 90.0103M71.1394 91.1258C71.2537 91.1398 71.423 91.127 71.5826 91.0141C71.7471 90.8977 71.831 90.7233 71.847 90.5583C71.8506 90.521 71.851 90.4849 71.8487 90.4502M71.1394 91.1258L71.8487 90.4502M21.2563 109.739C21.1698 110.252 21.0955 110.652 21.0352 110.926C21.0057 111.061 20.9761 111.181 20.9465 111.274C20.9332 111.316 20.911 111.382 20.8773 111.446C20.8624 111.475 20.8263 111.541 20.7629 111.608C20.7173 111.656 20.5401 111.827 20.2565 111.808C19.9812 111.793 19.8236 111.613 19.7679 111.533C19.7076 111.447 19.6816 111.365 19.6714 111.331C19.6486 111.253 19.6403 111.178 19.6362 111.133C19.627 111.033 19.6251 110.906 19.6267 110.767C19.63 110.484 19.6494 110.075 19.6835 109.554L19.6837 109.55C19.6887 109.481 19.6938 109.41 19.699 109.337C19.7721 108.315 19.8766 106.855 20.0672 105.024L20.0673 105.023C20.4811 101.107 21.1972 95.4463 22.4316 88.5095C23.6661 81.5714 25.4496 73.364 27.9424 64.386C28.4987 62.3609 29.1151 60.3012 29.7394 58.2147C29.8085 57.9837 29.8778 57.7524 29.947 57.5208L29.9502 57.5101L29.9503 57.5102C30.126 56.9582 30.3014 56.4018 30.4779 55.8418C31.0404 54.0574 31.6141 52.2373 32.2442 50.4126C33.8492 45.5979 35.6819 40.674 37.6987 35.6905C38.6519 33.3024 39.6585 30.9671 40.6205 28.7353C40.7932 28.3346 40.9645 27.9373 41.1338 27.5435L41.134 27.5431C41.4451 26.8207 42.2856 26.4908 43.0044 26.8004L43.0056 26.801C43.3336 26.9431 43.589 27.197 43.7337 27.5085L43.7347 27.5107C51.825 45.1074 58.9306 60.7411 63.9679 72.0042L63.968 72.0043C66.4863 77.6382 68.4888 82.173 69.839 85.3173M21.2563 109.739C21.2564 109.739 21.2565 109.738 21.2566 109.738L20.9408 109.684C20.9408 109.685 20.9407 109.686 20.9407 109.686L21.256 109.741C21.2561 109.741 21.2562 109.74 21.2563 109.739ZM69.839 85.3173L69.3103 85.5443C70.0657 87.0675 70.659 88.2416 71.0733 89.0275C71.0804 89.041 71.0874 89.0543 71.0944 89.0675C71.2845 89.4274 71.4315 89.6949 71.5366 89.8718C71.5735 89.934 71.6018 89.9792 71.6224 90.0103M69.839 85.3173C70.5164 86.8877 71.031 88.1151 71.3616 88.9634C71.518 89.3646 71.6384 89.6845 71.7173 89.9141C71.7562 90.0272 71.7892 90.1304 71.8113 90.2156C71.8219 90.2566 71.8343 90.3095 71.8417 90.365C71.8445 90.3858 71.8477 90.4153 71.8487 90.4502M69.839 85.3173C69.8388 85.317 69.8387 85.3166 69.8386 85.3163L69.3102 85.5442L71.8487 90.4502M71.6224 90.0103C71.6231 90.0114 71.6238 90.0125 71.6245 90.0136C71.6603 90.044 71.6943 90.0794 71.7245 90.1195C71.6973 90.082 71.6637 90.0447 71.6224 90.0103ZM41.714 27.793C41.8864 27.3928 42.3543 27.2081 42.7545 27.3805L38.2848 35.9258C39.2346 33.546 40.2375 31.2193 41.1998 28.987C41.3727 28.5858 41.5443 28.1878 41.714 27.793ZM41.714 27.793L41.714 27.793L41.714 27.793ZM20.8952 111.028C20.8951 111.028 20.895 111.027 20.8947 111.024C20.895 111.026 20.8952 111.028 20.8952 111.028ZM42.1424 30.8548C41.3536 32.6945 40.548 34.5941 39.7808 36.5292L42.1424 30.8548ZM62.431 72.7177C57.378 62.0829 50.5138 47.4332 42.8338 30.845L70.5227 90.3247C70.4563 90.1313 70.3516 89.8515 70.2085 89.4833C70.2007 89.4632 70.1927 89.4427 70.1847 89.4221C69.8646 88.6008 69.3615 87.3998 68.6906 85.8441C68.6906 85.8441 68.6905 85.8441 68.6905 85.8441C68.6866 85.8349 68.6827 85.8258 68.6787 85.8167L68.6783 85.8157C68.54 85.4937 68.3949 85.1571 68.243 84.8061C66.7698 81.8023 64.8 77.7037 62.431 72.7177ZM71.7944 90.7379C71.7931 90.7407 71.7919 90.7436 71.7906 90.7464C71.7919 90.7436 71.7931 90.7407 71.7944 90.7379Z" fill="#E8505B" stroke="#E8505B" stroke-width="1.26316"/>
<path d="M35.206 72.4529L35.2061 72.4529C42.4005 70.4975 48.8963 68.6396 53.5864 67.2153C55.9302 66.5036 57.8292 65.8983 59.1405 65.4423C59.794 65.215 60.3136 65.0208 60.6725 64.8661C60.8484 64.7903 61.0071 64.715 61.1284 64.6421C61.1854 64.6078 61.2647 64.5562 61.3362 64.4869C61.3719 64.4523 61.4277 64.3923 61.4739 64.3067C61.489 64.2788 61.5052 64.2441 61.5191 64.2036C61.5266 64.1836 61.5333 64.1628 61.539 64.1412C61.5787 63.9907 61.5565 63.854 61.5181 63.7535L61.518 63.7533C61.4491 63.5734 61.3218 63.4715 61.2379 63.4211C61.1551 63.3712 61.077 63.348 61.0288 63.3362C60.9323 63.3128 60.838 63.3084 60.7714 63.3077C60.6299 63.3062 60.4548 63.3216 60.2647 63.3452C59.8767 63.3935 59.3302 63.4887 58.6514 63.6234C57.2894 63.8935 55.3453 64.3321 52.9634 64.9041C48.1972 66.0487 41.6538 67.7332 34.4562 69.6887C27.2428 71.6476 20.7351 73.5086 16.0431 74.9339C13.6983 75.6461 11.8008 76.2514 10.4937 76.7067C9.84242 76.9335 9.32538 77.1273 8.96967 77.2814C8.79575 77.3567 8.63758 77.4322 8.51702 77.5059C8.46104 77.5401 8.37923 77.5941 8.30616 77.6683C8.26966 77.7054 8.21086 77.7719 8.16551 77.8677C8.11769 77.9687 8.07117 78.1345 8.12438 78.3278C8.1775 78.5207 8.30193 78.639 8.3937 78.701C8.48101 78.76 8.56492 78.7872 8.61504 78.8006C8.71534 78.8274 8.81297 78.8325 8.87864 78.8337C9.01993 78.8362 9.19461 78.8212 9.38291 78.7982C9.76797 78.751 10.3123 78.6565 10.989 78.5225C12.3473 78.2537 14.2905 77.8156 16.6734 77.2436C21.4418 76.0989 27.9957 74.4118 35.206 72.4529ZM8.88692 77.5701C8.88696 77.5701 8.88815 77.5702 8.89036 77.5704L8.88692 77.5701ZM9.16424 78.5912C9.16419 78.5912 9.16509 78.5905 9.16707 78.5892C9.16528 78.5905 9.16429 78.5912 9.16424 78.5912ZM60.7745 64.5714C60.7745 64.5714 60.7737 64.5714 60.7722 64.5712L60.7745 64.5714ZM60.4912 63.5508C60.4912 63.5508 60.4906 63.5513 60.4893 63.5522C60.4906 63.5512 60.4912 63.5508 60.4912 63.5508Z" fill="#E8505B" stroke="#E8505B" stroke-width="1.26316"/>
<mask id="path-3-outside-1_124_14111" maskUnits="userSpaceOnUse" x="1.79077" y="0.701904" width="92" height="122" fill="black">
<rect fill="white" x="1.79077" y="0.701904" width="92" height="122"/>
<path d="M52.87 15.0295C52.8665 15.0224 52.8687 15.0138 52.8752 15.0094C52.9283 14.974 53.1673 14.8185 53.6088 14.5923C53.8674 14.4631 54.1813 14.3091 54.5569 14.1244C54.9386 13.9521 55.4003 13.7858 55.9175 13.5827C56.9518 13.1825 58.2816 12.8131 59.8885 12.5299C61.5015 12.2959 63.3978 12.1851 65.5095 12.4683C67.615 12.7454 69.9114 13.4226 72.2325 14.5616C74.5412 15.7252 76.8684 17.3382 79.0786 19.376C81.2827 21.4262 83.4067 23.858 85.3029 26.6962C85.7708 27.3981 86.2449 28.1615 86.6205 28.9495C87.0145 29.7314 87.427 30.5195 87.821 31.326C88.1719 32.1571 88.5229 32.9944 88.8799 33.844C89.2493 34.6936 89.4956 35.5987 89.8157 36.4852C90.9793 40.0868 91.7612 44.0024 92.0629 48.1212C92.3707 52.2399 92.1983 56.5496 91.6073 60.9454C91.0163 65.3412 90.0066 69.8293 88.6952 74.3544C88.3874 75.4934 88.0057 76.6139 87.6548 77.759C87.2854 78.898 86.8421 80.037 86.4358 81.1883C85.9371 82.3026 85.4753 83.4477 84.9274 84.5559C84.6442 85.1039 84.361 85.6579 84.0778 86.212L83.6468 87.0432L83.1728 87.8497C80.667 92.1901 77.5518 96.3027 73.9625 100.101C70.367 103.906 66.2667 107.366 61.8032 110.463C57.3274 113.541 52.5129 116.312 47.2305 118.343C41.9666 120.344 36.2533 121.612 30.3922 121.391C27.474 121.274 24.5558 120.757 21.8223 119.716C19.0949 118.682 16.5768 117.1 14.5021 115.105C13.4616 114.114 12.5073 113.03 11.6762 111.879C10.8204 110.74 10.0939 109.527 9.42903 108.29C8.11152 105.815 7.12646 103.21 6.3692 100.588C3.43866 90.0722 3.16777 79.3536 4.74386 69.503C5.52575 64.5716 6.75091 59.8433 8.29622 55.3798C8.49323 54.8257 8.69024 54.2716 8.88725 53.7175C9.0781 53.1634 9.28127 52.6155 9.51522 52.0799C9.96466 51.0025 10.4079 49.9374 10.845 48.8784C11.3376 47.8441 11.8239 46.816 12.3103 45.8001C12.7782 44.772 13.3569 43.8116 13.8679 42.8327C16.0043 38.9478 18.3315 35.3401 20.8557 32.0956C21.1635 31.6831 21.4713 31.2767 21.7792 30.8704C22.1055 30.4764 22.4256 30.0885 22.7458 29.7006C23.3984 28.9311 24.0079 28.1492 24.6728 27.4165C25.3377 26.6901 25.9964 25.9697 26.649 25.2617C27.2893 24.5352 28.0035 23.9011 28.6622 23.2362C29.9736 21.8818 31.4019 20.7182 32.7379 19.5176C33.4398 18.9635 34.1355 18.4094 34.8188 17.8677C35.1636 17.5968 35.5022 17.332 35.8408 17.0673C36.1918 16.821 36.5427 16.5748 36.8875 16.3285C37.5832 15.8421 38.2665 15.3619 38.9376 14.8879C39.6333 14.4507 40.3228 14.0198 41.0001 13.595C41.3387 13.3857 41.6773 13.1702 42.0097 12.967C42.3545 12.7761 42.6931 12.5853 43.0317 12.3944C43.709 12.0189 44.3739 11.6495 45.0265 11.2924C46.3502 10.6029 47.6615 9.98721 48.9051 9.38386C50.1857 8.84208 51.4047 8.3003 52.5929 7.82624C53.7935 7.38297 54.9386 6.95817 56.0345 6.55183C57.1427 6.19475 58.2016 5.86229 59.199 5.54215C63.2254 4.35392 66.4022 3.64592 68.5693 3.23342C69.6529 3.03641 70.484 2.88865 71.0381 2.80246C71.6015 2.71578 71.6208 2.8199 71.0689 2.96253C70.521 3.10414 69.7083 3.30115 68.637 3.54741C66.5007 4.06456 63.3547 4.86492 59.3837 6.13934C58.3986 6.47795 57.3581 6.83503 56.2623 7.21059C55.1849 7.62923 54.0582 8.07251 52.8761 8.53425C51.7125 9.02678 50.512 9.58088 49.2561 10.135C48.0309 10.7506 46.7503 11.3786 45.4513 12.0805C44.811 12.4499 44.1584 12.8192 43.4935 13.201C43.161 13.3918 42.8286 13.5827 42.4961 13.7797C42.1698 13.989 41.8435 14.2045 41.5111 14.4138C40.8461 14.8386 40.1751 15.2757 39.4917 15.7128C38.8329 16.1869 38.1619 16.6671 37.4846 17.1596C37.146 17.4059 36.8074 17.6522 36.4627 17.8984C36.1302 18.1632 35.7977 18.4341 35.4653 18.6988C34.8004 19.2406 34.1231 19.7885 33.4336 20.3426C32.1346 21.537 30.7432 22.7006 29.4564 24.0427C28.81 24.7076 28.1143 25.3418 27.4925 26.0559C26.8584 26.7639 26.2119 27.4719 25.5655 28.1984C24.919 28.9249 24.3218 29.7068 23.6877 30.4702C23.3737 30.8519 23.0597 31.2398 22.7396 31.6276C22.4441 32.034 22.1424 32.4342 21.8407 32.8467C19.3719 36.0666 17.1125 39.6374 15.0377 43.4729C14.539 44.4457 13.9788 45.3938 13.5232 46.4035C13.0553 47.407 12.5812 48.4228 12.101 49.4448C11.6762 50.4853 11.2452 51.5381 10.8143 52.597C10.5865 53.1203 10.3895 53.6621 10.2048 54.21C10.0139 54.7518 9.82305 55.2998 9.6322 55.8477C8.13615 60.2435 6.95408 64.8917 6.20297 69.737C5.44571 74.5761 5.14404 79.6122 5.39646 84.7345C5.64272 89.8444 6.43077 95.0652 7.87757 100.163C8.62252 102.706 9.57063 105.205 10.8327 107.563C11.4669 108.739 12.1564 109.884 12.9629 110.955C13.7448 112.039 14.6375 113.049 15.6041 113.966C17.5373 115.819 19.8522 117.278 22.401 118.239C24.9437 119.205 27.6833 119.698 30.46 119.809C36.0317 120.018 41.5603 118.811 46.6641 116.872C51.768 114.914 56.527 112.199 60.9105 109.195C65.2878 106.166 69.3204 102.779 72.8481 99.067C76.3759 95.3546 79.4357 91.3466 81.8922 87.1294L82.3601 86.3475L82.7787 85.541C83.0558 85.0053 83.339 84.4697 83.616 83.9341C84.1517 82.8567 84.6011 81.7485 85.0936 80.6711C85.4938 79.5506 85.9309 78.4609 86.3003 77.3465C86.6512 76.2199 87.0329 75.1055 87.3469 73.985C88.6706 69.5215 89.6864 65.1072 90.2959 60.7915C90.9054 56.4757 91.1025 52.2584 90.8316 48.232C90.5668 44.2056 89.8404 40.3823 88.7383 36.8546C88.4366 35.9804 88.2027 35.0938 87.8518 34.2627C87.5132 33.4254 87.1745 32.6004 86.8421 31.7877C86.4542 30.9997 86.0725 30.2178 85.697 29.4482C85.3337 28.6602 84.9151 27.9706 84.4595 27.2688C82.6433 24.4798 80.5931 22.0665 78.4753 20.0409C76.3451 18.0216 74.1103 16.4209 71.8939 15.2511C69.6652 14.106 67.4611 13.4103 65.4233 13.0963C63.3855 12.7761 61.5385 12.8377 59.9624 13.0101C58.3863 13.2441 57.0688 13.5519 56.0283 13.8966C55.5112 14.0752 55.0494 14.2106 54.6554 14.3584C54.2737 14.5123 53.9474 14.6478 53.6827 14.7524C53.1593 14.9617 52.8823 15.0541 52.87 15.0295Z"/>
</mask>
<path d="M52.87 15.0295C52.8665 15.0224 52.8687 15.0138 52.8752 15.0094C52.9283 14.974 53.1673 14.8185 53.6088 14.5923C53.8674 14.4631 54.1813 14.3091 54.5569 14.1244C54.9386 13.9521 55.4003 13.7858 55.9175 13.5827C56.9518 13.1825 58.2816 12.8131 59.8885 12.5299C61.5015 12.2959 63.3978 12.1851 65.5095 12.4683C67.615 12.7454 69.9114 13.4226 72.2325 14.5616C74.5412 15.7252 76.8684 17.3382 79.0786 19.376C81.2827 21.4262 83.4067 23.858 85.3029 26.6962C85.7708 27.3981 86.2449 28.1615 86.6205 28.9495C87.0145 29.7314 87.427 30.5195 87.821 31.326C88.1719 32.1571 88.5229 32.9944 88.8799 33.844C89.2493 34.6936 89.4956 35.5987 89.8157 36.4852C90.9793 40.0868 91.7612 44.0024 92.0629 48.1212C92.3707 52.2399 92.1983 56.5496 91.6073 60.9454C91.0163 65.3412 90.0066 69.8293 88.6952 74.3544C88.3874 75.4934 88.0057 76.6139 87.6548 77.759C87.2854 78.898 86.8421 80.037 86.4358 81.1883C85.9371 82.3026 85.4753 83.4477 84.9274 84.5559C84.6442 85.1039 84.361 85.6579 84.0778 86.212L83.6468 87.0432L83.1728 87.8497C80.667 92.1901 77.5518 96.3027 73.9625 100.101C70.367 103.906 66.2667 107.366 61.8032 110.463C57.3274 113.541 52.5129 116.312 47.2305 118.343C41.9666 120.344 36.2533 121.612 30.3922 121.391C27.474 121.274 24.5558 120.757 21.8223 119.716C19.0949 118.682 16.5768 117.1 14.5021 115.105C13.4616 114.114 12.5073 113.03 11.6762 111.879C10.8204 110.74 10.0939 109.527 9.42903 108.29C8.11152 105.815 7.12646 103.21 6.3692 100.588C3.43866 90.0722 3.16777 79.3536 4.74386 69.503C5.52575 64.5716 6.75091 59.8433 8.29622 55.3798C8.49323 54.8257 8.69024 54.2716 8.88725 53.7175C9.0781 53.1634 9.28127 52.6155 9.51522 52.0799C9.96466 51.0025 10.4079 49.9374 10.845 48.8784C11.3376 47.8441 11.8239 46.816 12.3103 45.8001C12.7782 44.772 13.3569 43.8116 13.8679 42.8327C16.0043 38.9478 18.3315 35.3401 20.8557 32.0956C21.1635 31.6831 21.4713 31.2767 21.7792 30.8704C22.1055 30.4764 22.4256 30.0885 22.7458 29.7006C23.3984 28.9311 24.0079 28.1492 24.6728 27.4165C25.3377 26.6901 25.9964 25.9697 26.649 25.2617C27.2893 24.5352 28.0035 23.9011 28.6622 23.2362C29.9736 21.8818 31.4019 20.7182 32.7379 19.5176C33.4398 18.9635 34.1355 18.4094 34.8188 17.8677C35.1636 17.5968 35.5022 17.332 35.8408 17.0673C36.1918 16.821 36.5427 16.5748 36.8875 16.3285C37.5832 15.8421 38.2665 15.3619 38.9376 14.8879C39.6333 14.4507 40.3228 14.0198 41.0001 13.595C41.3387 13.3857 41.6773 13.1702 42.0097 12.967C42.3545 12.7761 42.6931 12.5853 43.0317 12.3944C43.709 12.0189 44.3739 11.6495 45.0265 11.2924C46.3502 10.6029 47.6615 9.98721 48.9051 9.38386C50.1857 8.84208 51.4047 8.3003 52.5929 7.82624C53.7935 7.38297 54.9386 6.95817 56.0345 6.55183C57.1427 6.19475 58.2016 5.86229 59.199 5.54215C63.2254 4.35392 66.4022 3.64592 68.5693 3.23342C69.6529 3.03641 70.484 2.88865 71.0381 2.80246C71.6015 2.71578 71.6208 2.8199 71.0689 2.96253C70.521 3.10414 69.7083 3.30115 68.637 3.54741C66.5007 4.06456 63.3547 4.86492 59.3837 6.13934C58.3986 6.47795 57.3581 6.83503 56.2623 7.21059C55.1849 7.62923 54.0582 8.07251 52.8761 8.53425C51.7125 9.02678 50.512 9.58088 49.2561 10.135C48.0309 10.7506 46.7503 11.3786 45.4513 12.0805C44.811 12.4499 44.1584 12.8192 43.4935 13.201C43.161 13.3918 42.8286 13.5827 42.4961 13.7797C42.1698 13.989 41.8435 14.2045 41.5111 14.4138C40.8461 14.8386 40.1751 15.2757 39.4917 15.7128C38.8329 16.1869 38.1619 16.6671 37.4846 17.1596C37.146 17.4059 36.8074 17.6522 36.4627 17.8984C36.1302 18.1632 35.7977 18.4341 35.4653 18.6988C34.8004 19.2406 34.1231 19.7885 33.4336 20.3426C32.1346 21.537 30.7432 22.7006 29.4564 24.0427C28.81 24.7076 28.1143 25.3418 27.4925 26.0559C26.8584 26.7639 26.2119 27.4719 25.5655 28.1984C24.919 28.9249 24.3218 29.7068 23.6877 30.4702C23.3737 30.8519 23.0597 31.2398 22.7396 31.6276C22.4441 32.034 22.1424 32.4342 21.8407 32.8467C19.3719 36.0666 17.1125 39.6374 15.0377 43.4729C14.539 44.4457 13.9788 45.3938 13.5232 46.4035C13.0553 47.407 12.5812 48.4228 12.101 49.4448C11.6762 50.4853 11.2452 51.5381 10.8143 52.597C10.5865 53.1203 10.3895 53.6621 10.2048 54.21C10.0139 54.7518 9.82305 55.2998 9.6322 55.8477C8.13615 60.2435 6.95408 64.8917 6.20297 69.737C5.44571 74.5761 5.14404 79.6122 5.39646 84.7345C5.64272 89.8444 6.43077 95.0652 7.87757 100.163C8.62252 102.706 9.57063 105.205 10.8327 107.563C11.4669 108.739 12.1564 109.884 12.9629 110.955C13.7448 112.039 14.6375 113.049 15.6041 113.966C17.5373 115.819 19.8522 117.278 22.401 118.239C24.9437 119.205 27.6833 119.698 30.46 119.809C36.0317 120.018 41.5603 118.811 46.6641 116.872C51.768 114.914 56.527 112.199 60.9105 109.195C65.2878 106.166 69.3204 102.779 72.8481 99.067C76.3759 95.3546 79.4357 91.3466 81.8922 87.1294L82.3601 86.3475L82.7787 85.541C83.0558 85.0053 83.339 84.4697 83.616 83.9341C84.1517 82.8567 84.6011 81.7485 85.0936 80.6711C85.4938 79.5506 85.9309 78.4609 86.3003 77.3465C86.6512 76.2199 87.0329 75.1055 87.3469 73.985C88.6706 69.5215 89.6864 65.1072 90.2959 60.7915C90.9054 56.4757 91.1025 52.2584 90.8316 48.232C90.5668 44.2056 89.8404 40.3823 88.7383 36.8546C88.4366 35.9804 88.2027 35.0938 87.8518 34.2627C87.5132 33.4254 87.1745 32.6004 86.8421 31.7877C86.4542 30.9997 86.0725 30.2178 85.697 29.4482C85.3337 28.6602 84.9151 27.9706 84.4595 27.2688C82.6433 24.4798 80.5931 22.0665 78.4753 20.0409C76.3451 18.0216 74.1103 16.4209 71.8939 15.2511C69.6652 14.106 67.4611 13.4103 65.4233 13.0963C63.3855 12.7761 61.5385 12.8377 59.9624 13.0101C58.3863 13.2441 57.0688 13.5519 56.0283 13.8966C55.5112 14.0752 55.0494 14.2106 54.6554 14.3584C54.2737 14.5123 53.9474 14.6478 53.6827 14.7524C53.1593 14.9617 52.8823 15.0541 52.87 15.0295Z" fill="#E8505B"/>
<path d="M52.87 15.0295C52.8665 15.0224 52.8687 15.0138 52.8752 15.0094C52.9283 14.974 53.1673 14.8185 53.6088 14.5923C53.8674 14.4631 54.1813 14.3091 54.5569 14.1244C54.9386 13.9521 55.4003 13.7858 55.9175 13.5827C56.9518 13.1825 58.2816 12.8131 59.8885 12.5299C61.5015 12.2959 63.3978 12.1851 65.5095 12.4683C67.615 12.7454 69.9114 13.4226 72.2325 14.5616C74.5412 15.7252 76.8684 17.3382 79.0786 19.376C81.2827 21.4262 83.4067 23.858 85.3029 26.6962C85.7708 27.3981 86.2449 28.1615 86.6205 28.9495C87.0145 29.7314 87.427 30.5195 87.821 31.326C88.1719 32.1571 88.5229 32.9944 88.8799 33.844C89.2493 34.6936 89.4956 35.5987 89.8157 36.4852C90.9793 40.0868 91.7612 44.0024 92.0629 48.1212C92.3707 52.2399 92.1983 56.5496 91.6073 60.9454C91.0163 65.3412 90.0066 69.8293 88.6952 74.3544C88.3874 75.4934 88.0057 76.6139 87.6548 77.759C87.2854 78.898 86.8421 80.037 86.4358 81.1883C85.9371 82.3026 85.4753 83.4477 84.9274 84.5559C84.6442 85.1039 84.361 85.6579 84.0778 86.212L83.6468 87.0432L83.1728 87.8497C80.667 92.1901 77.5518 96.3027 73.9625 100.101C70.367 103.906 66.2667 107.366 61.8032 110.463C57.3274 113.541 52.5129 116.312 47.2305 118.343C41.9666 120.344 36.2533 121.612 30.3922 121.391C27.474 121.274 24.5558 120.757 21.8223 119.716C19.0949 118.682 16.5768 117.1 14.5021 115.105C13.4616 114.114 12.5073 113.03 11.6762 111.879C10.8204 110.74 10.0939 109.527 9.42903 108.29C8.11152 105.815 7.12646 103.21 6.3692 100.588C3.43866 90.0722 3.16777 79.3536 4.74386 69.503C5.52575 64.5716 6.75091 59.8433 8.29622 55.3798C8.49323 54.8257 8.69024 54.2716 8.88725 53.7175C9.0781 53.1634 9.28127 52.6155 9.51522 52.0799C9.96466 51.0025 10.4079 49.9374 10.845 48.8784C11.3376 47.8441 11.8239 46.816 12.3103 45.8001C12.7782 44.772 13.3569 43.8116 13.8679 42.8327C16.0043 38.9478 18.3315 35.3401 20.8557 32.0956C21.1635 31.6831 21.4713 31.2767 21.7792 30.8704C22.1055 30.4764 22.4256 30.0885 22.7458 29.7006C23.3984 28.9311 24.0079 28.1492 24.6728 27.4165C25.3377 26.6901 25.9964 25.9697 26.649 25.2617C27.2893 24.5352 28.0035 23.9011 28.6622 23.2362C29.9736 21.8818 31.4019 20.7182 32.7379 19.5176C33.4398 18.9635 34.1355 18.4094 34.8188 17.8677C35.1636 17.5968 35.5022 17.332 35.8408 17.0673C36.1918 16.821 36.5427 16.5748 36.8875 16.3285C37.5832 15.8421 38.2665 15.3619 38.9376 14.8879C39.6333 14.4507 40.3228 14.0198 41.0001 13.595C41.3387 13.3857 41.6773 13.1702 42.0097 12.967C42.3545 12.7761 42.6931 12.5853 43.0317 12.3944C43.709 12.0189 44.3739 11.6495 45.0265 11.2924C46.3502 10.6029 47.6615 9.98721 48.9051 9.38386C50.1857 8.84208 51.4047 8.3003 52.5929 7.82624C53.7935 7.38297 54.9386 6.95817 56.0345 6.55183C57.1427 6.19475 58.2016 5.86229 59.199 5.54215C63.2254 4.35392 66.4022 3.64592 68.5693 3.23342C69.6529 3.03641 70.484 2.88865 71.0381 2.80246C71.6015 2.71578 71.6208 2.8199 71.0689 2.96253C70.521 3.10414 69.7083 3.30115 68.637 3.54741C66.5007 4.06456 63.3547 4.86492 59.3837 6.13934C58.3986 6.47795 57.3581 6.83503 56.2623 7.21059C55.1849 7.62923 54.0582 8.07251 52.8761 8.53425C51.7125 9.02678 50.512 9.58088 49.2561 10.135C48.0309 10.7506 46.7503 11.3786 45.4513 12.0805C44.811 12.4499 44.1584 12.8192 43.4935 13.201C43.161 13.3918 42.8286 13.5827 42.4961 13.7797C42.1698 13.989 41.8435 14.2045 41.5111 14.4138C40.8461 14.8386 40.1751 15.2757 39.4917 15.7128C38.8329 16.1869 38.1619 16.6671 37.4846 17.1596C37.146 17.4059 36.8074 17.6522 36.4627 17.8984C36.1302 18.1632 35.7977 18.4341 35.4653 18.6988C34.8004 19.2406 34.1231 19.7885 33.4336 20.3426C32.1346 21.537 30.7432 22.7006 29.4564 24.0427C28.81 24.7076 28.1143 25.3418 27.4925 26.0559C26.8584 26.7639 26.2119 27.4719 25.5655 28.1984C24.919 28.9249 24.3218 29.7068 23.6877 30.4702C23.3737 30.8519 23.0597 31.2398 22.7396 31.6276C22.4441 32.034 22.1424 32.4342 21.8407 32.8467C19.3719 36.0666 17.1125 39.6374 15.0377 43.4729C14.539 44.4457 13.9788 45.3938 13.5232 46.4035C13.0553 47.407 12.5812 48.4228 12.101 49.4448C11.6762 50.4853 11.2452 51.5381 10.8143 52.597C10.5865 53.1203 10.3895 53.6621 10.2048 54.21C10.0139 54.7518 9.82305 55.2998 9.6322 55.8477C8.13615 60.2435 6.95408 64.8917 6.20297 69.737C5.44571 74.5761 5.14404 79.6122 5.39646 84.7345C5.64272 89.8444 6.43077 95.0652 7.87757 100.163C8.62252 102.706 9.57063 105.205 10.8327 107.563C11.4669 108.739 12.1564 109.884 12.9629 110.955C13.7448 112.039 14.6375 113.049 15.6041 113.966C17.5373 115.819 19.8522 117.278 22.401 118.239C24.9437 119.205 27.6833 119.698 30.46 119.809C36.0317 120.018 41.5603 118.811 46.6641 116.872C51.768 114.914 56.527 112.199 60.9105 109.195C65.2878 106.166 69.3204 102.779 72.8481 99.067C76.3759 95.3546 79.4357 91.3466 81.8922 87.1294L82.3601 86.3475L82.7787 85.541C83.0558 85.0053 83.339 84.4697 83.616 83.9341C84.1517 82.8567 84.6011 81.7485 85.0936 80.6711C85.4938 79.5506 85.9309 78.4609 86.3003 77.3465C86.6512 76.2199 87.0329 75.1055 87.3469 73.985C88.6706 69.5215 89.6864 65.1072 90.2959 60.7915C90.9054 56.4757 91.1025 52.2584 90.8316 48.232C90.5668 44.2056 89.8404 40.3823 88.7383 36.8546C88.4366 35.9804 88.2027 35.0938 87.8518 34.2627C87.5132 33.4254 87.1745 32.6004 86.8421 31.7877C86.4542 30.9997 86.0725 30.2178 85.697 29.4482C85.3337 28.6602 84.9151 27.9706 84.4595 27.2688C82.6433 24.4798 80.5931 22.0665 78.4753 20.0409C76.3451 18.0216 74.1103 16.4209 71.8939 15.2511C69.6652 14.106 67.4611 13.4103 65.4233 13.0963C63.3855 12.7761 61.5385 12.8377 59.9624 13.0101C58.3863 13.2441 57.0688 13.5519 56.0283 13.8966C55.5112 14.0752 55.0494 14.2106 54.6554 14.3584C54.2737 14.5123 53.9474 14.6478 53.6827 14.7524C53.1593 14.9617 52.8823 15.0541 52.87 15.0295Z" stroke="#E8505B" stroke-width="2.52632" mask="url(#path-3-outside-1_124_14111)"/>
<path d="M64.3737 39.0428L64.3737 39.0428C64.6106 43.639 64.9137 47.8022 65.2137 50.821C65.3635 52.3285 65.5136 53.5607 65.6557 54.4218C65.7262 54.8489 65.7979 55.2043 65.8717 55.4617C65.9073 55.5859 65.9521 55.7193 66.012 55.8335C66.0411 55.889 66.0902 55.9723 66.1673 56.0499C66.2415 56.1246 66.4042 56.2552 66.6494 56.2585C66.7651 56.2601 66.8763 56.2301 66.9728 56.1749C67.08 56.1182 67.1528 56.0428 67.1939 55.992C67.263 55.9068 67.3035 55.8188 67.3268 55.7606C67.3747 55.6408 67.4057 55.5036 67.4284 55.3765C67.4755 55.113 67.5105 54.7522 67.537 54.3203C67.5904 53.4494 67.6136 52.2085 67.6084 50.6937C67.5979 47.6601 67.4728 43.4878 67.2359 38.8916C66.9985 34.2859 66.6947 30.1151 66.394 27.0947C66.2439 25.5866 66.0936 24.355 65.9512 23.4966C65.8806 23.0711 65.8088 22.7169 65.7346 22.4612C65.699 22.3384 65.6534 22.2041 65.5914 22.0892C65.5614 22.0335 65.5092 21.9472 65.4256 21.8681C65.3421 21.7891 65.1665 21.6628 64.914 21.6768C64.6626 21.6908 64.5025 21.8347 64.4287 21.9211C64.3544 22.0081 64.3116 22.0988 64.2875 22.1572C64.2378 22.2778 64.2062 22.4158 64.1833 22.5418C64.1357 22.8039 64.1004 23.1636 64.0736 23.5942C64.0198 24.4628 63.9961 25.7031 64.0012 27.2186C64.0112 30.2538 64.1363 34.4339 64.3737 39.0428ZM66.029 55.6239C66.029 55.529 66.0513 55.4136 66.117 55.3032C66.0584 55.405 66.029 55.5188 66.029 55.6239Z" fill="#E8505B" stroke="#E8505B" stroke-width="1.26316"/>
<path d="M64.9846 37.8424L64.984 37.8426C61.8801 38.945 59.0675 39.9735 57.0445 40.7818C56.0355 41.1849 55.2084 41.539 54.6364 41.8238C54.3545 41.9641 54.1095 42.0998 53.9314 42.2267C53.846 42.2876 53.7427 42.3696 53.6591 42.4722C53.598 42.547 53.4065 42.8045 53.5076 43.1472C53.6127 43.5045 53.9326 43.6098 54.02 43.6351C54.1467 43.6719 54.278 43.6805 54.3827 43.682C54.6017 43.6851 54.8811 43.6572 55.1948 43.6106C55.8313 43.516 56.7168 43.3278 57.7792 43.0605C59.9089 42.5248 62.8017 41.6583 65.9424 40.5413C69.083 39.4274 71.8737 38.2764 73.8642 37.3496C74.8572 36.8872 75.6632 36.475 76.2172 36.1468C76.4902 35.985 76.7248 35.8303 76.893 35.6895C76.9736 35.622 77.07 35.5324 77.1452 35.424C77.1975 35.3486 77.3766 35.0687 77.238 34.7279C77.1014 34.391 76.7839 34.3124 76.6912 34.2935C76.5618 34.2671 76.4302 34.269 76.3261 34.2759C76.1086 34.2901 75.8334 34.3396 75.5264 34.4088C74.9035 34.5491 74.0384 34.7962 73.0009 35.1198C70.9208 35.7685 68.0883 36.7432 64.9846 37.8424Z" fill="#E8505B" stroke="#E8505B" stroke-width="1.26316"/>
</svg>
