<svg width="56" height="57" viewBox="0 0 56 57" fill="none" xmlns="http://www.w3.org/2000/svg">
<rect y="0.5" width="56" height="56" rx="28" fill="#A3C0F2"/>
<path d="M33.9031 43.5H40.5C41.163 43.5 41.7989 43.2366 42.2678 42.7678C42.7366 42.2989 43 41.663 43 41V35.1172C42.9989 34.9122 42.9475 34.7106 42.8501 34.5302C42.7528 34.3498 42.6126 34.1961 42.4419 34.0826C42.2711 33.9692 42.0751 33.8994 41.8711 33.8796C41.6671 33.8597 41.4613 33.8903 41.2719 33.9688C40.8289 34.1517 40.3543 34.2457 39.875 34.2453C37.8078 34.2453 36.125 32.5109 36.125 30.3812C36.125 28.2516 37.8078 26.5172 39.875 26.5172C40.3543 26.5168 40.8289 26.6108 41.2719 26.7938C41.4623 26.8726 41.6692 26.9031 41.8742 26.8826C42.0792 26.8622 42.276 26.7913 42.4471 26.6764C42.6181 26.5615 42.7581 26.4061 42.8546 26.224C42.951 26.042 43.001 25.8389 43 25.6328V19.75C43 19.087 42.7366 18.4511 42.2678 17.9822C41.7989 17.5134 41.163 17.25 40.5 17.25H34.8406C34.8639 17.0425 34.8754 16.8338 34.875 16.625C34.875 15.1332 34.2824 13.7024 33.2275 12.6475C32.1726 11.5926 30.7418 11 29.25 11C27.7582 11 26.3274 11.5926 25.2725 12.6475C24.2176 13.7024 23.625 15.1332 23.625 16.625C23.6246 16.8338 23.6361 17.0425 23.6594 17.25H18C17.337 17.25 16.7011 17.5134 16.2322 17.9822C15.7634 18.4511 15.5 19.087 15.5 19.75V24.7844C15.2925 24.7611 15.0838 24.7496 14.875 24.75C13.3832 24.75 11.9524 25.3426 10.8975 26.3975C9.84263 27.4524 9.25 28.8832 9.25 30.375C9.25 31.8668 9.84263 33.2976 10.8975 34.3525C11.9524 35.4074 13.3832 36 14.875 36C15.0838 36.0004 15.2925 35.9889 15.5 35.9656V41C15.5 41.663 15.7634 42.2989 16.2322 42.7678C16.7011 43.2366 17.337 43.5 18 43.5H24.5969" fill="white"/>
</svg>
