<svg width="119" height="118" viewBox="0 0 119 118" fill="none" xmlns="http://www.w3.org/2000/svg">
<path d="M110.665 4.87765e-05H20.8823C20.7293 -0.00128582 20.5773 0.0247771 20.4334 0.0770052L2.95148 6.63114C2.08397 6.95908 1.3369 7.54342 0.809652 8.30639C0.28241 9.06936 0 9.9748 0 10.9022C0 11.8296 0.28241 12.7351 0.809652 13.4981C1.3369 14.261 2.08397 14.8454 2.95148 15.1733L20.4334 21.7274C20.5773 21.7797 20.7293 21.8057 20.8823 21.8044H57.8728V26.8579C57.8795 28.0668 58.3627 29.2243 59.2176 30.0791C60.0724 30.934 61.2299 31.4172 62.4389 31.424H94.3502C96.5613 31.424 98.6818 32.3023 100.245 33.8658C101.809 35.4293 102.687 37.5498 102.687 39.7609C102.687 41.972 101.809 44.0926 100.245 45.656C98.6818 47.2195 96.5613 48.0979 94.3502 48.0979H63.2213C62.5059 48.0982 61.7976 48.2401 61.1372 48.5152C60.4769 48.7904 59.8774 49.1934 59.3734 49.7011C59.2965 49.7909 59.2323 49.8935 59.1554 49.9705C58.3034 50.9757 57.8473 52.2572 57.8728 53.5746V57.7816C52.6664 58.1076 47.7797 60.4041 44.2059 64.2042C40.6322 68.0042 38.6398 73.0227 38.6336 78.2392V97.4783C38.6336 102.921 40.7958 108.141 44.6443 111.989C48.4929 115.838 53.7127 118 59.1554 118C64.5981 118 69.8179 115.838 73.6665 111.989C77.515 108.141 79.6771 102.921 79.6771 97.4783V78.2392C79.6873 73.0116 77.7022 67.9771 74.1268 64.1634C70.5514 60.3497 65.6554 58.0442 60.438 57.7174V53.4848C60.4329 53.1077 60.5028 52.7333 60.6436 52.3834C60.7844 52.0334 60.9933 51.715 61.2582 51.4465C61.5232 51.178 61.8388 50.9648 62.1868 50.8193C62.5348 50.6738 62.9082 50.5989 63.2854 50.599H94.3502C97.2416 50.599 100.015 49.4503 102.059 47.4058C104.104 45.3612 105.252 42.5882 105.252 39.6968C105.252 36.8054 104.104 34.0323 102.059 31.9878C100.015 29.9432 97.2416 28.7946 94.3502 28.7946H62.4389C61.9191 28.7949 61.4197 28.5929 61.0462 28.2314C60.6728 27.8699 60.4547 27.3773 60.438 26.8579V21.8044H110.665C115.795 21.8044 118.078 16.1481 118.078 10.9022C118.078 5.65635 115.757 4.87765e-05 110.665 4.87765e-05ZM41.1989 78.2392C41.1872 73.6909 42.902 69.3077 45.9969 65.9748C49.0918 62.6418 53.3361 60.6075 57.8728 60.2827V67.4781C56.4369 67.7413 55.1381 68.4982 54.2013 69.6178C53.2644 70.7373 52.7483 72.1491 52.7423 73.609V79.6244C52.7483 81.0842 53.2644 82.496 54.2013 83.6156C55.1381 84.7352 56.4369 85.492 57.8728 85.7553V89.4492H41.1989V78.2392ZM77.1119 97.4783C77.1119 102.241 75.2201 106.808 71.8526 110.175C68.4851 113.543 63.9178 115.435 59.1554 115.435C54.393 115.435 49.8257 113.543 46.4582 110.175C43.0907 106.808 41.1989 102.241 41.1989 97.4783V92.0785H77.1119V97.4783ZM60.438 60.3468C64.9636 60.6709 69.1987 62.6961 72.292 66.0154C75.3853 69.3348 77.1073 73.702 77.1119 78.2392V89.5133H60.438V85.7681C61.8133 85.4499 63.0406 84.6762 63.9208 83.5725C64.8009 82.4689 65.2821 81.1001 65.2863 79.6885V73.6731C65.2821 72.2615 64.8009 70.8927 63.9208 69.7891C63.0406 68.6854 61.8133 67.9117 60.438 67.5935V60.3468ZM62.721 73.6731V79.6885C62.721 80.6648 62.3332 81.6011 61.6429 82.2914C60.9525 82.9818 60.0162 83.3696 59.04 83.3696C58.0637 83.3696 57.1274 82.9818 56.437 82.2914C55.7467 81.6011 55.3589 80.6648 55.3589 79.6885V73.6731C55.3589 72.6968 55.7467 71.7605 56.437 71.0702C57.1274 70.3798 58.0637 69.992 59.04 69.992C60.0162 69.992 60.9525 70.3798 61.6429 71.0702C62.3332 71.7605 62.721 72.6968 62.721 73.6731ZM9.42865 14.8527L3.8493 12.8261C3.47148 12.6834 3.14608 12.429 2.91643 12.0968C2.68678 11.7645 2.56377 11.3702 2.56377 10.9664C2.56377 10.5625 2.68678 10.1682 2.91643 9.83593C3.14608 9.5037 3.47148 9.24929 3.8493 9.10657L9.42865 7.01592C10.1604 9.57692 10.1604 12.2917 9.42865 14.8527ZM26.0128 10.915C26.0614 12.9886 25.5708 15.0393 24.5891 16.8664C24.2628 17.5301 23.7697 18.0977 23.1582 18.5136C22.5466 18.9296 21.8376 19.1796 21.1004 19.2392L11.8271 15.7505C12.7877 12.5897 12.7877 9.21477 11.8271 6.05396L21.1004 2.56527C24.3197 2.74483 26.0128 6.83635 26.0128 10.8894V10.915ZM102.597 12.544C102.604 12.5779 102.604 12.6127 102.597 12.6466C102.545 13.1392 102.46 13.6278 102.341 14.1087C102.335 14.1599 102.335 14.2115 102.341 14.2627C102.234 14.6964 102.106 15.1245 101.956 15.5453L101.879 15.7377C101.747 16.0952 101.588 16.4425 101.405 16.7766C101.328 16.9048 101.263 17.0459 101.186 17.1614V17.2255C100.903 17.7356 100.514 18.1793 100.045 18.5266C99.5758 18.8739 99.038 19.1169 98.4673 19.2392H98.4032C98.2156 19.2588 98.0265 19.2588 97.8389 19.2392H26.0128C27.5067 17.1796 28.3629 14.7267 28.4754 12.1848H102.623C102.61 12.3003 102.61 12.4285 102.597 12.544ZM28.5267 9.61961C28.4142 7.07777 27.558 4.62487 26.0641 2.56527H97.8902C100.75 2.56527 102.379 5.93853 102.687 9.61961H28.5267ZM114.154 16.8792C113.851 17.5598 113.364 18.1418 112.747 18.5591C112.131 18.9763 111.409 19.212 110.665 19.2392H102.841C104.501 16.7826 105.344 13.8655 105.252 10.9022C105.344 7.93891 104.501 5.02188 102.841 2.56527H110.665C113.846 2.56527 115.513 6.7594 115.513 10.9022C115.565 12.9766 115.097 15.0311 114.154 16.8792Z" fill="white"/>
</svg>
