<svg width="40" height="41" viewBox="0 0 40 41" fill="none" xmlns="http://www.w3.org/2000/svg">
<path d="M20 4.25C16.6848 4.25 13.5054 5.56696 11.1612 7.91117C8.81696 10.2554 7.5 13.4348 7.5 16.75C7.5 28 20 36.75 20 36.75C20 36.75 32.5 28 32.5 16.75C32.5 13.4348 31.183 10.2554 28.8388 7.91117C26.4946 5.56696 23.3152 4.25 20 4.25ZM20 21.75C19.0111 21.75 18.0444 21.4568 17.2221 20.9073C16.3999 20.3579 15.759 19.577 15.3806 18.6634C15.0022 17.7498 14.9031 16.7445 15.0961 15.7745C15.289 14.8046 15.7652 13.9137 16.4645 13.2145C17.1637 12.5152 18.0546 12.039 19.0245 11.8461C19.9945 11.6531 20.9998 11.7522 21.9134 12.1306C22.827 12.509 23.6079 13.1499 24.1573 13.9721C24.7068 14.7944 25 15.7611 25 16.75C25 18.0761 24.4732 19.3479 23.5355 20.2855C22.5979 21.2232 21.3261 21.75 20 21.75Z" fill="#FFF9BE"/>
<path d="M20 10.5C18.7639 10.5 17.5555 10.8666 16.5277 11.5533C15.4999 12.2401 14.6988 13.2162 14.2258 14.3582C13.7527 15.5003 13.6289 16.7569 13.8701 17.9693C14.1112 19.1817 14.7065 20.2953 15.5806 21.1694C16.4547 22.0435 17.5683 22.6388 18.7807 22.8799C19.9931 23.1211 21.2497 22.9973 22.3918 22.5242C23.5338 22.0512 24.5099 21.2501 25.1967 20.2223C25.8834 19.1945 26.25 17.9861 26.25 16.75C26.25 15.0924 25.5915 13.5027 24.4194 12.3306C23.2473 11.1585 21.6576 10.5 20 10.5ZM20 20.5C19.2583 20.5 18.5333 20.2801 17.9166 19.868C17.2999 19.456 16.8193 18.8703 16.5355 18.1851C16.2516 17.4998 16.1774 16.7458 16.3221 16.0184C16.4667 15.291 16.8239 14.6228 17.3483 14.0983C17.8728 13.5739 18.541 13.2167 19.2684 13.0721C19.9958 12.9274 20.7498 13.0016 21.4351 13.2855C22.1203 13.5693 22.706 14.0499 23.118 14.6666C23.5301 15.2833 23.75 16.0083 23.75 16.75C23.75 17.7446 23.3549 18.6984 22.6517 19.4017C21.9484 20.1049 20.9946 20.5 20 20.5ZM20 3C16.3545 3.00414 12.8596 4.45412 10.2818 7.03185C7.70412 9.60958 6.25414 13.1045 6.25 16.75C6.25 21.6562 8.51719 26.8563 12.8125 31.7891C14.7425 34.0181 16.9148 36.0252 19.2891 37.7734C19.4992 37.9207 19.7496 37.9996 20.0062 37.9996C20.2629 37.9996 20.5133 37.9207 20.7234 37.7734C23.0934 36.0245 25.2614 34.0174 27.1875 31.7891C31.4766 26.8563 33.75 21.6562 33.75 16.75C33.7459 13.1045 32.2959 9.60958 29.7182 7.03185C27.1404 4.45412 23.6455 3.00414 20 3ZM20 35.1875C17.4172 33.1562 8.75 25.6953 8.75 16.75C8.75 13.7663 9.93526 10.9048 12.045 8.79505C14.1548 6.68526 17.0163 5.5 20 5.5C22.9837 5.5 25.8452 6.68526 27.955 8.79505C30.0647 10.9048 31.25 13.7663 31.25 16.75C31.25 25.6922 22.5828 33.1562 20 35.1875Z" fill="black"/>
</svg>
