<svg width="154" height="36" viewBox="0 0 154 36" fill="none" xmlns="http://www.w3.org/2000/svg">
<path d="M43.4862 29.6134C42.5364 28.8001 42.0615 27.3401 42.0615 25.2334C42.0615 23.7801 42.2311 22.6468 42.5703 21.8268C42.9095 21.0134 43.493 20.4201 44.3206 20.0601C45.1483 19.7001 46.3084 19.5134 47.8009 19.5134C48.5607 19.5134 50.7724 19.5734 54.4358 19.7001V18.4201C54.4358 16.8668 54.3001 15.7534 54.0287 15.0934C53.7574 14.4268 53.2621 14.0001 52.543 13.8134C51.8239 13.6268 50.6095 13.5334 48.8999 13.5334C48.1401 13.5334 47.1836 13.5734 46.0303 13.6468C44.8769 13.7201 43.9475 13.8134 43.242 13.9068V11.5734C45.1415 11.2201 47.3532 11.0468 49.8769 11.0468C52.0478 11.0468 53.6692 11.2668 54.7411 11.7068C55.813 12.1468 56.5457 12.8801 56.9392 13.9068C57.3326 14.9334 57.5294 16.4401 57.5294 18.4201V30.8334H54.7614L54.5986 27.8534H54.3951C53.9066 29.0601 53.1129 29.8534 52.0139 30.2401C50.9148 30.6268 49.6326 30.8201 48.1673 30.8201C45.9963 30.8201 44.436 30.4134 43.4862 29.6001V29.6134ZM52.0546 28.0334C52.7737 27.8201 53.3096 27.3868 53.6624 26.7334C54.178 25.7534 54.4358 24.4401 54.4358 22.7868V21.6934H48.615C47.611 21.6934 46.8715 21.7734 46.3966 21.9401C45.9217 22.1068 45.5893 22.4134 45.3993 22.8801C45.2094 23.3468 45.1144 24.0668 45.1144 25.0401C45.1144 26.0134 45.2229 26.6934 45.44 27.1468C45.6571 27.6001 46.0506 27.9134 46.6205 28.0868C47.1903 28.2601 48.0723 28.3468 49.2663 28.3468C50.4603 28.3468 51.3355 28.2401 52.0546 28.0268V28.0334Z" fill="#FFFFFF"/>
<path d="M63.5127 8.14669V4.66669H66.8098L65.1612 8.14669H63.5127Z" fill="#FFFFFF"/>
<path d="M66.6883 11.36H63.5947V30.8467H66.6883V11.36Z" fill="#FFFFFF"/>
<path d="M73.2822 4.66669H83.6213C85.7379 4.66669 87.3254 5.00669 88.3837 5.68002C89.442 6.36002 90.134 7.26669 90.4597 8.40669C90.7853 9.54669 90.9481 11.02 90.9481 12.8267C90.9481 14.6334 90.7853 16.06 90.4597 17.1867C90.134 18.3134 89.4353 19.2334 88.3634 19.9334C87.2915 20.6334 85.6972 20.9867 83.5805 20.9867H76.5386V30.8467H73.2822V4.66669ZM82.7257 18.3534C84.2183 18.3534 85.3173 18.1667 86.0228 17.7867C86.7284 17.4133 87.1829 16.8467 87.3865 16.0934C87.59 15.34 87.6917 14.2534 87.6917 12.82C87.6917 11.3867 87.5968 10.2733 87.4068 9.54668C87.2168 8.82002 86.7691 8.26668 86.0635 7.89335C85.358 7.52002 84.259 7.32669 82.7665 7.32669H76.5386V18.3467H82.7257V18.3534Z" fill="#FFFFFF"/>
<path d="M95.792 30.8467V4.66669H98.8856V30.8467H95.792Z" fill="#FFFFFF"/>
<path d="M105.276 29.6134C104.326 28.8001 103.852 27.3401 103.852 25.2334C103.852 23.7801 104.021 22.6468 104.36 21.8268C104.7 21.0134 105.283 20.4201 106.111 20.0601C106.938 19.7001 108.098 19.5134 109.591 19.5134C110.351 19.5134 112.562 19.5734 116.226 19.7001V18.4201C116.226 16.8668 116.09 15.7534 115.819 15.0934C115.547 14.4268 115.052 14.0001 114.333 13.8134C113.614 13.6268 112.4 13.5334 110.69 13.5334C109.93 13.5334 108.974 13.5734 107.82 13.6468C106.667 13.7201 105.738 13.8134 105.032 13.9068V11.5734C106.932 11.2201 109.143 11.0468 111.667 11.0468C113.838 11.0468 115.459 11.2668 116.531 11.7068C117.603 12.1468 118.336 12.8801 118.729 13.9068C119.123 14.9334 119.319 16.4401 119.319 18.4201V30.8334H116.545L116.389 28.4801L116.185 27.8534C115.697 29.0601 114.903 29.8534 113.804 30.2401C112.705 30.6268 111.423 30.8201 109.957 30.8201C107.786 30.8201 106.226 30.4134 105.276 29.6001V29.6134ZM113.845 28.0334C114.564 27.8201 115.1 27.3868 115.452 26.7334C115.968 25.7534 116.226 24.4401 116.226 22.7868V21.6934H110.405C109.401 21.6934 108.662 21.7734 108.187 21.9401C107.712 22.1068 107.379 22.4134 107.189 22.8801C106.999 23.3468 106.904 24.0668 106.904 25.0401C106.904 26.0134 107.013 26.6934 107.23 27.1468C107.447 27.6001 107.841 27.9134 108.411 28.0868C108.98 28.2601 109.862 28.3468 111.056 28.3468C112.25 28.3468 113.125 28.2401 113.845 28.0268V28.0334Z" fill="#FFFFFF"/>
<path d="M126.687 30.8467V13.84H123.064V11.36H126.687V4.66669H129.781V11.36H134.055V13.84H129.781V30.8467H126.687Z" fill="#FFFFFF"/>
<path d="M139.713 30.0267C138.6 29.4867 137.888 28.5734 137.576 27.2801C137.263 25.9867 137.107 23.8734 137.107 20.9467C137.107 18.0201 137.263 15.9001 137.576 14.6067C137.888 13.3134 138.6 12.4001 139.713 11.8601C140.825 11.3201 142.657 11.0534 145.208 11.0534C147.759 11.0534 149.59 11.3201 150.703 11.8601C151.815 12.4001 152.528 13.3134 152.84 14.6067C153.152 15.9001 153.308 18.0134 153.308 20.9467C153.308 23.8801 153.152 25.9934 152.84 27.2801C152.528 28.5734 151.815 29.4867 150.703 30.0267C149.59 30.5667 147.759 30.8334 145.208 30.8334C142.657 30.8334 140.825 30.5667 139.713 30.0267ZM148.729 27.8467C149.394 27.5067 149.807 26.8801 149.97 25.9667C150.133 25.0534 150.214 23.3801 150.214 20.9467C150.214 18.5134 150.133 16.8401 149.97 15.9267C149.807 15.0134 149.394 14.3867 148.729 14.0467C148.064 13.7067 146.89 13.5401 145.208 13.5401C143.525 13.5401 142.358 13.7067 141.707 14.0467C141.056 14.3867 140.649 15.0134 140.486 15.9267C140.323 16.8401 140.242 18.5134 140.242 20.9467C140.242 23.3801 140.323 25.0801 140.486 25.9867C140.649 26.8867 141.056 27.5067 141.707 27.8467C142.358 28.1867 143.525 28.3534 145.208 28.3534C146.89 28.3534 148.064 28.1867 148.729 27.8467Z" fill="#FFFFFF"/>
<path fill-rule="evenodd" clip-rule="evenodd" d="M10.3136 28.4194L10.2686 30.6683L13.8936 28.1774L10.3136 28.4194Z" fill="#0D8DCC"/>
<path fill-rule="evenodd" clip-rule="evenodd" d="M10.2686 30.6683H11.9024L13.8936 28.1774L10.2686 30.6683Z" fill="#179BD7"/>
<path fill-rule="evenodd" clip-rule="evenodd" d="M10.3135 28.5226L13.8935 28.1773L10.7189 22.7763L10.3135 28.5226Z" fill="#1474BB"/>
<path fill-rule="evenodd" clip-rule="evenodd" d="M10.7188 22.7763L14.2898 26.1792L16.7646 24.7449L10.7188 22.7763Z" fill="#03A14E"/>
<path fill-rule="evenodd" clip-rule="evenodd" d="M10.7188 22.7763L13.8933 28.1773L14.2898 26.1792L10.7188 22.7763Z" fill="#1765B0"/>
<path fill-rule="evenodd" clip-rule="evenodd" d="M7.74902 28.6112L10.3139 28.5226L10.7194 22.7763L7.74902 28.6112Z" fill="#1067B2"/>
<path fill-rule="evenodd" clip-rule="evenodd" d="M3.0127 25.952L7.74902 28.6112L10.7194 22.7763L3.0127 25.952Z" fill="#175EAC"/>
<path fill-rule="evenodd" clip-rule="evenodd" d="M3.0127 25.952L10.7194 22.7763L3.41815 22.4871L3.0127 25.952Z" fill="#1F448F"/>
<path fill-rule="evenodd" clip-rule="evenodd" d="M3.41836 22.487L10.7196 22.7763L1.25293 20.8372L3.41836 22.487Z" fill="#273B84"/>
<path fill-rule="evenodd" clip-rule="evenodd" d="M1.25236 20.8373L9.30442 16.3482L0.678711 15.3654L1.25236 20.8373Z" fill="#078C45"/>
<path fill-rule="evenodd" clip-rule="evenodd" d="M1.25293 20.8373L10.7196 22.7764L9.30499 16.3483L1.25293 20.8373Z" fill="#03793E"/>
<path fill-rule="evenodd" clip-rule="evenodd" d="M9.30469 16.3483L10.7193 22.7763L16.1554 14.4387L9.30469 16.3483Z" fill="#078C45"/>
<path fill-rule="evenodd" clip-rule="evenodd" d="M10.7188 22.7763L18.1431 18.9543L16.1549 14.4387L10.7188 22.7763Z" fill="#03A14E"/>
<path fill-rule="evenodd" clip-rule="evenodd" d="M10.7188 22.7763L16.7646 24.7449L18.1431 18.9543L10.7188 22.7763Z" fill="#37AD4A"/>
<path fill-rule="evenodd" clip-rule="evenodd" d="M16.7646 24.7449L21.4559 24.8157L18.1432 18.9543L16.7646 24.7449Z" fill="#7FC342"/>
<path fill-rule="evenodd" clip-rule="evenodd" d="M18.1436 18.9543L21.4563 24.8157L24.3726 22.4281L18.1436 18.9543Z" fill="#A6CE39"/>
<path fill-rule="evenodd" clip-rule="evenodd" d="M18.1436 18.9543L24.3726 22.4281L23.0481 15.4805L18.1436 18.9543Z" fill="#D6DE27"/>
<path fill-rule="evenodd" clip-rule="evenodd" d="M23.0479 15.4805L24.3723 22.4281L30.7725 21.1855L23.0479 15.4805Z" fill="#FFCD0C"/>
<path fill-rule="evenodd" clip-rule="evenodd" d="M16.1553 14.4387L18.1435 18.9543L23.048 15.4806L16.1553 14.4387Z" fill="#F8BC18"/>
<path fill-rule="evenodd" clip-rule="evenodd" d="M23.0479 15.4805L30.7725 21.1855L32.7608 16.6257L23.0479 15.4805Z" fill="#FAA71D"/>
<path fill-rule="evenodd" clip-rule="evenodd" d="M23.0479 15.4805L32.7608 16.6256L31.7877 12.1956L23.0479 15.4805Z" fill="#F78C21"/>
<path fill-rule="evenodd" clip-rule="evenodd" d="M23.0479 15.4806L31.7877 12.1957L23.2671 11.0948L23.0479 15.4806Z" fill="#EF6723"/>
<path fill-rule="evenodd" clip-rule="evenodd" d="M23.2676 11.0947L31.7882 12.1956L25.415 6.10101L23.2676 11.0947Z" fill="#EE2D28"/>
<path fill-rule="evenodd" clip-rule="evenodd" d="M16.1553 14.4388L23.048 15.4806L23.2673 11.0948L16.1553 14.4388Z" fill="#EC4324"/>
<path fill-rule="evenodd" clip-rule="evenodd" d="M16.1553 14.4387L23.2673 11.0947L16.6839 9.53052L16.1553 14.4387Z" fill="#A51E22"/>
<path fill-rule="evenodd" clip-rule="evenodd" d="M16.6836 9.53051L23.267 11.0947L25.4144 6.10101L16.6836 9.53051Z" fill="#CC2027"/>
<path fill-rule="evenodd" clip-rule="evenodd" d="M16.6836 9.53055L25.4144 6.10105L18.2213 4.66669L16.6836 9.53055Z" fill="#B92025"/>
<path fill-rule="evenodd" clip-rule="evenodd" d="M11.9023 5.16252L16.6837 9.53055L18.2215 4.66669L11.9023 5.16252Z" fill="#AD206D"/>
<path fill-rule="evenodd" clip-rule="evenodd" d="M8.77539 12.0923L16.6833 9.53051L11.9019 5.16248L8.77539 12.0923Z" fill="#AD206D"/>
<path fill-rule="evenodd" clip-rule="evenodd" d="M8.77539 12.0923L9.30399 16.3482L16.6833 9.53052L8.77539 12.0923Z" fill="#821C59"/>
<path fill-rule="evenodd" clip-rule="evenodd" d="M9.30469 16.3482L16.1554 14.4387L16.684 9.53052L9.30469 16.3482Z" fill="#5E1340"/>
<path fill-rule="evenodd" clip-rule="evenodd" d="M4.30469 8.72186L9.30532 16.3482L8.77672 12.0923L4.30469 8.72186Z" fill="#CB1680"/>
<path fill-rule="evenodd" clip-rule="evenodd" d="M4.30469 8.72183L8.77672 12.0923L11.9032 5.16248L4.30469 8.72183Z" fill="#C02673"/>
<path fill-rule="evenodd" clip-rule="evenodd" d="M0.678711 15.3654L9.30442 16.3482L4.30379 8.72186L0.678711 15.3654Z" fill="#ED1A8E"/>
</svg>
