<svg width="100" height="100" viewBox="0 0 100 100" fill="none" xmlns="http://www.w3.org/2000/svg">
<path d="M80 30H20C19.2044 30 18.4413 29.6839 17.8787 29.1213C17.3161 28.5587 17 27.7956 17 27C17 26.2044 17.3161 25.4413 17.8787 24.8787C18.4413 24.3161 19.2044 24 20 24H80C80.7956 24 81.5587 24.3161 82.1213 24.8787C82.6839 25.4413 83 26.2044 83 27C83 27.7956 82.6839 28.5587 82.1213 29.1213C81.5587 29.6839 80.7956 30 80 30Z" fill="#003392"/>
<path d="M80 53H20C19.2044 53 18.4413 52.6839 17.8787 52.1213C17.3161 51.5587 17 50.7956 17 50C17 49.2044 17.3161 48.4413 17.8787 47.8787C18.4413 47.3161 19.2044 47 20 47H80C80.7956 47 81.5587 47.3161 82.1213 47.8787C82.6839 48.4413 83 49.2044 83 50C83 50.7956 82.6839 51.5587 82.1213 52.1213C81.5587 52.6839 80.7956 53 80 53Z" fill="#003392"/>
<path d="M80 76H20C19.2044 76 18.4413 75.6839 17.8787 75.1213C17.3161 74.5587 17 73.7956 17 73C17 72.2044 17.3161 71.4413 17.8787 70.8787C18.4413 70.3161 19.2044 70 20 70H80C80.7956 70 81.5587 70.3161 82.1213 70.8787C82.6839 71.4413 83 72.2044 83 73C83 73.7956 82.6839 74.5587 82.1213 75.1213C81.5587 75.6839 80.7956 76 80 76Z" fill="#003392"/>
</svg>
