<svg width="100" height="100" viewBox="0 0 100 100" fill="none" xmlns="http://www.w3.org/2000/svg">
<path d="M69.5478 73.7904L27.1214 31.364C26.5587 30.8014 26.2427 30.0383 26.2427 29.2426C26.2427 28.447 26.5587 27.6839 27.1214 27.1213C27.684 26.5587 28.447 26.2426 29.2427 26.2426C30.0383 26.2426 30.8014 26.5587 31.364 27.1213L73.7904 69.5477C74.353 70.1103 74.6691 70.8734 74.6691 71.669C74.6691 72.4647 74.353 73.2278 73.7904 73.7904C73.2278 74.353 72.4647 74.669 71.6691 74.669C70.8734 74.669 70.1104 74.353 69.5478 73.7904Z" fill="#003392"/>
<path d="M73.7904 31.6949L31.364 74.1213C30.8014 74.6839 30.0383 75 29.2426 75C28.447 75 27.6839 74.6839 27.1213 74.1213C26.5587 73.5587 26.2426 72.7956 26.2426 72C26.2426 71.2043 26.5587 70.4413 27.1213 69.8787L69.5477 27.4523C70.1103 26.8897 70.8734 26.5736 71.669 26.5736C72.4647 26.5736 73.2278 26.8897 73.7904 27.4523C74.353 28.0149 74.669 28.7779 74.669 29.5736C74.669 30.3692 74.353 31.1323 73.7904 31.6949Z" fill="#003392"/>
</svg>
