<svg width="49" height="48" viewBox="0 0 49 48" fill="none" xmlns="http://www.w3.org/2000/svg">
<circle cx="25" cy="24" r="24" transform="rotate(-90 25 24)" fill="#17150D"/>
<path d="M36.5 24.25C36.5 24.4489 36.421 24.6397 36.2803 24.7803C36.1397 24.921 35.9489 25 35.75 25H13.75C13.5511 25 13.3603 24.921 13.2197 24.7803C13.079 24.6397 13 24.4489 13 24.25C13 24.0511 13.079 23.8603 13.2197 23.7197C13.3603 23.579 13.5511 23.5 13.75 23.5H35.75C35.9489 23.5 36.1397 23.579 36.2803 23.7197C36.421 23.8603 36.5 24.0511 36.5 24.25Z" fill="white"/>
<path d="M24.75 12C24.9489 12 25.1397 12.079 25.2803 12.2197C25.421 12.3603 25.5 12.5511 25.5 12.75V34.75C25.5 34.9489 25.421 35.1397 25.2803 35.2803C25.1397 35.421 24.9489 35.5 24.75 35.5C24.5511 35.5 24.3603 35.421 24.2197 35.2803C24.079 35.1397 24 34.9489 24 34.75V12.75C24 12.5511 24.079 12.3603 24.2197 12.2197C24.3603 12.079 24.5511 12 24.75 12Z" fill="white"/>
</svg>
