<svg width="25" height="21" viewBox="0 0 25 21" fill="none" xmlns="http://www.w3.org/2000/svg">
<path d="M8.59086 9.54555H5.24991C4.85215 9.54555 4.514 9.40638 4.23557 9.12794C3.95728 8.8495 3.81796 8.51146 3.81796 8.1136V7.63654C3.81796 6.5825 4.1909 5.68272 4.93673 4.93689C5.68251 4.19132 6.58245 3.81838 7.63639 3.81838H8.59086C8.84935 3.81838 9.07299 3.72387 9.26199 3.53503C9.45089 3.34607 9.54534 3.12244 9.54534 2.8639V0.954633C9.54534 0.69615 9.45084 0.472302 9.26199 0.28335C9.07304 0.094659 8.8494 0 8.59086 0H7.63639C6.60219 0 5.61554 0.201542 4.67579 0.604051C3.73615 1.00682 2.9234 1.55127 2.23723 2.23744C1.55111 2.9233 1.00682 3.7361 0.604103 4.67584C0.201385 5.61548 0 6.6024 0 7.63649V18.1363C0 18.9321 0.278282 19.6079 0.835108 20.1649C1.39199 20.7217 2.06829 21 2.86369 21H8.59123C9.38658 21 10.0627 20.7217 10.6196 20.1649C11.1763 19.6079 11.4548 18.9321 11.4548 18.1363V12.4092C11.4548 11.6135 11.1763 10.9377 10.6192 10.3807C10.0626 9.82399 9.38622 9.54555 8.59086 9.54555Z" fill="#4252AF"/>
<path d="M23.9835 10.3807C23.4268 9.82399 22.7507 9.54555 21.9551 9.54555H18.6142C18.2167 9.54555 17.8782 9.40638 17.6003 9.12794C17.3217 8.8495 17.1827 8.51146 17.1827 8.1136V7.63654C17.1827 6.5825 17.5556 5.68272 18.3011 4.93689C19.0466 4.19132 19.9465 3.81838 21.0009 3.81838H21.9552C22.2137 3.81838 22.4375 3.72387 22.6264 3.53503C22.8151 3.34607 22.9099 3.12244 22.9099 2.8639V0.954633C22.9099 0.69615 22.8152 0.472302 22.6264 0.28335C22.4376 0.094659 22.2138 0 21.9552 0H21.0009C19.9662 0 18.9797 0.201542 18.0397 0.604051C17.1002 1.00682 16.2877 1.55127 15.6016 2.23744C14.9154 2.9233 14.3708 3.7361 13.9683 4.67584C13.5657 5.61548 13.364 6.6024 13.364 7.63649V18.1363C13.364 18.9321 13.6426 19.6079 14.1992 20.1649C14.7559 20.7217 15.4321 21 16.2276 21H21.9548C22.7504 21 23.4265 20.7217 23.9831 20.1649C24.5402 19.6079 24.8182 18.9321 24.8182 18.1363V12.4092C24.8183 11.6135 24.5402 10.9377 23.9835 10.3807Z" fill="#4252AF"/>
</svg>
