<svg width="720" height="739" viewBox="0 0 720 739" fill="none" xmlns="http://www.w3.org/2000/svg">
<g opacity="0.6">
<path d="M738.641 1V739.38H0.999832L738.641 1ZM708.92 31.0408L43.0512 738.747L738.008 697.322L708.92 31.0408Z" stroke="#0E223D" stroke-width="0.834554" stroke-miterlimit="10" stroke-linecap="square"/>
<path d="M680.15 62.0332L735.797 655.267L85.1046 735.587L680.15 62.0332ZM652.642 93.9716L126.84 729.895L731.371 613.209L652.642 93.9716Z" stroke="#0E223D" stroke-width="0.834554" stroke-miterlimit="10" stroke-linecap="square"/>
<path d="M626.085 126.545L724.416 571.786L167.944 721.043L626.085 126.545ZM600.474 160.38L208.731 709.343L714.298 530.677L600.474 160.38Z" stroke="#0E223D" stroke-width="0.834554" stroke-miterlimit="10" stroke-linecap="square"/>
<path d="M576.444 194.845L701.018 490.513L248.253 694.477L576.444 194.845ZM553.679 230.262L286.51 676.452L683.628 452.25L553.679 230.262Z" stroke="#0E223D" stroke-width="0.834554" stroke-miterlimit="10" stroke-linecap="square"/>
<path d="M532.499 266.626L660.867 416.832L322.557 654.631L532.499 266.626ZM512.58 304.257L356.388 629.649L631.462 386.474L512.58 304.257Z" stroke="#0E223D" stroke-width="0.834554" stroke-miterlimit="10" stroke-linecap="square"/>
<path d="M494.876 342.521L595.104 365.605L387.059 600.558L494.876 342.521ZM479.383 381.416L413.934 568.304L553.368 361.178L479.383 381.416Z" stroke="#0E223D" stroke-width="0.834554" stroke-miterlimit="10" stroke-linecap="square"/>
<path d="M466.101 421.577L514.792 376.989L436.38 532.571L466.101 421.577Z" stroke="#0E223D" stroke-width="0.834554" stroke-miterlimit="10" stroke-linecap="square"/>
</g>
</svg>
