<svg width="307" height="42" viewBox="0 0 307 42" fill="none" xmlns="http://www.w3.org/2000/svg">
<path opacity="0.7" d="M57.2382 37.3052C49.8733 34.5531 4.65487 42.4966 1.42643 41.9753C-1.43882 41.0371 0.538606 19.0831 2.75816 15.6222C3.54509 14.3921 4.57416 14.0585 7.03585 14.3712C9.19487 14.6423 24.0659 12.7867 60.0429 8.63777C60.7491 9.26324 62.5247 6.8656 62.9485 7.65786C63.2713 8.11654 68.4974 7.8872 76.2658 7.40767C84.9826 6.86559 108.712 5.07259 120.415 4.34288C137.687 3.23788 131.19 3.4672 150.964 2.4873C155.1 2.27881 151.872 3.69655 156.735 3.07108C167.106 1.7576 189.786 2.54985 197.635 1.3823C203.931 0.444098 205.303 0.381558 211.356 1.19467C216.199 1.84099 250.36 1.5491 254.214 0.214764C255.142 -0.181368 255.848 0.00626773 255.828 0.485795C256.231 0.527493 278.972 1.79928 279.073 2.19541C279.234 2.67494 279.92 2.94599 280.586 2.63326C281.797 2.09118 306.514 1.65335 306.857 3.07108C307.826 7.15749 303.649 23.9618 300.683 27.9857C297.576 32.1972 282.241 26.422 269.085 28.5694C269.085 28.5694 265.372 28.4652 259.803 28.2775C205.424 26.6096 207.28 27.7563 196.909 29.0906C195.436 27.6312 189.887 31.2173 186.436 28.7362C185.004 27.7146 174.895 27.7146 172.635 28.7571C172.151 28.9864 168.559 29.0698 163.333 29.1324C158.127 29.1949 151.287 29.2157 144.366 29.4242C140.895 29.5285 137.404 29.6119 134.095 29.7578C130.786 29.9038 127.598 30.1122 124.793 30.3416C119.164 30.8003 114.967 31.3632 113.675 32.1555C103.344 30.1123 66.984 35.8457 57.1776 37.3052H57.2382Z" fill="#FEEF38"/>
</svg>
